<svg width="1024" height="943" viewBox="0 0 1024 943" fill="none" xmlns="http://www.w3.org/2000/svg">
<path d="M213.52 54.7321C157.495 54.7321 112.078 100.149 112.078 156.174V703.258C112.078 759.282 157.495 804.698 213.52 804.698H810.48C866.505 804.698 911.922 759.282 911.922 703.258V156.174C911.922 100.149 866.505 54.7321 810.48 54.7321H213.52Z" fill="url(#paint0_linear_222_10)"/>
<path d="M1023.82 905.452C1023.82 925.926 794.67 942.523 512 942.523C229.33 942.523 0.180908 925.926 0.180908 905.452C0.180908 884.978 229.33 868.381 512 868.381C794.67 868.381 1023.82 884.978 1023.82 905.452Z" fill="#ECECEC"/>
<path d="M207 585.36H442.38V145H207V585.36ZM418.59 564.18H230.79V376.8H418.59V564.18ZM418.59 353.559H230.79V166.179H418.59V353.559Z" stroke="#329F72" stroke-width="4" stroke-linecap="round" stroke-linejoin="round"/>
<path d="M574.235 584.011H809.615V143.651H574.235V584.011ZM785.825 562.831H598.025V375.451H785.825V562.831ZM785.825 352.21H598.025V164.83H785.825V352.21Z" stroke="#329F72" stroke-width="4" stroke-linecap="round" stroke-linejoin="round"/>
<path d="M915.758 545.944C923.282 524.798 856.124 401.847 836.764 389.664C810.105 372.888 770.177 395.62 778.774 428.223C782.172 441.1 796.91 464.87 816.554 487.486C830.554 503.609 866.053 539.879 873.245 546.048C899.172 568.367 909.999 562.133 915.758 545.944Z" fill="#DF9605"/>
<path d="M902.417 435.725C904.64 427.163 906.458 420.248 907.518 416.059C910.942 402.507 934.733 394.595 932.765 415.212C932.329 419.784 931.651 428.326 930.86 438.852L902.417 435.725Z" fill="#E4A7A3"/>
<path d="M898.933 442.622L931.665 444.744L933.051 431.544C933.268 429.474 931.789 427.611 929.724 427.355L906.496 424.472C904.543 424.229 902.724 425.513 902.298 427.436L898.933 442.622Z" fill="#DF9605"/>
<path d="M900.248 437.255C889.976 434.36 880.784 508.168 878.165 524.036C875.196 542.036 887.791 558.957 899.752 560.711C911.04 562.37 932.79 555.717 934.774 537.157C934.774 537.157 941.333 441.371 932.179 439.877L900.248 437.255Z" fill="#F8AE01"/>
<path d="M910.541 408.752L884.267 411.017C881.532 411.157 877.161 406.789 877.63 404.627L890.71 344.357C891.055 342.768 892.46 341.633 894.086 341.629L923.604 341.556C925.816 341.551 930.832 344.685 930.334 347.386L913.917 406.022C913.572 407.612 912.168 408.747 910.541 408.752Z" fill="#453E51"/>
<path d="M935.873 404.259C935.873 404.259 938.485 387.552 932.649 379.712C930.024 376.183 925.171 369.622 924.111 369.28C920.966 368.267 923.718 368 922.337 372.698C921.139 376.775 924.455 382.648 923.191 384.104C920.471 387.237 935.873 404.259 935.873 404.259Z" fill="#E4A7A3"/>
<path d="M913.785 410.943L884.267 411.017C882.055 411.022 880.405 408.98 880.874 406.818L893.954 346.548C894.299 344.96 895.704 343.824 897.33 343.82L926.848 343.747C929.06 343.742 930.71 345.783 930.241 347.944L917.161 408.214C916.816 409.803 915.412 410.939 913.785 410.943Z" fill="#554E62"/>
<path d="M928.929 387.21C928.929 387.21 942.048 402.007 932.254 413.204C925.702 420.696 918.693 433.785 902.966 411.837C894.715 400.324 914.652 373.835 928.929 387.21Z" fill="#E4A7A3"/>
<path d="M922.759 399.411C922.759 399.411 919.029 392.299 914.61 385.279C909.871 377.751 907.272 373.593 904.519 375.284C902.418 376.574 902.784 380.753 904.851 384.843C908.521 394.777 914.381 405.449 915.105 406.23C917.256 408.552 925.195 403.228 922.759 399.411Z" fill="#E4A7A3"/>
<path d="M899.466 405.572C899.466 405.572 904.854 418.159 909.95 415.335C916.482 411.717 906.301 401.524 905.394 400.223C900.443 393.144 894.16 394.345 899.466 405.572Z" fill="#E4A7A3"/>
<path d="M912.987 398.68C912.987 398.68 904.914 382.65 900.544 385.012C895.535 387.719 905.98 403.189 907.143 404.265C909.468 406.415 915.711 402.297 912.987 398.68Z" fill="#E4A7A3"/>
<path d="M929.485 392.08C929.485 392.08 916.726 365.504 911.666 368.391C905.179 372.091 920.591 397.478 921.634 398.673C923.718 401.056 931.809 395.967 929.485 392.08Z" fill="#E4A7A3"/>
<path d="M903.365 350.63C903.441 352.104 902.307 353.36 900.834 353.436C899.36 353.512 898.104 352.378 898.028 350.904C897.953 349.431 899.087 348.175 900.56 348.1C902.034 348.024 903.29 349.156 903.365 350.63Z" fill="#FFF3E6"/>
<path d="M901.219 358.825C901.273 359.867 900.471 360.755 899.429 360.808C898.388 360.862 897.499 360.061 897.446 359.019C897.393 357.977 898.194 357.089 899.236 357.036C900.278 356.982 901.166 357.783 901.219 358.825Z" fill="#FFF3E6"/>
<path d="M851.103 912.044H844.362L808.878 627.47H827.611L851.103 912.044Z" fill="#BCC8E1"/>
<path d="M654.835 912.044H661.575L697.059 627.47H678.325L654.835 912.044Z" fill="#BCC8E1"/>
<path d="M939.015 912.046H932.274C923.551 842.081 914.908 772.739 906.378 704.348H921.868C926.978 766.272 937.775 897.03 939.015 912.046Z" fill="#BCC8E1"/>
<path d="M754.958 912.044H761.698L797.182 627.47H778.448L754.958 912.044Z" fill="#BCC8E1"/>
<path d="M820.237 736.402H657.599C640.109 736.402 625.707 722.811 624.587 705.472C624.527 704.547 624.503 703.453 624.373 699.435C624.299 696.901 622.443 655.932 616.719 528.634C616.124 509.961 631.104 494.496 649.795 494.496H773.678C787.944 494.496 800.605 503.646 805.085 517.189L851.652 692.914C858.729 714.248 842.862 736.402 820.237 736.402Z" fill="#8E4F36"/>
<path d="M943.569 717.101C943.569 727.751 934.931 736.403 924.267 736.403H657.599C640.108 736.403 625.707 722.812 624.587 705.473C624.336 698.412 624.389 699.931 624.317 697.807H924.267C934.927 697.807 943.569 706.45 943.569 717.101Z" fill="#8E4F36"/>
<path d="M852.875 698.622H675.156C669.052 698.622 663.95 694.047 663.29 687.978L658.644 645.3C658.595 644.852 658.918 644.449 659.366 644.401C659.818 644.342 660.217 644.676 660.266 645.124L664.912 687.803C665.482 693.041 669.886 696.991 675.156 696.991H852.875C853.326 696.991 853.691 697.356 853.691 697.807C853.691 698.257 853.326 698.622 852.875 698.622Z" fill="#79412C"/>
<path d="M954.838 625.345C983.707 640.171 975.651 688.517 925.075 702.105C922.27 702.863 908.966 704.917 897.716 705.501C878.867 706.476 848.508 707.097 821.092 703.424C792.177 699.544 769.383 680.72 763.335 664.079C746.571 617.936 762.885 568.934 852.982 589.743C917.729 604.68 940.165 617.809 954.838 625.345Z" fill="#2F2F2F"/>
<path d="M874.814 653.551L844.465 704.962L891.31 703.976L874.814 653.551Z" fill="#050505"/>
<path d="M865.754 591.806L812.695 706.31L707.192 646.779L832.387 584.656L865.754 591.806Z" fill="#050505"/>
<path d="M757.882 727.27C742.503 727.27 725.323 724.526 711.349 717.964C702.932 714.017 678.407 692.994 675.366 685.681C654.374 635.202 668.835 609.25 761.31 609.25C845.272 609.25 833.556 727.27 757.882 727.27Z" fill="#2F2F2F"/>
<path d="M746.166 726.741C733.122 725.589 721.054 722.521 711.348 717.965L721.47 679.8L746.166 726.741Z" fill="#050505"/>
<path d="M865.76 591.799C800.44 602.739 793.19 608.589 750.08 617.56C708.66 626.179 690.68 635.699 677.36 630.81C670.576 628.318 666.335 624.368 664.3 617.32C662.05 609.499 665.6 611.141 662.02 575.731C661.066 562.835 656.362 530.423 649.89 500.749C648.22 492.81 646.45 484.76 644.61 476.481C640.29 457.83 637.02 435.31 643.78 417.28C661.161 370.335 735.053 381.859 806.93 381.859C833.27 381.859 847.94 396.759 853.37 419.509C861.4 453.199 858.81 518.89 863.8 574.049C864.35 580.119 877.18 587.239 865.76 591.799Z" fill="#F8AE01"/>
<path d="M799.899 442.25C798.925 449.286 791.148 453.054 785.049 449.58C764.621 437.955 747.961 421.662 737.369 404.51C729.929 392.48 728.399 385.17 728.739 380.72C750.429 380.34 774.379 381.56 798.509 381.81C804.856 396.123 801.89 426.649 799.899 442.25Z" fill="#DF9605"/>
<path d="M716.815 439.957L701.258 537.238L746.579 581.551L735.178 611.731L685.168 615.322C682.365 615.03 679.147 613.233 676.976 611.381C672.773 604.191 674.577 603.745 669.595 571.225C669.565 570.864 666.925 565.423 666.923 565.405C665.335 557.28 659.923 528.23 656.791 514.326C656.504 513.296 654.088 503.315 651.716 494.59C653.714 491.21 649.605 498.625 716.815 439.957Z" fill="#DF9605"/>
<path d="M789.99 440.88C752.082 419.372 736.068 384.75 739.01 380.64L785.76 381.71C796.158 386.164 791.535 429.737 789.99 440.88Z" fill="white"/>
<path d="M760.163 392.899C760.163 392.899 769.418 403.715 779.98 403.715C785.048 403.715 785.119 391.187 783.054 391.187C776.504 391.187 760.163 392.899 760.163 392.899Z" fill="#F43B06"/>
<path d="M748.699 380.642C751.684 374.996 772.912 377.442 777.587 380.252C782.655 383.299 791.108 391.964 789.036 393.017C788.037 393.524 785.366 392.359 780.59 392.359C775.813 392.36 775.334 395.738 775.334 395.738C775.334 395.738 766.726 392.35 761.631 392.641C758.692 392.809 753.976 395.738 752.834 395.738C750.387 395.738 747.102 383.663 748.699 380.642Z" fill="#EBEFF8"/>
<path d="M791.736 423.57C791.146 436.19 789.989 440.88 789.989 440.88C784.649 437.85 779.749 434.57 775.289 431.16C773.569 417.719 773.649 400.2 773.649 400.2C773.649 400.2 773.749 399.52 780.679 399.07C782.979 398.92 787.326 414.62 791.736 423.57Z" fill="#F43B06"/>
<path d="M753.692 340.28L752.836 380.819L775.335 395.738L771.941 381.253L771.196 360.772L753.692 340.28Z" fill="#E4A7A3"/>
<path d="M760.164 354.736C760.164 354.736 760.372 367.605 771.514 370.424L770.967 358.926L760.164 354.736Z" fill="#D18581"/>
<path d="M785.709 314.367C778.446 305.129 751.528 307.647 750.637 323.687C749.746 339.727 760.725 366.976 780.032 366.976C786.372 366.976 792.432 349.383 790.939 345.734C788.346 337.048 791.186 331.019 791.265 327.616C791.344 324.213 788.325 317.694 785.709 314.367Z" fill="#E4A7A3"/>
<path d="M753.298 358.926C738.747 344.735 730.436 329.698 730.051 319.124C729.54 305.053 746.69 302.3 746.69 302.3C749.105 295.076 757.888 289.18 770.927 289.18C799.788 289.18 803.973 309.596 803.115 315.399C802.257 321.202 780.589 334.331 763.82 320.149C763.115 321.767 762.207 324.685 759.613 325.869C756.977 327.072 755.146 330.028 754.929 333.802C754.516 340.963 753.298 358.926 753.298 358.926Z" fill="#2B2B2B"/>
<path d="M755.962 335.818C757.036 338.799 756.378 341.766 754.493 342.445C752.607 343.125 750.209 341.259 749.134 338.278C748.06 335.297 748.718 332.33 750.603 331.651C752.488 330.971 754.888 332.837 755.962 335.818Z" fill="#E4A7A3"/>
<path d="M775.561 335.931C775.564 336.997 774.808 337.863 773.87 337.864C772.932 337.866 772.167 337.003 772.164 335.937C772.16 334.87 772.918 334.005 773.856 334.003C774.794 334.002 775.557 334.864 775.561 335.931Z" fill="black"/>
<path d="M788.421 335.901C788.425 336.967 787.668 337.833 786.73 337.834C785.792 337.836 785.028 336.973 785.025 335.907C785.021 334.84 785.778 333.975 786.716 333.973C787.654 333.972 788.417 334.834 788.421 335.901Z" fill="black"/>
<path d="M791.56 328.499C791.522 328.068 790.683 327.21 788.221 326.905C786.534 326.696 784.049 327.415 783.981 328.198C783.814 330.125 786.482 328.839 788.485 328.663C790.488 328.487 791.598 328.93 791.56 328.499Z" fill="#2B2B2B"/>
<path d="M781.068 349.675C780.565 349.675 780.589 349.01 781.035 349.006C781.057 349.009 783.453 349.025 784.381 348.107C784.607 347.883 784.716 347.625 784.716 347.32C784.711 345.341 781.613 338.604 781.582 338.536C781.397 338.134 782.005 337.853 782.191 338.256C782.321 338.538 785.381 345.195 785.386 347.318C785.391 349.138 782.889 349.675 781.068 349.675Z" fill="#DE8180"/>
<path d="M781.841 358.302C780.639 358.302 779.069 358.001 777.078 357.078C776.677 356.891 776.954 356.287 777.36 356.471C782.485 358.848 784.538 356.809 784.558 356.788C784.863 356.47 785.346 356.927 785.047 357.247C784.986 357.312 784.02 358.302 781.841 358.302Z" fill="black"/>
<path d="M769.534 328.771C769.541 328.338 770.316 327.423 772.75 326.944C774.418 326.616 776.948 327.155 777.072 327.932C777.375 329.842 774.622 328.749 772.611 328.715C770.601 328.682 769.527 329.204 769.534 328.771Z" fill="#2B2B2B"/>
<path d="M874.301 876.374L851.797 883.964L836.592 838.886L859.095 831.296L874.301 876.374Z" fill="#EE9A95"/>
<path d="M839.582 847.753L865.131 849.192L861.979 839.822L839.582 847.753Z" fill="#D18581"/>
<path d="M872.417 859.505C871.524 857.293 868.839 850.314 865.949 850.88C864.042 851.255 854.991 853.114 852.893 856.149C851.192 858.612 859.489 873.294 845.151 867.883C844.692 868.164 842.482 869.208 843.307 871.253C847.226 880.962 847.161 887.369 849.271 890.65C853.512 897.245 857.57 895.064 868.049 890.62C878.786 886.505 890.267 880.888 892.535 879.874L892.601 879.717C896.15 877.492 898.354 875.292 897.652 873.551C893.18 862.471 876.336 869.214 872.417 859.505Z" fill="#2F2F2F"/>
<path d="M872.822 860.487L860.985 865.264C860.633 865.406 860.233 865.236 860.091 864.884C859.949 864.532 860.119 864.131 860.47 863.989L872.308 859.212C872.659 859.07 873.06 859.24 873.202 859.593C873.344 859.944 873.174 860.345 872.822 860.487Z" fill="white"/>
<path d="M876.579 864.447L866.397 868.556C866.045 868.698 865.644 868.526 865.502 868.175C865.36 867.823 865.53 867.422 865.882 867.28L876.064 863.171C876.416 863.029 876.816 863.2 876.958 863.552C877.1 863.904 876.93 864.305 876.579 864.447Z" fill="white"/>
<path d="M884.787 866.6L870.047 872.549C869.695 872.691 869.294 872.52 869.152 872.168C869.01 871.816 869.18 871.415 869.532 871.273L884.273 865.324C884.624 865.183 885.025 865.353 885.167 865.705C885.309 866.057 885.139 866.459 884.787 866.6Z" fill="white"/>
<path d="M815.301 642.933C820.744 659.831 849.159 778.858 865.693 833.557C866.519 843.27 840.072 847.958 830.365 849.282C824.243 832.442 737.791 712.039 732.406 696.523C722.059 667.072 728.452 644.441 741.975 630.15C750.216 621.445 762.809 614.498 774.464 613.784C793.559 612.446 809.79 625.797 815.301 642.933Z" fill="#2F2F2F"/>
<path d="M821.71 880.85L801.648 868.141L827.105 827.951L847.168 840.66L821.71 880.85Z" fill="#EE9A95"/>
<path d="M839.174 873.932C837.431 871.007 844.112 865.953 842.331 862.989C840.55 860.025 831.97 854.993 829.099 855.408C827.633 855.62 826.366 858.097 825.478 860.468C823.16 863.301 820.881 863.48 815.483 860.061C810.841 857.12 811.563 853.924 809.564 852.658C807.749 851.507 806.178 853.543 806.178 853.543C806.178 853.543 793.038 868.423 793.88 872.958C794.722 877.492 848.865 909.796 850.805 908.112C859.389 900.665 845.054 890.15 839.174 873.932Z" fill="#2F2F2F"/>
<path d="M827.429 871.853C826.76 871.451 827.178 870.416 827.938 870.593L839.33 873.264C839.7 873.348 839.929 873.72 839.843 874.089C839.756 874.459 839.386 874.688 839.017 874.602C826.852 871.75 827.569 871.936 827.429 871.853Z" fill="white"/>
<path d="M831.111 878.731C830.438 878.327 830.866 877.286 831.629 877.474L842.417 880.126C842.787 880.213 843.011 880.589 842.921 880.957C842.83 881.325 842.457 881.551 842.088 881.459C830.568 878.628 831.246 878.812 831.111 878.731Z" fill="white"/>
<path d="M835.181 885.854C834.512 885.453 834.931 884.418 835.692 884.596L846.525 887.136C846.897 887.221 847.126 887.591 847.038 887.961C846.952 888.33 846.582 888.559 846.213 888.473C834.626 885.758 835.316 885.935 835.181 885.854Z" fill="white"/>
<path d="M822.521 834.962L837.163 856.456L842.346 848.056L822.521 834.962Z" fill="#D18581"/>
<path d="M849.561 847.21C882.047 799.365 956.17 703.055 965.977 688.075C977.572 670.363 976.196 643.092 952.527 629.963C928.858 616.834 895.292 619.843 872.162 657.387C863.422 671.576 824.354 814.285 815.105 829.657C828.694 842.443 843.904 852.645 849.561 847.21Z" fill="#2F2F2F"/>
<path d="M637.12 581.693C621.964 565.139 636.004 425.747 649.1 406.994C667.134 381.168 712.758 386.577 717.522 419.957C719.401 433.141 715.069 460.773 705.771 489.249C699.146 509.548 680.551 556.77 676.326 565.252C661.123 595.899 648.723 594.367 637.12 581.693Z" fill="#F8AE01"/>
<path d="M746.151 615.168C754.801 617.019 761.796 618.493 766.015 619.425C779.665 622.438 797.403 604.719 778.092 597.236C773.809 595.575 765.869 592.353 756.106 588.342L746.151 615.168Z" fill="#E4A7A3"/>
<path d="M738.423 615.19L751.199 584.981L763.62 589.659C765.567 590.392 766.57 592.55 765.873 594.511L758.038 616.565C757.378 618.421 755.416 619.471 753.507 618.99L738.423 615.19Z" fill="#DF9605"/>
<path d="M743.81 616.421C741.792 626.901 671.696 602.033 656.337 597.258C638.916 591.844 629.437 573 633.231 561.523C636.809 550.688 652.504 534.228 669.984 540.775C669.984 540.775 758.547 577.85 755.78 586.703L743.81 616.421Z" fill="#F8AE01"/>
<path d="M777.907 596.7C777.907 596.7 793.125 591.615 801.381 595.834C805.096 597.734 809.778 599.081 811.069 600.159C813.475 602.169 810.569 603.883 809.572 604.374C805.954 606.151 799.929 603.966 798.766 605.378C796.266 608.417 777.907 596.7 777.907 596.7Z" fill="#E4A7A3"/>
<path d="M794.954 600.5C794.954 600.5 779.037 590.566 770.111 601.498C764.138 608.812 760.133 621.518 783.151 632.762C795.227 638.661 809.723 611.742 794.954 600.5Z" fill="#E4A7A3"/>
<path d="M794.782 612.98C794.782 612.98 801.752 616.057 808.679 619.793C816.106 623.798 820.209 625.992 818.784 628.706C817.697 630.777 813.717 630.697 809.714 629.002C800.076 626.161 789.6 621.295 788.815 620.66C786.48 618.771 791.013 610.917 794.782 612.98Z" fill="#E4A7A3"/>
<path d="M791.037 638.631C791.037 638.631 779.575 632.519 782.657 627.929C786.606 622.047 795.418 632.497 796.572 633.461C802.863 638.713 801.22 644.556 791.037 638.631Z" fill="#E4A7A3"/>
<path d="M797.843 624.044C797.843 624.044 813.299 631.19 811.198 635.408C808.792 640.244 793.79 630.832 792.733 629.764C790.621 627.627 794.327 621.577 797.843 624.044Z" fill="#E4A7A3"/>
<path d="M797.388 604.702C797.388 604.702 824.266 612.435 822.366 617.625C819.931 624.278 793.744 613.874 792.461 613.087C789.902 611.514 793.385 603.141 797.388 604.702Z" fill="#E4A7A3"/>
<path d="M803.818 627.611C803.568 627.645 804.33 627.955 794.206 623.198C793.919 623.063 793.795 622.721 793.93 622.433C794.065 622.146 794.406 622.022 794.694 622.157L803.985 626.521C804.501 626.766 804.382 627.534 803.818 627.611Z" fill="#D77777"/>
<path d="M803.775 617.774C803.587 617.8 804.024 617.922 798.038 615.911C797.736 615.81 797.575 615.485 797.676 615.183C797.777 614.883 798.101 614.718 798.404 614.822L803.879 616.661C804.453 616.853 804.376 617.692 803.775 617.774Z" fill="#D77777"/>
<path d="M796.012 633.042C795.74 633.079 795.894 633.118 792.682 631.205C792.408 631.043 792.32 630.689 792.481 630.417C792.643 630.145 792.997 630.055 793.269 630.217L796.228 631.98C796.695 632.255 796.55 632.968 796.012 633.042Z" fill="#D77777"/>
<path d="M560.873 912.044H554.133L518.648 627.47H537.381L560.873 912.044Z" fill="#BCC8E1"/>
<path d="M364.605 912.044H371.345L406.829 627.47H388.096L364.605 912.044Z" fill="#BCC8E1"/>
<path d="M648.785 912.046H642.044C633.321 842.081 624.678 772.739 616.148 704.348H631.638C636.748 766.272 647.545 897.03 648.785 912.046Z" fill="#BCC8E1"/>
<path d="M464.729 912.044H471.469L506.953 627.47H488.22L464.729 912.044Z" fill="#BCC8E1"/>
<path d="M530.008 736.402H367.37C349.879 736.402 335.479 722.811 334.359 705.472C334.298 704.547 334.274 703.453 334.144 699.435C334.07 696.901 332.214 655.932 326.49 528.634C325.895 509.961 340.875 494.496 359.565 494.496H483.449C497.715 494.496 510.376 503.646 514.856 517.189L561.423 692.914C568.5 714.248 552.633 736.402 530.008 736.402Z" fill="#8E4F36"/>
<path d="M653.339 717.101C653.339 727.751 644.701 736.403 634.037 736.403H367.369C349.878 736.403 335.479 722.812 334.359 705.473C334.108 698.412 334.16 699.931 334.088 697.807H634.037C644.697 697.807 653.339 706.45 653.339 717.101Z" fill="#8E4F36"/>
<path d="M562.646 698.622H384.927C378.823 698.622 373.721 694.047 373.061 687.978L368.415 645.3C368.366 644.852 368.689 644.449 369.137 644.401C369.59 644.342 369.988 644.676 370.037 645.124L374.683 687.803C375.253 693.041 379.657 696.991 384.927 696.991H562.646C563.097 696.991 563.462 697.356 563.462 697.807C563.462 698.257 563.097 698.622 562.646 698.622Z" fill="#79412C"/>
<path d="M618.696 620C645.074 638.905 685.563 660.337 647.452 722.349C645.931 724.824 540.203 717.104 512.542 717.104C484.527 717.104 372.417 732.05 372.417 648.927C372.417 620 378.009 587.523 403.451 571.504C441.655 547.451 514.279 558.93 562.511 586.398C613.519 615.449 605.288 610.391 618.696 620Z" fill="#2F2F2F"/>
<path d="M578.909 651.61L541.125 700.548L564.268 704.436L578.909 651.61Z" fill="#050505"/>
<path d="M575.177 547.251C567.57 542.435 554.757 528.902 547.268 519.562C545.05 517.029 529.682 497.75 529.608 497.658C493.597 452.154 479.344 437.676 474.535 423.268C464.566 393.388 500.354 369.622 526.541 390.862C536.881 399.254 552.49 422.463 565.031 449.667C573.973 469.057 599.427 511.723 602.094 520.815C611.78 553.626 586.463 554.398 575.177 547.251Z" fill="white"/>
<path d="M561.833 452.391C561.833 452.391 572.549 475.501 570.521 492.394C568.772 506.96 560.311 534.715 560.311 534.715C550.212 524.199 531.73 499.635 514.635 477.399L561.833 452.391Z" fill="#EBEFF8"/>
<path d="M563.511 589.482C569.643 608.455 508.954 620.643 461.892 618.508C428.277 616.983 398.003 613.234 372.691 602.371C377.668 528.197 390.797 388.462 417.945 381.851C434.538 377.811 482.496 382.215 503.582 383.172C529.893 384.366 566.923 450.51 565.965 471.626C565.015 492.567 558.548 499.453 549.615 510.485C548.311 539.236 549.705 546.764 563.511 589.482Z" fill="white"/>
<path d="M450.529 451.361L443.454 510.574L503.493 521.132L412.099 544.316L450.529 451.361Z" fill="#EBEFF8"/>
<path d="M531.048 529.459C548.387 534.496 538.407 569.764 527.151 570.431C517.962 570.976 486.077 572.966 486.077 572.966C482.089 576.309 480.692 581.58 462.817 584.085C444.942 586.59 382.462 588.659 382.462 588.659L372.69 602.372L377.086 545.101L493.728 525.727L531.048 529.459Z" fill="#EBEFF8"/>
<path d="M489.676 399.026C477.205 395.222 466.444 397.118 458.57 407.317C457.417 408.81 455.03 408.299 454.518 406.484C452.093 397.885 451.96 388.905 453.347 380.224C453.347 380.224 455.503 374.651 460.239 374.218C464.976 373.786 487.77 376.603 487.77 376.603C493.493 376.721 500.912 382.177 505.98 389.465C507.351 391.437 508.551 393.544 509.498 395.715C510.376 397.728 508.159 399.77 506.27 398.649C501.075 395.559 495.23 396.523 489.676 399.026Z" fill="#EBEFF8"/>
<path d="M383.607 573.107C368.283 556.708 380.913 417.18 393.818 398.296C411.591 372.289 449.002 375.949 454.102 409.279C456.114 422.443 452.062 450.117 443.052 478.686C436.633 499.051 426.783 547.747 422.644 556.27C407.751 587.07 395.338 585.663 383.607 573.107Z" fill="white"/>
<path d="M536.082 586.655L462.125 583.3L488.207 477.885L562.164 481.241L536.082 586.655Z" fill="#FAAE03"/>
<path d="M541.907 516.691L491.191 514.39L497.442 492.255L548.158 494.556L541.907 516.691Z" fill="#FFF1D1"/>
<path d="M480.699 567.399C489.37 565.651 496.374 564.219 500.616 563.395C514.337 560.725 523.553 537.409 502.86 538.232C498.271 538.415 489.705 538.619 479.151 538.826L480.699 567.399Z" fill="#E4A7A3"/>
<path d="M473.621 570.493L473.313 537.695L486.569 537.042C488.648 536.939 490.426 538.52 490.568 540.596L492.16 563.946C492.294 565.911 490.912 567.656 488.968 567.974L473.621 570.493Z" fill="#E0EBFF"/>
<path d="M479.049 569.478C481.371 579.895 423.597 580.793 407.605 582.494C395.985 583.73 381.091 576.891 380.003 564.853C378.971 553.488 384.371 539.83 403.012 538.877C403.012 538.877 477.214 528.23 478.199 537.452L479.049 569.478Z" fill="white"/>
<path d="M419.094 537.809C418.397 537.778 418.353 536.754 419.049 536.665C419.172 536.651 431.611 535.099 447.373 533.551C447.694 533.516 447.969 533.751 448.001 534.066C448.031 534.382 447.801 534.663 447.485 534.694C422.861 537.113 419.849 537.844 419.094 537.809Z" fill="#EBEFF8"/>
<path d="M502.477 537.814C502.477 537.814 514.413 527.091 523.667 527.675C527.831 527.937 532.662 527.309 534.276 527.784C537.284 528.67 535.3 531.4 534.581 532.245C531.97 535.318 525.572 535.711 525.068 537.469C523.984 541.253 502.477 537.814 502.477 537.814Z" fill="#E4A7A3"/>
<path d="M519.629 534.514C519.629 534.514 501.073 531.738 497.238 545.32C494.67 554.407 496.055 567.657 521.646 568.808C535.072 569.412 537.653 538.946 519.629 534.514Z" fill="#E4A7A3"/>
<path d="M524.438 546.031C524.438 546.031 532.058 546.078 539.9 546.748C548.307 547.465 552.944 547.844 552.718 550.901C552.545 553.234 548.862 554.745 544.515 554.784C534.543 556.015 522.996 555.721 522.023 555.452C519.128 554.649 520.16 545.639 524.438 546.031Z" fill="#E4A7A3"/>
<path d="M531.215 571.052C531.215 571.052 518.267 570.008 519.268 564.571C520.548 557.604 532.792 563.681 534.235 564.106C542.096 566.42 542.915 572.433 531.215 571.052Z" fill="#E4A7A3"/>
<path d="M531.652 554.961C531.652 554.961 548.674 555.363 548.428 560.069C548.145 565.463 530.637 562.802 529.241 562.242C526.452 561.123 527.443 554.097 531.652 554.961Z" fill="#E4A7A3"/>
<path d="M523.533 537.399C523.533 537.399 551.268 533.792 551.592 539.31C552.006 546.383 523.841 547.264 522.352 547.051C519.378 546.629 519.24 537.561 523.533 537.399Z" fill="#E4A7A3"/>
<path d="M527.971 555.631C527.658 555.617 527.413 555.355 527.422 555.041C527.432 554.723 527.697 554.474 528.014 554.484L538.273 554.789C539.102 554.898 538.935 555.958 538.239 555.937C524.229 555.521 528.984 555.677 527.971 555.631Z" fill="#D77777"/>
<path d="M528.517 547.423C527.805 547.39 527.784 546.336 528.495 546.277L534.25 545.785C534.567 545.751 534.846 545.991 534.872 546.308C534.899 546.623 534.665 546.902 534.349 546.929C529.313 547.36 528.619 547.427 528.517 547.423Z" fill="#D77777"/>
<path d="M533.231 564.027C533.126 564.022 532.625 563.951 529.767 563.585C529.453 563.545 529.229 563.258 529.27 562.944C529.31 562.627 529.598 562.396 529.913 562.447L533.329 562.884C534.053 562.975 533.96 564.06 533.231 564.027Z" fill="#D77777"/>
<path d="M632.847 650.399L560.541 638.373L552.669 713.266L631.031 721.502L632.847 650.399Z" fill="#050505"/>
<path d="M537.975 890.578L516.976 879.485L539.2 837.421L560.2 848.516L537.975 890.578Z" fill="#E4A7A3"/>
<path d="M547.283 881.991C547.283 881.991 544.383 878.282 546.021 875.571C547.659 872.862 527.568 860.489 522.975 867.173C518.402 873.83 541.941 889.002 547.283 881.991Z" fill="#E4A7A3"/>
<path d="M548.033 879.784C545.934 878.514 544.648 882.033 540.779 880.425C532.457 876.97 523.314 866.564 521.418 866.198C519.81 865.887 515.339 870.461 513.656 873.98C511.783 877.895 515.666 881.206 525.508 886.924C535.243 893.046 546.622 898.862 548.795 900.069C548.85 900.054 548.905 900.042 548.96 900.028C552.87 901.53 555.952 901.974 556.923 900.368C559.479 896.14 555.617 892.863 551.287 887.154C549.823 885.226 549.734 880.813 548.033 879.784Z" fill="#79412C"/>
<path d="M557.173 854.027C585.801 803.778 647.001 720.034 655.602 704.329C665.769 685.763 666.816 664.619 642.189 653.387C617.563 642.157 594.73 651.969 583.288 682.432C577.427 698.031 542.838 829.654 534.824 845.705C533.534 857.98 551.959 859.889 557.173 854.027Z" fill="#E4A7A3"/>
<path d="M547.657 900.849L523.948 899.466L526.717 851.973L550.426 853.355L547.657 900.849Z" fill="#E4A7A3"/>
<path d="M552.61 896.233C552.61 896.233 548.209 892.526 548.209 889.359C548.209 886.192 524.614 888.032 524.142 896.129C523.672 904.191 551.667 904.996 552.61 896.233Z" fill="#E4A7A3"/>
<path d="M552.109 893.954C549.656 893.954 550.376 897.631 546.233 898.258C537.324 899.605 524.115 895.432 522.303 896.099C520.767 896.665 519.307 902.894 519.688 906.777C520.111 911.097 525.148 911.918 536.527 911.719C548.025 911.921 560.773 911.011 563.256 910.918L563.376 910.798C567.5 910.061 570.367 908.849 570.367 906.972C570.367 902.03 565.366 901.225 558.707 898.579C556.457 897.685 554.097 893.954 552.109 893.954Z" fill="#8E4F36"/>
<path d="M578.909 673.145C577.632 690.852 555.402 801.545 550.264 858.458C549.584 860.668 534.014 879.237 525.257 877.019C525.257 808.805 501.347 725.478 501.347 695.823C501.347 651.506 534.162 643.968 545.839 643.943C565.803 643.899 580.211 655.193 578.909 673.145Z" fill="#E4A7A3"/>
<path d="M505.035 551.142C496.208 550.576 489.073 550.096 484.759 549.847C470.803 549.043 458.541 527.175 479.159 525.214C483.731 524.779 492.247 523.832 502.733 522.62L505.035 551.142Z" fill="#E4A7A3"/>
<path d="M512.466 553.26L508.367 520.718L495.143 521.85C493.07 522.027 491.521 523.831 491.659 525.907L493.214 549.261C493.345 551.226 494.949 552.769 496.917 552.824L512.466 553.26Z" fill="#E0EBFF"/>
<path d="M506.948 552.983C506.046 563.617 563.417 556.754 579.493 556.294C591.173 555.958 605.014 547.184 604.477 535.107C603.974 523.707 596.791 510.898 578.191 512.453C578.191 512.453 503.232 511.86 503.494 521.132L506.948 552.983Z" fill="white"/>
<path d="M503.466 521.705C503.01 521.684 502.755 521.157 503.033 520.787C509.73 511.832 572.124 511.437 574.777 511.425C575.571 511.474 575.511 512.569 574.783 512.574C574.139 512.578 510.311 512.973 503.953 521.476C503.835 521.634 503.65 521.713 503.466 521.705Z" fill="#EBEFF8"/>
<path d="M479.484 524.748C479.484 524.748 466.217 515.725 457.125 517.544C453.034 518.364 448.162 518.389 446.627 519.077C443.765 520.358 446.098 522.798 446.923 523.54C449.923 526.234 456.314 525.764 457.05 527.438C458.633 531.042 479.484 524.748 479.484 524.748Z" fill="#E4A7A3"/>
<path d="M462.044 523.78C462.044 523.78 480.06 518.539 485.684 531.483C489.446 540.144 489.853 553.46 464.648 558.034C451.425 560.434 444.778 530.591 462.044 523.78Z" fill="#E4A7A3"/>
<path d="M458.823 535.838C458.823 535.838 451.279 536.907 443.598 538.623C435.362 540.462 430.818 541.461 431.453 544.46C431.937 546.747 435.789 547.75 440.101 547.206C450.149 547.088 461.552 545.247 462.48 544.849C465.242 543.665 463.01 534.876 458.823 535.838Z" fill="#E4A7A3"/>
<path d="M455.466 561.542C455.466 561.542 468.156 558.77 466.436 553.517C464.231 546.783 452.914 554.449 451.541 555.064C444.061 558.412 444.058 564.481 455.466 561.542Z" fill="#E4A7A3"/>
<path d="M452.874 545.655C452.874 545.655 436.059 548.337 436.935 552.969C437.939 558.276 454.932 553.289 456.24 552.546C458.853 551.064 456.928 544.234 452.874 545.655Z" fill="#E4A7A3"/>
<path d="M458.562 527.162C458.562 527.162 430.593 527.31 431.014 532.822C431.552 539.886 459.58 536.98 461.027 536.57C463.918 535.752 462.838 526.748 458.562 527.162Z" fill="#E4A7A3"/>
<path d="M446.358 547.514C445.674 547.483 445.613 546.485 446.29 546.374L456.415 544.695C456.731 544.639 457.024 544.854 457.076 545.168C457.128 545.479 456.917 545.776 456.604 545.828C445.854 547.61 446.461 547.519 446.358 547.514Z" fill="#D77777"/>
<path d="M449.069 538.057C448.346 538.025 448.342 536.946 449.067 536.91L454.837 536.626C455.162 536.606 455.424 536.855 455.439 537.172C455.456 537.489 455.211 537.759 454.894 537.774C448.322 538.098 449.17 538.062 449.069 538.057Z" fill="#D77777"/>
<path d="M452.397 554.861C451.742 554.832 451.646 553.899 452.274 553.732L455.601 552.84C455.908 552.756 456.223 552.939 456.305 553.246C456.388 553.553 456.205 553.867 455.899 553.95C452.389 554.891 452.529 554.867 452.397 554.861Z" fill="#D77777"/>
<path d="M463.755 299.412C459.879 275.324 426.64 295.614 439.887 314.253C453.133 332.892 465.75 311.812 463.755 299.412Z" fill="#050505"/>
<path d="M469.362 340.093L466.668 380.551L460.728 380.202L489.674 399.028L490.729 382.441C490.729 382.441 487.351 382.034 485.735 381.851L485.919 361.358L469.362 340.093Z" fill="#E4A7A3"/>
<path d="M475.171 354.826C475.171 354.826 474.796 367.691 485.799 371.012L485.773 359.501L475.171 354.826Z" fill="#D18581"/>
<path d="M482.859 310.599C482.859 310.599 520.979 301.405 515.197 319.208C511.048 331.984 502.673 347.638 502.673 347.638L482.859 310.599Z" fill="#050505"/>
<path d="M502.521 315.657C495.684 306.101 468.68 307.394 467.063 323.377C465.446 339.36 475.178 367.08 494.466 367.955C500.799 368.242 507.65 350.942 506.324 347.23C504.127 338.435 507.238 332.54 507.471 329.144C507.705 325.748 504.984 319.1 502.521 315.657Z" fill="#E4A7A3"/>
<path d="M491.064 335.6C490.993 337.215 490.178 338.492 489.242 338.452C488.304 338.411 487.6 337.069 487.67 335.453C487.739 333.837 488.555 332.561 489.492 332.6C490.429 332.641 491.133 333.984 491.064 335.6Z" fill="black"/>
<path d="M503.912 336.154C503.841 337.769 503.026 339.046 502.09 339.006C501.152 338.965 500.448 337.623 500.519 336.007C500.588 334.391 501.404 333.116 502.341 333.156C503.278 333.196 503.981 334.538 503.912 336.154Z" fill="black"/>
<path d="M507.037 329.908C507.137 329.486 506.611 328.408 504.369 327.344C502.833 326.615 500.248 326.516 499.937 327.238C499.172 329.015 502.111 328.633 504.067 329.095C506.024 329.558 506.937 330.329 507.037 329.908Z" fill="#2B2B2B"/>
<path d="M495.943 349.581C495.424 349.558 495.516 348.876 495.939 348.911C495.961 348.913 498.355 349.038 499.322 348.165C499.559 347.951 499.679 347.699 499.693 347.394C499.778 345.417 496.988 338.546 496.96 338.477C496.793 338.067 497.412 337.814 497.58 338.224C497.697 338.512 500.455 345.3 500.363 347.422C500.286 349.241 497.763 349.664 495.943 349.581Z" fill="#DE8180"/>
<path d="M493.888 359.266C491.894 359.175 489.194 358.444 486.186 355.963C485.866 355.7 486.263 355.215 486.586 355.479C492.414 360.283 497.055 358.167 497.101 358.145C497.474 357.967 497.747 358.534 497.371 358.713C497.267 358.762 495.958 359.36 493.888 359.266Z" fill="black"/>
<path d="M485.535 328.812C485.489 328.382 486.144 327.377 488.501 326.599C490.116 326.067 492.693 326.289 492.912 327.045C493.45 328.902 490.582 328.159 488.583 328.376C486.585 328.591 485.582 329.243 485.535 328.812Z" fill="#2B2B2B"/>
<path d="M468.123 358.701C458.355 360.034 446.609 328.467 446.704 317.887C446.831 303.806 455.437 302.005 462.343 299.711C469.248 297.417 484.313 289.809 497.339 290.4C513.921 291.152 515.964 302.317 515.631 309.643C514.82 327.528 475.772 333.766 470.891 333.677C470.154 340.812 468.123 358.701 468.123 358.701Z" fill="#2B2B2B"/>
<path d="M471.833 335.737C472.77 338.764 471.979 341.698 470.065 342.291C468.15 342.885 465.839 340.912 464.9 337.885C463.962 334.859 464.755 331.924 466.669 331.332C468.583 330.738 470.895 332.712 471.833 335.737Z" fill="#E4A7A3"/>
<path d="M275.46 912.044H268.72L233.235 627.47H251.969L275.46 912.044Z" fill="#BCC8E1"/>
<path d="M79.1909 912.044H85.9319L121.417 627.47H102.684L79.1909 912.044Z" fill="#BCC8E1"/>
<path d="M363.372 912.046H356.631C347.909 842.081 339.266 772.739 330.736 704.348H346.225C351.335 766.272 362.132 897.03 363.372 912.046Z" fill="#BCC8E1"/>
<path d="M179.316 912.044H186.056L221.541 627.47H202.808L179.316 912.044Z" fill="#BCC8E1"/>
<path d="M244.595 736.402H81.9569C64.4669 736.402 50.0659 722.811 48.9459 705.472C48.8859 704.547 48.8609 703.453 48.7309 699.435C48.6569 696.901 46.8009 655.932 41.0769 528.634C40.4819 509.961 55.4629 494.496 74.153 494.496H198.036C212.302 494.496 224.963 503.646 229.443 517.189L276.009 692.914C283.086 714.248 267.221 736.402 244.595 736.402Z" fill="#8E4F36"/>
<path d="M367.927 717.101C367.927 727.751 359.289 736.403 348.625 736.403H81.9571C64.466 736.403 50.0651 722.812 48.9461 705.473C48.6951 698.412 48.7481 699.931 48.675 697.807H348.625C359.285 697.807 367.927 706.45 367.927 717.101Z" fill="#8E4F36"/>
<path d="M277.232 698.622H99.513C93.409 698.622 88.308 694.047 87.647 687.978L83.001 645.3C82.952 644.852 83.276 644.449 83.724 644.401C84.176 644.342 84.574 644.676 84.623 645.124L89.269 687.803C89.839 693.041 94.244 696.991 99.513 696.991H277.232C277.683 696.991 278.048 697.356 278.048 697.807C278.048 698.257 277.683 698.622 277.232 698.622Z" fill="#79412C"/>
<path d="M371.673 619.866C401.345 633.011 396.077 681.738 346.364 698.207C343.607 699.124 330.443 701.941 319.246 703.171C300.484 705.225 270.211 707.588 242.63 705.495C213.539 703.281 189.702 685.796 182.708 669.53C163.323 624.425 176.797 574.567 267.941 590.171C333.437 601.367 356.591 613.184 371.673 619.866Z" fill="#2F2F2F"/>
<path d="M300.828 655.049L282.466 705.961L310.828 703.976L300.828 655.049Z" fill="#050505"/>
<path d="M285.274 591.806L232.214 706.31L126.712 646.779L251.906 584.656L285.274 591.806Z" fill="#050505"/>
<path d="M177.402 727.27C162.023 727.27 144.842 724.526 130.868 717.964C122.451 714.017 93.007 710.416 86.81 675.232C75.61 611.645 103.016 609.25 180.829 609.25C264.792 609.25 253.076 727.27 177.402 727.27Z" fill="#2F2F2F"/>
<path d="M165.686 726.741C152.641 725.589 140.573 722.521 130.868 717.965L140.99 679.8L165.686 726.741Z" fill="#050505"/>
<path d="M261.194 402.91C272.217 411.943 274.562 436.155 287.847 465.347C293.663 478.141 299.621 491.684 304.888 503.97C307.596 510.278 320.106 539.678 321.88 545.801C332.076 580.966 318.559 588.765 304.304 588.495C296.637 588.34 278.727 568.673 255.988 540.478C255.484 539.976 242.334 523.308 241.295 521.99C203.232 473.404 182.525 462.957 177.41 447.396C166.884 415.368 233.273 380.046 261.194 402.91Z" fill="#E4A7A3"/>
<path d="M306.984 508.873C282.985 539.776 270.962 545.815 262.385 548.335C262.385 548.335 249.858 532.824 247.523 528.765C247.204 528.735 291.104 515.686 306.984 508.873Z" fill="#D18581"/>
<path d="M315.387 494.598C309.773 512.057 290.7 524.851 265.462 530.089C255.423 532.176 244.4 533.069 232.868 532.576C217.272 511.445 188.231 471.315 177.41 447.394C157.73 403.952 216.45 353.869 261.181 402.918C273.962 416.922 291.013 443.872 315.387 494.598Z" fill="#7D79E2"/>
<path d="M288.036 522.596C278.83 528.368 244.989 535.672 232.868 532.575C224.46 521.183 217.27 511.164 211.108 502.332L266.346 432.627L288.036 522.596Z" fill="#6B69CC"/>
<path d="M284.042 589.718C219.334 603.832 214.274 613.257 170.494 627.306C127.665 641.051 96.5804 642.483 84.0503 632.834C82.5347 602.359 84.9109 616.951 79.525 581.997L79.5234 581.965C74.3457 547.83 65.926 515.659 56.7432 482.5C51.1664 462.384 49.8425 446.461 51.9831 433.826C51.9828 433.819 51.99 433.802 51.9896 433.794C61.4168 377.733 139.627 386.577 215.029 382.891C241.334 381.605 256.724 395.774 263.257 418.231C273.984 455.133 273.584 532.071 284.042 589.718Z" fill="#7D79E2"/>
<path d="M229.198 605.338C228.922 605.352 228.688 605.139 228.674 604.863C226.031 550.792 219.431 476.673 202.997 430.628C193.157 403.06 184.343 398.648 184.255 398.607C184.006 398.489 183.898 398.193 184.014 397.943C184.13 397.693 184.425 397.585 184.674 397.7C185.043 397.869 193.829 402.161 203.799 429.903C212.946 455.357 224.861 506.364 229.673 604.815C229.686 605.09 229.474 605.325 229.198 605.338Z" fill="#6B69CC"/>
<path d="M179.495 602.133C139.279 604.099 88.9588 543.725 64.5108 511.344C61.7803 500.812 59.5542 492.651 56.7433 482.501C51.8912 465.002 48.2648 443.617 53.8002 426.242L87.1004 452.225C87.1004 452.225 234.427 599.448 179.495 602.133Z" fill="#6B69CC"/>
<path d="M157.125 384.376C159.83 378.592 181.152 379.998 185.96 382.577C191.17 385.373 200.037 393.615 198.019 394.767C197.046 395.322 194.322 394.288 189.55 394.523C184.78 394.756 184.466 398.153 184.466 398.153C184.466 398.153 175.702 395.191 170.629 395.729C167.7 396.04 163.134 399.196 161.993 399.252C159.549 399.371 155.677 387.471 157.125 384.376Z" fill="#6B69CC"/>
<path d="M368.419 898.841L344.676 898.267L345.826 850.707L369.569 851.281L368.419 898.841Z" fill="#E4A7A3"/>
<path d="M379.835 883.924C376.835 882.312 379.964 874.541 376.911 872.916C373.858 871.291 363.913 871.391 361.665 873.224C360.517 874.16 360.705 876.936 361.163 879.426C360.633 883.047 358.77 884.374 352.384 884.22C346.89 884.087 345.865 880.975 343.499 880.917C341.351 880.865 341.051 883.419 341.051 883.419C341.051 883.419 337.44 902.939 340.496 906.394C343.551 909.849 406.598 909.689 407.395 907.247C410.924 896.443 393.222 894.804 379.835 883.924Z" fill="#2F2F2F"/>
<path d="M368.694 888.184C367.914 888.184 367.74 887.081 368.483 886.842L379.625 883.27C379.987 883.153 380.373 883.354 380.489 883.714C380.605 884.076 380.406 884.462 380.045 884.579C368.147 888.393 368.857 888.184 368.694 888.184Z" fill="#2F2F2F"/>
<path d="M375.389 892.187C374.604 892.187 374.435 891.074 375.186 890.843L385.801 887.566C386.165 887.45 386.548 887.657 386.66 888.019C386.772 888.382 386.569 888.767 386.206 888.878C374.872 892.378 375.546 892.187 375.389 892.187Z" fill="#2F2F2F"/>
<path d="M382.546 896.201C381.766 896.201 381.593 895.098 382.336 894.859L392.933 891.462C393.296 891.344 393.682 891.545 393.797 891.906C393.913 892.267 393.714 892.654 393.353 892.77C382.02 896.404 382.703 896.201 382.546 896.201Z" fill="#2F2F2F"/>
<path d="M369.263 859.483L345.403 868.251L345.513 860.157L369.263 859.483Z" fill="#D18581"/>
<path d="M374.991 855.666C378.226 797.925 392.228 677.203 392.929 659.312C393.757 638.159 378.547 615.483 351.495 616.404C324.445 617.325 297.21 637.177 296.697 681.271C296.503 697.935 336.434 840.403 336.414 858.344C354.644 862.315 372.935 863.237 374.991 855.666Z" fill="#2F2F2F"/>
<path d="M205.267 899.684L181.558 898.301L184.327 850.808L208.036 852.191L205.267 899.684Z" fill="#E4A7A3"/>
<path d="M209.833 883.336C209.833 880.95 209.954 873.473 207.062 872.917C205.154 872.551 196.065 870.888 192.984 872.917C190.484 874.564 192.684 891.285 181.414 880.901C180.882 880.99 178.442 881.131 178.442 883.336C178.442 893.806 175.984 899.723 176.713 903.555C178.179 911.259 182.758 910.754 194.138 910.555C205.636 910.757 218.383 909.845 220.866 909.753L220.986 909.633C225.11 908.897 227.978 907.682 227.978 905.805C227.978 893.856 209.833 893.806 209.833 883.336Z" fill="#2F2F2F"/>
<path d="M209.842 884.398H197.076C196.697 884.398 196.389 884.09 196.389 883.711C196.389 883.331 196.697 883.023 197.076 883.023H209.842C210.221 883.023 210.529 883.331 210.529 883.711C210.529 884.09 210.221 884.398 209.842 884.398Z" fill="#2F2F2F"/>
<path d="M211.844 889.476H200.864C200.485 889.476 200.178 889.167 200.178 888.788C200.178 888.408 200.485 888.1 200.864 888.1H211.844C212.223 888.1 212.53 888.408 212.53 888.788C212.53 889.167 212.223 889.476 211.844 889.476Z" fill="#2F2F2F"/>
<path d="M218.65 894.545H202.754C202.375 894.545 202.067 894.236 202.067 893.857C202.067 893.477 202.375 893.169 202.754 893.169H218.65C219.029 893.169 219.337 893.477 219.337 893.857C219.337 894.236 219.029 894.545 218.65 894.545Z" fill="#2F2F2F"/>
<path d="M207.684 860.954L183.224 869.722L183.824 859.184L207.684 860.954Z" fill="#D18581"/>
<path d="M237.917 661.126C236.64 678.833 218.447 799.845 213.309 856.757C212.628 858.967 210.563 860.393 207.52 861.178C198.775 863.458 183.424 859.455 174.667 857.237C175.292 839.33 140.177 696.205 140.99 679.801C142.416 648.618 156.813 630.024 174.703 621.832C185.602 616.844 199.88 615.113 210.955 618.813C229.164 624.718 239.218 643.173 237.917 661.126Z" fill="#2F2F2F"/>
<path d="M159.832 343.968L160.955 384.5L184.467 398.154L180.059 384L178.315 363.581L159.832 343.968Z" fill="#E4A7A3"/>
<path d="M167.001 358.09C167.001 358.09 167.838 370.934 179.105 373.205L177.996 361.748L167.001 358.09Z" fill="#D18581"/>
<path d="M195.466 319.023C189.287 309.027 162.257 308.501 159.567 324.339C156.878 340.177 164.723 368.488 183.908 370.66C190.207 371.373 198.207 354.572 197.135 350.779C195.534 341.856 199.035 336.184 199.497 332.811C199.959 329.44 197.69 322.624 195.466 319.023Z" fill="#E4A7A3"/>
<path d="M160.294 360.636C160.294 360.636 143.875 339.262 141.364 332.805C138.324 324.987 141.432 317.562 142.915 315.962C141.492 316.072 140.119 316.259 138.52 316.794C143.17 309.609 149.849 309.845 149.849 309.845C156.256 291.358 197.527 296.613 204.84 293.851C204.027 295.638 202.294 298.006 200.738 299.173C206.476 298.706 212.899 295.925 216.006 295.114C216.354 297.665 213.233 306.001 211.196 308.783C213.065 308.428 213.641 307.983 215.135 307.316C213.807 314.009 202.246 320.028 197.859 324.79C190.362 328.767 175.95 321.492 173.387 321.962C170.644 322.466 171.876 326.217 169.167 327.101C166.41 328.001 164.489 331.545 162.694 334.873C159.481 340.828 160.294 360.636 160.294 360.636Z" fill="#2B2B2B"/>
<path d="M163.494 336.991C164.226 340.074 163.238 342.948 161.289 343.412C159.339 343.874 157.166 341.751 156.434 338.668C155.702 335.585 156.689 332.71 158.638 332.248C160.588 331.785 162.761 333.908 163.494 336.991Z" fill="#E4A7A3"/>
<path d="M183.362 339.268C183.212 340.777 182.38 341.928 181.506 341.841C180.631 341.753 180.044 340.459 180.195 338.951C180.346 337.443 181.177 336.29 182.052 336.378C182.927 336.466 183.514 337.76 183.362 339.268Z" fill="black"/>
<path d="M195.359 340.468C195.209 341.976 194.377 343.128 193.503 343.04C192.627 342.953 192.04 341.659 192.192 340.151C192.343 338.642 193.174 337.49 194.049 337.578C194.924 337.666 195.511 338.958 195.359 340.468Z" fill="black"/>
<path d="M178.398 331.747C178.48 331.349 179.352 330.639 181.678 330.617C183.271 330.602 185.51 331.537 185.49 332.274C185.44 334.086 183.092 332.603 181.244 332.226C179.398 331.849 178.317 332.145 178.398 331.747Z" fill="#2B2B2B"/>
<path d="M199.008 333.809C199.007 333.402 198.292 332.533 196.015 332.052C194.456 331.721 192.079 332.193 191.952 332.92C191.642 334.706 194.238 333.718 196.123 333.714C198.007 333.71 199.008 334.214 199.008 333.809Z" fill="#2B2B2B"/>
<path d="M187.149 352.608C186.75 352.561 186.793 351.951 187.222 351.984C187.244 351.988 189.475 352.234 190.426 351.465C190.66 351.277 190.787 351.048 190.815 350.764C190.999 348.918 188.753 342.338 188.73 342.272C188.595 341.88 189.189 341.675 189.324 342.069C189.419 342.345 191.638 348.844 191.44 350.825C191.271 352.532 188.817 352.798 187.149 352.608Z" fill="#DE8180"/>
<path d="M186.076 361.624C184.174 361.717 181.095 361.217 177.705 358.082C177.4 357.801 177.826 357.339 178.131 357.622C183.303 362.401 187.769 360.688 187.812 360.671C188.197 360.516 188.432 361.096 188.048 361.253C187.974 361.284 187.248 361.567 186.076 361.624Z" fill="black"/>
<path d="M152.914 587.876C155.299 594.865 164.52 600.989 172.512 600.206C191.383 598.469 268.621 600.841 305.586 594.185C317.891 591.961 328.65 575.535 326.166 562.839C323.808 550.863 308.349 535.858 288.912 540.478C288.325 540.653 180.621 570.617 165.141 574.405C160.262 575.465 154.539 577.275 152.819 581.955C151.669 585.028 152.903 587.65 152.914 587.876Z" fill="#E4A7A3"/>
<path d="M262.524 548.389C261.842 548.423 261.687 547.444 262.343 547.263C277.845 542.965 288.755 539.925 288.755 539.925C289.058 539.838 289.378 540.018 289.463 540.324C289.548 540.63 289.369 540.947 289.064 541.032C286.756 541.675 262.654 548.383 262.524 548.389Z" fill="#D77777"/>
<path d="M151.383 605.696C151.383 605.696 152.121 615.37 157.673 613.617C161.276 612.48 159.881 603.692 159.881 603.692C159.881 603.692 152.564 601.196 151.383 605.696Z" fill="#E4A7A3"/>
<path d="M144.796 608.009C144.796 608.009 145.534 617.684 151.086 615.931C154.689 614.792 153.294 606.005 153.294 606.005C153.294 606.005 145.977 603.509 144.796 608.009Z" fill="#E4A7A3"/>
<path d="M137.931 609.495C137.931 609.495 138.669 619.17 144.222 617.416C147.824 616.278 146.43 607.491 146.43 607.491C146.43 607.491 139.113 604.995 137.931 609.495Z" fill="#E4A7A3"/>
<path d="M129.357 614.085C133.419 616.956 135.082 612.996 138.251 609.153C136.824 610.988 143.115 612.4 146.09 608.999C146.374 611.935 152.739 612.415 154.266 609.382C155.804 611.918 156.08 609.334 160.144 607.472C168.562 603.547 175.864 596.706 180.691 589.084C186.996 579.138 180.733 570.479 166.222 574.122C163.96 574.718 162.424 575.196 158.253 576.582C147.148 580.231 144.988 582.009 140.265 588.208C134.791 595.562 125.102 611.083 129.357 614.085Z" fill="#E4A7A3"/>
<path d="M167.29 593.459C171.169 587.75 153.054 585.621 147.65 589.733C147.65 589.733 135.555 604.676 141.746 606.653C146.009 608.014 153.031 598.518 153.031 598.518C153.031 598.518 160.658 602.434 167.29 593.459Z" fill="#E4A7A3"/>
<path d="M140.265 588.207C157.175 599.635 150.441 595.077 164.918 604.869C167.117 603.496 169.181 601.945 171.09 600.264C171.562 600.276 172.044 600.253 172.514 600.207C180.244 599.495 197.461 599.506 218.113 599.268C233.21 552.832 232.164 556.209 232.042 556.25L177.365 574.001L152.282 578.61C148.2 580.187 145.049 582.456 142.617 585.261L140.265 588.207Z" fill="#D18581"/>
<path d="M133.111 414.44C143.883 423.77 152.416 448.092 164.898 477.634C170.362 490.584 175.949 504.283 180.878 516.709C183.414 523.088 195.114 552.82 196.722 558.988C205.952 594.418 192.229 601.845 177.986 601.186C170.327 600.822 152.96 580.672 131 551.869C130.51 551.353 117.819 534.331 116.817 532.985C80.094 483.377 62.6619 469.278 57.973 453.582C48.3254 421.28 105.824 390.822 133.111 414.44Z" fill="#E4A7A3"/>
<path d="M182.841 521.669C174.71 535.811 151.587 548.17 134.952 557.024C130.999 551.868 125.034 544.634 122.859 539.929C122.724 539.637 166.78 528.047 182.841 521.669Z" fill="#D18581"/>
<path d="M54.9922 456.671C60.6429 470.106 73.8355 494.131 108.101 543.337C148.56 546.163 183.123 531.81 191.633 507.627C168.649 456.254 152.342 428.852 139.952 414.498C96.5744 364.246 36.5019 412.71 54.9922 456.671Z" fill="#7D79E2"/>
<path d="M124.768 544.025C119.36 544.289 113.778 544.234 108.067 543.834C107.791 543.815 107.583 543.576 107.602 543.3C107.621 543.026 107.858 542.808 108.136 542.837C148.586 545.654 182.655 531.201 191.095 507.648C175.841 473.568 162.864 448.462 151.422 430.899C151.271 430.667 151.336 430.357 151.568 430.207C151.799 430.056 152.11 430.121 152.259 430.353C163.751 447.992 176.779 473.201 192.089 507.422C192.142 507.539 192.148 507.671 192.105 507.792C184.81 528.522 158.187 542.391 124.768 544.025Z" fill="#6B69CC"/>
<path d="M161.598 555.644C151.118 572.656 160.509 592.044 171.149 598.031C182.424 604.377 201.395 599.315 207.361 588.321C225.26 555.34 247.279 481.149 254.816 463.856C260.794 450.14 245.837 427.859 233.999 446.601C222.159 465.341 161.598 555.644 161.598 555.644Z" fill="#E4A7A3"/>
<path d="M161.6 555.644C151.119 572.656 160.51 592.045 171.15 598.031C182.425 604.378 201.395 599.316 207.362 588.322C225.26 555.341 247.279 481.15 254.817 463.857" fill="#E4A7A3"/>
<path d="M161.752 556.198C161.239 556.338 160.827 555.764 161.123 555.324C161.123 555.324 167.431 545.918 176.374 532.546C176.551 532.283 176.907 532.21 177.17 532.388C177.434 532.564 177.505 532.921 177.329 533.185C161.068 557.5 162.061 556.113 161.752 556.198Z" fill="#D77777"/>
<path d="M237.208 440.027C238.604 436.955 250.095 412.152 253.367 412.68C259.558 413.681 252.834 429.234 253.848 433.325C254.861 437.415 237.208 440.027 237.208 440.027Z" fill="#E4A7A3"/>
<path d="M333.61 464.029L260.724 484.003L244.764 379.941L317.65 359.967L333.61 464.029Z" fill="white"/>
<path d="M247.223 433.486C247.223 433.486 228.525 440.813 232.215 455.462C234.683 465.263 243.04 476.819 267.398 464.228C280.176 457.623 266.312 427.979 247.223 433.486Z" fill="#E4A7A3"/>
<path d="M257.458 439.338C257.458 439.338 264.955 436.126 272.935 433.429C281.492 430.538 286.784 431.35 286.492 434.618C286.271 437.101 285.118 439.134 280.87 441.03C271.611 446.503 260.186 449.463 259.116 449.615C255.933 450.065 253.093 440.783 257.458 439.338Z" fill="#E4A7A3"/>
<path d="M274.517 461.829C274.517 461.829 261.947 467.771 259.972 462.193C257.443 455.044 271.416 452.899 273.003 452.635C276.563 452.043 281.115 458.33 274.517 461.829Z" fill="#E4A7A3"/>
<path d="M269.292 446.041C269.292 446.041 281.714 440.154 283.837 445.677C285.91 451.074 272.534 453.859 270.94 454.083C267.757 454.533 264.925 447.486 269.292 446.041Z" fill="#E4A7A3"/>
<path d="M252.385 434.078C252.385 434.078 280.372 413.021 283.616 417.968C287.775 424.31 257.938 443.067 256.443 443.665C253.457 444.86 248.489 436.52 252.385 434.078Z" fill="#E4A7A3"/>
<path d="M249.566 436.78C248.937 436.952 248.556 436.101 249.1 435.744L253.533 432.844C253.8 432.67 254.155 432.745 254.329 433.011C254.503 433.276 254.429 433.633 254.163 433.806C249.291 436.993 249.69 436.746 249.566 436.78Z" fill="#D77777"/>
<path d="M266.104 448.635C265.434 448.819 265.075 447.863 265.706 447.563L272.61 444.279C272.899 444.14 273.241 444.265 273.376 444.551C273.513 444.838 273.391 445.181 273.104 445.317C265.902 448.743 266.201 448.609 266.104 448.635Z" fill="#D77777"/>
<path d="M262.23 440.727C261.586 440.904 261.212 440.016 261.787 439.679L263.816 438.488C264.093 438.327 264.442 438.42 264.602 438.694C264.762 438.968 264.671 439.319 264.396 439.479C262.192 440.772 262.334 440.699 262.23 440.727Z" fill="#D77777"/>
<path d="M272.062 455.034C271.375 455.222 271.029 454.227 271.69 453.949L275.093 452.532C275.384 452.411 275.722 452.548 275.844 452.842C275.967 453.135 275.828 453.47 275.535 453.593C272.451 454.878 272.126 455.017 272.062 455.034Z" fill="#D77777"/>
<path d="M573.219 61.379C573.219 95.189 545.81 122.598 512 122.598C478.189 122.598 450.781 95.189 450.781 61.379C450.781 27.568 478.189 0.160034 512 0.160034C545.81 0.160034 573.219 27.568 573.219 61.379Z" fill="#7D79E2"/>
<path d="M566.575 61.378C566.575 91.519 542.141 115.952 512 115.952C481.86 115.952 457.426 91.519 457.426 61.378C457.426 31.237 481.86 6.80402 512 6.80402C542.141 6.80402 566.575 31.237 566.575 61.378Z" fill="white"/>
<path d="M502.135 62.6027L502.251 59.6991L557.337 61.9129L557.22 64.8166L502.135 62.6027Z" fill="#F43B06"/>
<path d="M519.645 67.507L517.589 69.564L488.665 40.637L490.72 38.582L519.645 67.507Z" fill="#2F2F2F"/>
<path d="M516.575 61.379C516.575 63.905 514.527 65.954 512 65.954C509.473 65.954 507.425 63.905 507.425 61.379C507.425 58.852 509.473 56.804 512 56.804C514.527 56.804 516.575 58.852 516.575 61.379Z" fill="#BCC8E1"/>
<defs>
<linearGradient id="paint0_linear_222_10" x1="236" y1="681.715" x2="740" y2="185.715" gradientUnits="userSpaceOnUse">
<stop stop-color="#BCFFB6"/>
<stop offset="0.5" stop-color="#CFFFC7"/>
<stop offset="0.932292" stop-color="#D8FFDC"/>
</linearGradient>
</defs>
</svg>
