<?xml version="1.0" encoding="UTF-8"?>
<svg width="120px" height="120px" viewBox="0 0 120 120" version="1.1" xmlns="http://www.w3.org/2000/svg" xmlns:xlink="http://www.w3.org/1999/xlink">
    <title>illustration_archive</title>
    <defs>
        <linearGradient x1="49.7679846%" y1="51.8900008%" x2="54.740767%" y2="33.5991736%" id="linearGradient-1">
            <stop stop-color="#B3AFAB" offset="0%"></stop>
            <stop stop-color="#C8C6C4" offset="100%"></stop>
        </linearGradient>
        <radialGradient cx="44.0467248%" cy="25.3096418%" fx="44.0467248%" fy="25.3096418%" r="70.9651296%" gradientTransform="translate(0.440467,0.253096),scale(0.788462,1.000000),translate(-0.440467,-0.253096)" id="radialGradient-2">
            <stop stop-color="#C8C6C4" offset="0%"></stop>
            <stop stop-color="#E1DFDD" offset="100%"></stop>
        </radialGradient>
        <radialGradient cx="50.9614479%" cy="8.65362491%" fx="50.9614479%" fy="8.65362491%" r="106.183064%" gradientTransform="translate(0.509614,0.086536),scale(0.707071,1.000000),translate(-0.509614,-0.086536)" id="radialGradient-3">
            <stop stop-color="#C7C5C3" offset="0%"></stop>
            <stop stop-color="#E1DFDD" offset="100%"></stop>
        </radialGradient>
    </defs>
    <g id="illustration_archive" stroke="none" stroke-width="1" fill="none" fill-rule="evenodd">
        <g id="Archive-/-General-/-Light">
            <g id="Archive-Color" transform="translate(0.750000, 0.750000)">
                <path d="M100.117458,55.7011267 C102.199496,55.9972269 103.761025,57.9218781 103.463591,59.9945794 L99.0020804,93.75 L21,83.6825938 L25.4615108,49.9271732 C25.6845863,47.7804469 27.6179077,46.299946 29.6999461,46.5220211 L100.117458,55.7011267 Z" id="Path" fill="url(#linearGradient-1)" fill-rule="nonzero"></path>
                <path d="M117.596631,57.5547312 L106.853677,21.4754743 C106.260963,19.4710712 104.112372,18.3575139 102.11196,18.8771739 L42.4700474,36.6940909 C40.4696354,37.2879882 39.3582954,39.4408656 39.8769207,41.4452688 L50.6198739,77.5245257 C51.2125886,79.5289288 53.3611793,80.6424861 55.3615912,80.1228261 L115.077593,62.3801462 C117.003916,61.7120118 118.189345,59.6333715 117.596631,57.5547312 Z" id="Path" fill="url(#radialGradient-2)" fill-rule="nonzero"></path>
                <path d="M104.939212,19.1720791 C104.046396,18.7297214 103.004777,18.6559951 102.11196,18.8771739 L42.2052452,36.7852819 C41.163626,37.080187 40.45477,38.1253028 40.0083618,39.1574707 L82.0903649,56.25 L104.939212,19.1720791 Z" id="Path" fill="#E1DFDD" fill-rule="nonzero"></path>
                <path d="M97.4380029,62.1055517 L60.7740787,86.4397149 L30.3193674,53.25 C29.6540946,53.8453312 29.2844986,54.6639116 29.062741,55.5569084 L24.0362352,92.9883582 C23.7405584,95.0720175 25.2928617,97.0068439 27.2886801,97.3045095 L88.8633754,105.713563 C90.9331131,106.011228 92.8550123,104.448484 93.1506891,102.364825 L98.1771949,64.8589586 C98.3989525,63.9659618 98.1032757,62.9985486 97.4380029,62.1055517 Z" id="Path" fill="url(#radialGradient-3)" fill-rule="nonzero"></path>
                <path d="M96,61.5 C95.778169,61.4230769 95.556338,61.3461538 95.334507,61.3461538 L54,55.5 L95.334507,61.3461538 C95.4823944,61.3461538 95.7042254,61.4230769 96,61.5 Z" id="Path"></path>
                <path d="M97.5,62.1533843 C97.4263245,62.0060044 97.2789735,61.9323144 97.205298,61.8586245 L97.057947,61.7112445 C96.9842715,61.6375546 96.910596,61.5638646 96.8369205,61.4901747 L96.615894,61.3427948 L96.3948675,61.1954148 C96.2475166,61.1217249 96.0264901,61.0480349 95.8791391,60.974345 L95.8054636,60.974345 C95.5844371,60.900655 95.3634106,60.8269651 95.1423841,60.8269651 L53.9577815,55.2265284 L33.6970199,52.5 C32.5715734,52.3370361 31.4456892,52.5870361 30.3193674,53.25 L60.2351074,86.892334 L97.5,62.1533843 Z" id="Path" fill="#E1DFDD" fill-rule="nonzero"></path>
                <path d="M22.4979196,71.25 L100.5,81.4623819 L100.5,81.4623819 L96.0384892,115.133641 C95.7410552,117.205718 93.8077338,118.759776 91.7256954,118.463765 L21.3825419,109.287422 C19.3005035,108.991411 17.7389748,107.067339 18.0364088,104.995262 L22.4979196,71.25 L22.4979196,71.25 L22.4979196,71.25 Z" id="Path" fill="#C7C5C3" fill-rule="nonzero"></path>
                <path d="M85.3907289,11.8365497 L81.902006,1.57804452 C81.5308653,0.397209393 80.1947587,-0.267010367 79.0813365,0.102000611 L1.58715223,25.8589669 C0.399501892,26.2279778 -0.268551421,27.5564174 0.102589309,28.6634503 L3.59131216,38.9219555 C3.96245289,40.1027906 5.29855952,40.7670104 6.4119817,40.3979994 L83.906166,14.7886375 C85.1680444,14.3458244 85.7618696,13.091187 85.3907289,11.8365497 Z" id="Path" fill="#797673"></path>
                <path d="M53.0014384,82.540771 L67.2788935,84.5358496 C69.3395571,84.8427848 70.8114597,86.7611297 70.443484,88.9096759 C70.1491035,91.0582221 68.3092253,92.5161642 66.2485616,92.209229 L51.9711065,90.2141504 C49.9104429,89.9072152 48.4385403,87.9888703 48.806516,85.8403241 C49.1744916,83.6917779 50.9407747,82.2338358 53.0014384,82.540771 Z" id="Path" fill="#797673"></path>
            </g>
        </g>
    </g>
</svg>