<svg viewBox="0 0 520 280" width="520" height="280" fill="none" xmlns="http://www.w3.org/2000/svg"><path opacity=".56" fill-rule="evenodd" clip-rule="evenodd" d="M353.696 121.957c-27.638 0-50.042 22.405-50.042 50.043 0 27.638 22.404 50.043 50.042 50.043s50.043-22.405 50.043-50.043c0-27.638-22.405-50.043-50.043-50.043Zm-54 50.043c0-29.823 24.177-54 54-54 29.824 0 54 24.177 54 54s-24.176 54-54 54c-29.823 0-54-24.177-54-54Z" fill="#E4EEF9"/><path opacity=".56" fill-rule="evenodd" clip-rule="evenodd" d="M353.196 79.313c-50.925 0-92.209 41.498-92.209 92.687 0 51.19 41.284 92.687 92.209 92.687 50.926 0 92.209-41.497 92.209-92.687 0-51.189-41.283-92.687-92.209-92.687ZM256.696 172c0-53.572 43.205-97 96.5-97 53.296 0 96.5 43.428 96.5 97s-43.204 97-96.5 97c-53.295 0-96.5-43.428-96.5-97Z" fill="#E4EEF9"/><path opacity=".56" fill-rule="evenodd" clip-rule="evenodd" d="M218.196 14.96C146.643 14.96 88.638 73.18 88.638 145c0 71.819 58.005 130.04 129.558 130.04 71.554 0 129.559-58.221 129.559-130.04 0-71.82-58.005-130.04-129.559-130.04ZM83.696 145c0-74.558 60.218-135 134.5-135 74.283 0 134.5 60.442 134.5 135 0 74.558-60.217 135-134.5 135-74.282 0-134.5-60.442-134.5-135Z" fill="#E4EEF9"/><g opacity=".6"><path d="M417.323 259.994c6.396 0 11.581-5.185 11.581-11.581s-5.185-11.58-11.581-11.58c-6.395 0-11.58 5.184-11.58 11.58s5.185 11.581 11.58 11.581Z" fill="#E4EEF9"/><path opacity=".51" d="M422.251 256.052v2.587c-2.71 1.355-6.036 1.601-9.116.493-.37-.124-.739-.247-1.109-.493v-2.587c0-2.834 2.341-5.052 5.051-5.052 1.355 0 2.71.616 3.573 1.479 1.109.985 1.601 2.217 1.601 3.573ZM417.2 249.768a3.942 3.942 0 1 0 .001-7.885 3.942 3.942 0 0 0-.001 7.885Z" fill="#A9C9EA"/></g><path d="M216.02 170.223c15.309 0 27.719-12.411 27.719-27.72s-12.41-27.719-27.719-27.719c-15.31 0-27.72 12.41-27.72 27.719 0 15.309 12.41 27.72 27.72 27.72Z" fill="#ABD3FF"/><path d="M228.216 161.353v6.159a27.809 27.809 0 0 1-21.806 1.109c-.862-.369-1.848-.739-2.71-1.109v-6.159a12.146 12.146 0 0 1 12.196-12.197c3.327 0 6.407 1.355 8.624 3.573a11.82 11.82 0 0 1 3.696 8.624ZM216.02 146.199a9.363 9.363 0 1 0 0-18.726 9.363 9.363 0 0 0 0 18.726Z" fill="#E2F1FD"/><path d="M236.949 172.64c6.388 0 11.567-5.179 11.567-11.567s-5.179-11.567-11.567-11.567-11.566 5.179-11.566 11.567 5.178 11.567 11.566 11.567Z" fill="#80C571"/><path d="M242.952 162.683h-11.274c-.878 0-1.61-.732-1.61-1.61 0-.879.732-1.611 1.61-1.611h11.274c.879 0 1.611.732 1.611 1.611 0 .878-.732 1.61-1.611 1.61Z" fill="#fff"/><path d="M235.778 166.783v-11.274c0-.878.732-1.61 1.611-1.61.878 0 1.61.732 1.61 1.61v11.274c0 .879-.732 1.611-1.61 1.611-1.025-.147-1.611-.732-1.611-1.611Z" fill="#fff"/><path d="M352.199 198.364c15.309 0 27.72-12.41 27.72-27.719 0-15.309-12.411-27.72-27.72-27.72s-27.719 12.411-27.719 27.72 12.41 27.719 27.719 27.719Z" fill="#ABD3FF"/><path d="M364.396 189.494v6.16a27.818 27.818 0 0 1-21.806 1.109c-.862-.37-1.848-.74-2.71-1.109v-6.16c0-6.776 5.42-12.197 12.196-12.197 3.327 0 6.407 1.356 8.624 3.573a11.823 11.823 0 0 1 3.696 8.624ZM352.199 174.341a9.363 9.363 0 0 0 9.363-9.363 9.362 9.362 0 0 0-9.363-9.363 9.362 9.362 0 0 0-9.363 9.363 9.363 9.363 0 0 0 9.363 9.363Z" fill="#E2F1FD"/><path d="M371.035 203.692c6.388 0 11.567-5.179 11.567-11.567s-5.179-11.567-11.567-11.567-11.567 5.179-11.567 11.567 5.179 11.567 11.567 11.567Z" fill="#80C571"/><path d="M377.038 193.736h-11.274a1.625 1.625 0 0 1-1.611-1.611c0-.878.732-1.61 1.611-1.61h11.274c.878 0 1.61.732 1.61 1.61 0 .879-.732 1.611-1.61 1.611Z" fill="#fff"/><path d="M369.864 197.835v-11.273c0-.879.732-1.611 1.61-1.611.879 0 1.611.732 1.611 1.611v11.273c0 .879-.732 1.611-1.611 1.611-1.025-.147-1.61-.732-1.61-1.611Z" fill="#fff"/><g opacity=".6"><path d="M380.312 94.716c7.96 0 14.414-6.454 14.414-14.415 0-7.96-6.454-14.414-14.414-14.414-7.961 0-14.414 6.454-14.414 14.414 0 7.961 6.453 14.415 14.414 14.415Z" fill="#E4EEF9"/><path opacity=".51" d="M386.472 89.91v3.204c-3.45 1.725-7.392 1.971-11.335.616a4.567 4.567 0 0 1-1.355-.616V89.91c0-3.45 2.834-6.283 6.283-6.283 1.725 0 3.327.739 4.435 1.848 1.356 1.109 1.972 2.71 1.972 4.435ZM380.189 82.15a4.928 4.928 0 1 0-.001-9.856 4.928 4.928 0 0 0 .001 9.855Z" fill="#A9C9EA"/></g><path d="M389.086 97.644a5.64 5.64 0 1 0 0-11.28 5.64 5.64 0 0 0 0 11.28Z" fill="#80C571"/><path d="M392.013 92.789h-5.498a.792.792 0 0 1-.785-.785c0-.429.357-.786.785-.786h5.498c.428 0 .785.357.785.786a.792.792 0 0 1-.785.785Z" fill="#fff"/><path d="M388.515 94.788v-5.497c0-.429.356-.786.785-.786.428 0 .785.357.785.786v5.497a.792.792 0 0 1-.785.785c-.5-.07-.785-.356-.785-.785Z" fill="#fff"/><path d="M298.805 113.804c1.19 9.226 7.906 16.848 16.973 20.623 1.188.475 2.201 1.301 2.813 2.384l5.324 9.082c.466.756 1.528.619 1.697-.241l1.026-5.497c.331-1.775 1.91-3.023 3.786-3.108l1.71-.129c16.538-1.475 28.458-14.287 26.625-28.544-1.887-14.253-16.791-24.588-33.383-23.11-16.531 1.532-28.458 14.287-26.571 28.54Z" fill="#7B83EB"/><path d="m310.188 103.161 37.514-.811c1.193-.011 2.154 1.068 2.164 2.43.01 1.361-.936 2.459-2.128 2.47l-37.514.811c-1.193.011-2.154-1.068-2.164-2.429.069-1.362.936-2.46 2.128-2.471ZM310.187 112.732l28.056-.63c1.193-.011 2.154 1.068 2.164 2.43.01 1.361-.936 2.459-2.128 2.47l-28.056.63c-1.192.012-2.154-1.068-2.164-2.429.069-1.362.936-2.459 2.128-2.471Z" fill="#EFF5FB"/><g opacity=".6"><path d="M213.062 234.458c11.043 0 19.995-8.952 19.995-19.995 0-11.043-8.952-19.995-19.995-19.995-11.043 0-19.995 8.952-19.995 19.995 0 11.043 8.952 19.995 19.995 19.995Z" fill="#E4EEF9"/><path opacity=".51" d="M221.57 227.651v4.467c-4.679 2.34-10.422 2.765-15.74.851-.638-.213-1.276-.426-1.915-.851v-4.467c0-4.892 4.042-8.721 8.721-8.721 2.34 0 4.68 1.063 6.169 2.552 1.914 1.702 2.765 3.829 2.765 6.169ZM212.849 216.802a6.806 6.806 0 1 0 0-13.613 6.808 6.808 0 0 0 0 13.613Z" fill="#A9C9EA"/></g><g opacity=".6"><path d="M160.863 39.94c11.029 0 19.97-8.94 19.97-19.97S171.892 0 160.863 0c-11.029 0-19.97 8.94-19.97 19.97s8.941 19.97 19.97 19.97Z" fill="#E4EEF9"/><path opacity=".51" d="M169.361 33.142v4.461c-4.674 2.337-10.41 2.762-15.721.85-.637-.212-1.275-.425-1.912-.85v-4.461c0-4.886 4.036-8.71 8.71-8.71 2.337 0 4.674 1.062 6.161 2.549 1.912 1.7 2.762 3.824 2.762 6.16ZM160.651 22.307a6.798 6.798 0 1 0 0-13.597 6.798 6.798 0 0 0 0 13.597Z" fill="#A9C9EA"/></g><g opacity=".6"><path d="M94.97 249.005c13.792 0 24.971-11.18 24.971-24.971s-11.179-24.971-24.97-24.971C81.18 199.063 70 210.243 70 224.034s11.18 24.971 24.97 24.971Z" fill="#E4EEF9"/><path opacity=".51" d="M105.597 240.504v5.579c-5.845 2.922-13.017 3.453-19.658 1.062-.797-.265-1.594-.531-2.391-1.062v-5.579c0-6.11 5.047-10.891 10.891-10.891 2.922 0 5.845 1.328 7.704 3.188 2.391 2.125 3.454 4.781 3.454 7.703ZM94.705 226.956a8.5 8.5 0 1 0 0-17.002 8.5 8.5 0 0 0 0 17.002Z" fill="#A9C9EA"/></g><path d="M113.245 247.959a7.035 7.035 0 1 0 0-14.07 7.035 7.035 0 0 0 0 14.07Z" fill="#80C571"/><path d="M116.896 241.903h-6.857a.988.988 0 0 1-.979-.979c0-.534.445-.98.979-.98h6.857a.99.99 0 0 1 .98.98.989.989 0 0 1-.98.979Z" fill="#fff"/><path d="M112.533 244.397v-6.857c0-.534.445-.979.979-.979.535 0 .98.445.98.979v6.857a.988.988 0 0 1-.98.979c-.623-.089-.979-.445-.979-.979Z" fill="#fff"/><path opacity=".56" fill-rule="evenodd" clip-rule="evenodd" d="M218.196 90.956c-29.571 0-53.544 23.972-53.544 53.544 0 29.572 23.973 53.544 53.544 53.544 29.572 0 53.545-23.972 53.545-53.544 0-29.572-23.973-53.544-53.545-53.544Zm-58.5 53.544c0-32.309 26.192-58.5 58.5-58.5 32.309 0 58.5 26.191 58.5 58.5s-26.191 58.5-58.5 58.5c-32.308 0-58.5-26.191-58.5-58.5Z" fill="#E4EEF9"/><path d="M213.567 85.12c1.99 8.223 7.428 14.722 14.723 18.967 2.255 1.327 3.98 3.581 4.51 6.234l1.459 6.235c.266 1.061 1.592 1.459 2.388.53l7.561-8.489s8.887 1.061 15.519-.531c21.223-5.173 36.875-22.416 32.497-40.323-2.785-11.142-16.713-29.58-55.046-20.162-21.091 5.173-28.121 19.631-23.611 37.538Z" fill="#ABD3FF"/><ellipse cx="237.196" cy="78" rx="4.5" ry="5" fill="#EFF5FB"/><ellipse cx="252.196" cy="78" rx="4.5" ry="5" fill="#EFF5FB"/><ellipse cx="267.196" cy="78" rx="4.5" ry="5" fill="#EFF5FB"/></svg>