<?xml version="1.0" encoding="UTF-8"?>
<svg width="154px" height="117px" viewBox="0 0 154 117" version="1.1" xmlns="http://www.w3.org/2000/svg" xmlns:xlink="http://www.w3.org/1999/xlink">
    <defs>
        <linearGradient x1="6.07030064%" y1="108.016466%" x2="93.9296994%" y2="-8.01646626%" id="linearGradient-1">
            <stop stop-color="#C1C7D0" offset="0%"></stop>
            <stop stop-color="#FAFBFC" offset="100%"></stop>
        </linearGradient>
        <linearGradient x1="18.3257455%" y1="206.945435%" x2="76.7523892%" y2="-136.773172%" id="linearGradient-2">
            <stop stop-color="#EBECF0" stop-opacity="0.1" offset="0%"></stop>
            <stop stop-color="#EBECF0" offset="100%"></stop>
        </linearGradient>
    </defs>
    <g id="Filter-details-v02" stroke="none" stroke-width="1" fill="none" fill-rule="evenodd">
        <g id="JIRA-PLAT_Manage-filters-Copy-26" transform="translate(-779.000000, -405.000000)">
            <g id="Group" transform="translate(779.000000, 405.000000)">
                <rect id="Rectangle-path" fill="url(#linearGradient-1)" fill-rule="nonzero" x="0" y="0" width="153.880082" height="116.759676"></rect>
                <path d="M153.880082,23.2418919 C110.217295,19.4472973 85.1796721,23.8174054 70.2404098,28.7503784 C67.2992623,29.718 63.512377,31.122 57.2892623,32.7663243 C34.8077869,38.7238378 13.9988525,39.0527027 0,38.4202703 L0,12.4399459 L153.880082,12.4399459 L153.880082,23.2418919 Z" id="Shape" fill="url(#linearGradient-2)" fill-rule="nonzero" style="mix-blend-mode: multiply;"></path>
                <rect id="Rectangle-path" fill="#EBECF0" fill-rule="nonzero" x="0" y="0" width="153.880082" height="12.4399459"></rect>
                <ellipse id="Oval" fill="#FF8B00" fill-rule="nonzero" cx="9.90270492" cy="6.17254054" rx="3.22516393" ry="3.23172973"></ellipse>
                <ellipse id="Oval" fill="#FFC400" fill-rule="nonzero" cx="20.4302459" cy="6.17254054" rx="3.22516393" ry="3.23172973"></ellipse>
                <ellipse id="Oval" fill="#0065FF" fill-rule="nonzero" cx="30.9577869" cy="6.17254054" rx="3.22516393" ry="3.23172973"></ellipse>
                <rect id="Rectangle-path" fill="#0065FF" fill-rule="nonzero" x="0" y="12.4399459" width="20.4302459" height="104.31973"></rect>
                <path d="M59.1721311,44.9027027 L108.081967,44.9027027 L108.081967,44.9027027 C109.738821,44.9027027 111.081967,46.2458485 111.081967,47.9027027 L111.081967,51.072973 C111.081967,52.7298272 109.738821,54.072973 108.081967,54.072973 L59.1721311,54.072973 C57.5152769,54.072973 56.1721311,52.7298272 56.1721311,51.072973 L56.1721311,47.9027027 L56.1721311,47.9027027 C56.1721311,46.2458485 57.5152769,44.9027027 59.1721311,44.9027027 L59.1721311,44.9027027 Z M68.3237705,63.2432432 L98.9303279,63.2432432 C100.587182,63.2432432 101.930328,64.586389 101.930328,66.2432432 L101.930328,69.4135135 C101.930328,71.0703678 100.587182,72.4135135 98.9303279,72.4135135 L68.3237705,72.4135135 C66.6669162,72.4135135 65.3237705,71.0703678 65.3237705,69.4135135 L65.3237705,66.2432432 C65.3237705,64.586389 66.6669162,63.2432432 68.3237705,63.2432432 Z M77.4754098,81.5837838 L89.7786885,81.5837838 C91.4355428,81.5837838 92.7786885,82.9269295 92.7786885,84.5837838 L92.7786885,87.7540541 L92.7786885,87.7540541 C92.7786885,89.4109083 91.4355428,90.7540541 89.7786885,90.7540541 L77.4754098,90.7540541 L77.4754098,90.7540541 C75.8185556,90.7540541 74.4754098,89.4109083 74.4754098,87.7540541 L74.4754098,84.5837838 C74.4754098,82.9269295 75.8185556,81.5837838 77.4754098,81.5837838 Z" id="Combined-Shape-Copy" fill="#BAC1CB"></path>
            </g>
        </g>
    </g>
</svg>