<svg width="142" height="89" xmlns="http://www.w3.org/2000/svg"><defs><linearGradient x1="-.048%" y1="49.963%" x2="99.994%" y2="49.963%" id="a"><stop stop-color="#77A6D7" offset="62.04%"/><stop stop-color="#5D8BC1" offset="97.24%"/></linearGradient></defs><g fill-rule="nonzero" fill="none"><g fill="#E3F4FD"><path d="M79.3 59.3c0 .9.1 1.8.3 2.7.5 2.1 1.6 3.9 3 5.3 2 2.1 4.9 3.3 8 3.3h37.2c6.2 0 11.3-5.1 11.3-11.3 0-3.1-1.3-5.9-3.3-8-2-2.1-4.9-3.3-8-3.3H90.6c-6.1 0-11.1 4.9-11.3 11v.3z"/><path d="M79.3 58.3v.7c0 1 .1 2 .3 2.9.5 2.1 1.6 3.9 3 5.3 2 2.1 4.9 3.3 8 3.3h24.8c2.6-3.4 4.2-7.7 4.2-12.3 0-3.8-1-7.3-2.9-10.3-3.5-5.9-9.9-9.8-17.3-9.8-11.1 0-20.1 9.1-20.1 20.2z"/></g><g fill="#E3F4FD"><path d="M59.6 23.8v.8c0 1.2-.1 2.3-.4 3.4-.6 2.4-1.8 4.5-3.5 6.2-2.4 2.4-5.6 3.9-9.3 3.9H15c-6.7 0-12.2-5.4-12.2-12.2 0-3.4 1.4-6.4 3.6-8.6 2.2-2.2 5.2-3.6 8.6-3.6h40c.9 0 1.7.1 2.5.3 1.4 3 2.1 6.4 2.1 9.8z"/><path d="M17 23.8v.8c0 1.2.1 2.3.4 3.4.6 2.4 1.8 4.5 3.5 6.2 2.4 2.4 5.6 3.9 9.3 3.9h31.5c6.7 0 12.2-5.4 12.2-12.2 0-3.4-1.4-6.4-3.6-8.6-2.2-2.2-5.2-3.6-8.6-3.6h-40c-.9 0-1.7.1-2.5.3-1.4 3-2.2 6.4-2.2 9.8z"/><path d="M59.6 23.8v.8c0 1.2-.1 2.3-.4 3.4-.6 2.4-1.8 4.5-3.5 6.2-2.4 2.4-5.6 3.9-9.3 3.9H17.8c-3.1-3.9-4.9-8.9-4.9-14.3 0-3.6.8-7 2.3-10 .3-.7.7-1.3 1-1.9C20.3 5 27.7.4 36.3.4 45.7.4 53.8 6 57.5 14c1.4 3 2.1 6.4 2.1 9.8z"/></g><g fill="#F9E868"><path d="M130.8 21.3c-.6 1.9-1.8 3.5-3.3 4.6-.3.2-.3.6 0 .8 1.5 1.3 2.7 3.1 3.3 5 .2.5.8.5 1 0 .7-2 1.8-3.7 3.3-5 .3-.2.2-.6 0-.8-1.5-1.2-2.7-2.8-3.3-4.6-.2-.5-.9-.5-1 0zM137.8 31.8c-.5 1.4-1.3 2.6-2.5 3.4-.2.2-.2.4 0 .6 1.1 1 2 2.3 2.5 3.7.1.4.6.4.7 0 .5-1.4 1.3-2.7 2.5-3.7.2-.2.2-.4 0-.6-1.1-.9-2-2-2.5-3.4-.1-.4-.5-.4-.7 0z"/></g><path d="M108.2 20.1L1.7 51.5C.2 52 0 54 1.5 54.7l15.7 7 91-41.6z" fill="#9FCEEF"/><path fill="#3985C6" d="M31.1 88.7l14.4-12.9-13.3-6.3z"/><path d="M32.2 69.5l29.5 14.1c1.8.8 3.9.3 4.9-1.4l41.6-62.1-76 49.4z" fill="#9FCEEF"/><path fill="url(#a)" d="M17.2 41.7l13.9 27 1.1-19.2 76-49.4z" transform="translate(0 20)"/></g></svg>