<svg width="520" height="280" fill="none" xmlns="http://www.w3.org/2000/svg"><g opacity=".6"><path d="M242.6 228.596c11.155 0 20.197-9.042 20.197-20.197 0-11.154-9.042-20.197-20.197-20.197-11.154 0-20.196 9.043-20.196 20.197 0 11.155 9.042 20.197 20.196 20.197Z" fill="#E4EEF9"/><path opacity=".51" d="M251.195 221.721v4.512c-4.727 2.363-10.528 2.793-15.9.859-.644-.215-1.289-.43-1.933-.859v-4.512c0-4.942 4.082-8.81 8.809-8.81 2.363 0 4.727 1.075 6.231 2.579 1.933 1.719 2.793 3.867 2.793 6.231ZM242.386 210.763a6.876 6.876 0 1 0-.002-13.752 6.876 6.876 0 0 0 .002 13.752Z" fill="#A9C9EA"/></g><g opacity=".6"><path d="M185.759 40.344c11.14 0 20.172-9.032 20.172-20.172S196.899 0 185.759 0c-11.141 0-20.172 9.031-20.172 20.172 0 11.14 9.031 20.172 20.172 20.172Z" fill="#E4EEF9"/><path opacity=".51" d="M194.342 33.477v4.506c-4.721 2.36-10.515 2.79-15.88.859-.643-.215-1.287-.43-1.931-.859v-4.506c0-4.936 4.077-8.799 8.798-8.799 2.361 0 4.721 1.073 6.224 2.576 1.931 1.716 2.789 3.862 2.789 6.223ZM185.544 22.532a6.867 6.867 0 1 0 0-13.733 6.867 6.867 0 0 0 0 13.733Z" fill="#A9C9EA"/></g><g opacity=".6"><path d="M129.489 272.099c13.93 0 25.223-11.293 25.223-25.223s-11.293-25.223-25.223-25.223-25.223 11.293-25.223 25.223 11.293 25.223 25.223 25.223Z" fill="#E4EEF9"/><path opacity=".51" d="M140.222 263.513v5.634c-5.903 2.952-13.148 3.489-19.856 1.074-.805-.269-1.61-.537-2.415-1.074v-5.634c0-6.172 5.098-11.002 11.001-11.002 2.952 0 5.903 1.342 7.782 3.22 2.415 2.147 3.488 4.83 3.488 7.782ZM129.221 249.827a8.586 8.586 0 1 0 0-17.172 8.586 8.586 0 1 0 0 17.172Z" fill="#A9C9EA"/></g><g opacity=".56" fill-rule="evenodd" clip-rule="evenodd" fill="#E4EEF9"><path opacity=".56" d="M242.769 92.49c-27.64 0-50.047 22.407-50.047 50.047 0 27.641 22.407 50.047 50.047 50.047 27.64 0 50.047-22.406 50.047-50.047 0-27.64-22.407-50.047-50.047-50.047Zm-55.003 50.047c0-30.377 24.626-55.002 55.003-55.002s55.003 24.625 55.003 55.002c0 30.378-24.626 55.003-55.003 55.003s-55.003-24.625-55.003-55.003Z"/><path opacity=".56" d="M242.215 15.297c-71.728 0-129.874 58.146-129.874 129.874 0 71.727 58.146 129.873 129.874 129.873 71.727 0 129.873-58.146 129.873-129.873 0-71.728-58.146-129.874-129.873-129.874ZM107.385 145.17c0-74.465 60.365-134.83 134.83-134.83 74.464 0 134.829 60.365 134.829 134.83 0 74.464-60.365 134.829-134.829 134.829-74.465 0-134.83-60.365-134.83-134.829Z"/></g><path d="M374.566 270.635c36.51 0 66.107-29.597 66.107-66.107 0-36.509-29.597-66.106-66.107-66.106s-66.106 29.597-66.106 66.106c0 36.51 29.596 66.107 66.106 66.107Z" fill="#ABD3FF"/><path d="M403.67 249.292v14.691c-15.661 7.622-34.093 9.147-51.694 2.771-2.217-.831-4.296-1.663-6.375-2.771v-14.691c0-16.076 13.027-29.103 29.104-29.103 8.038 0 15.383 3.326 20.511 8.454 5.266 5.266 8.454 12.611 8.454 20.649ZM374.566 213.398c12.4 0 22.451-10.052 22.451-22.451 0-12.4-10.051-22.451-22.451-22.451-12.399 0-22.451 10.051-22.451 22.451 0 12.399 10.052 22.451 22.451 22.451Z" fill="#E2F1FD"/><path d="M328.328 171.745H76.375c-3.465 0-6.375-2.772-6.375-6.375v-54.465c0-3.465 2.772-6.375 6.375-6.375h251.953c3.465 0 6.375 2.772 6.375 6.375v54.604c-.138 3.464-2.91 6.236-6.375 6.236Z" fill="#E4EEF9"/><path opacity=".51" d="M303.461 120.052H147.115a2 2 0 0 0-2 2v10.829a2 2 0 0 0 2 2h156.346a2 2 0 0 0 2-2v-10.829a2 2 0 0 0-2-2ZM251.352 143.473H147.115a2 2 0 0 0-2 2v10.829a2 2 0 0 0 2 2h104.237a2 2 0 0 0 2-2v-10.829a2 2 0 0 0-2-2ZM110.606 160.381c12.247 0 22.174-9.928 22.174-22.174 0-12.247-9.927-22.174-22.174-22.174-12.246 0-22.174 9.927-22.174 22.174 0 12.246 9.928 22.174 22.174 22.174Z" fill="#A9C9EA"/><path d="M428.658 268.023c11.863 0 21.481-9.618 21.481-21.481 0-11.864-9.618-21.481-21.481-21.481-11.864 0-21.482 9.617-21.482 21.481 0 11.863 9.618 21.481 21.482 21.481Z" fill="#80C571"/><path d="M439.883 249.452h-21.065c-1.663 0-2.91-1.247-2.91-2.91s1.247-2.911 2.91-2.911h21.065c1.663 0 2.911 1.248 2.911 2.911s-1.386 2.91-2.911 2.91Z" fill="#fff"/><path d="M426.44 257.074v-21.065c0-1.663 1.248-2.91 2.911-2.91s2.91 1.247 2.91 2.91v21.065c0 1.664-1.247 2.911-2.91 2.911s-2.911-1.247-2.911-2.911Z" fill="#fff"/><path d="M350.84 87.127c1.012-6.069.415-12.666-2.285-18.851-7.289-17.12-27.017-25.59-42.694-18.394-14.712 6.857-20.56 25.036-13.311 41.043 2.994 6.523 7.657 11.821 13.314 15.242 2.605 1.612 13.298 6.359 15.368 7.795 3.429 2.433 5.154 4.668 6 5.892.321.432.885.703 1.309.498l8.845-3.792 8.845-3.792c.423-.205.734-.791.502-1.246-.394-1.334-1.031-4.141-.505-8.253.525-2.478 4.019-13.239 4.612-16.142.091-.022 0 0 0 0Z" fill="#F9E868"/><path d="M326.339 122.737c.429.945 1.354 1.516 2.296 1.498-.674.66-.892 1.716-.459 2.671l.349.859c.557 1.228 1.953 1.825 3.133 1.318l.031-.013 1.248 2.774c2.291 5.115 8.231 7.462 13.102 5.423l2.153-.949c4.843-2.135 6.936-7.824 4.645-12.939l-1.291-2.869c1.174-.51 1.689-1.899 1.133-3.124l-.349-.859c-.428-.946-1.353-1.517-2.295-1.498.674-.66.892-1.716.458-2.671l-.349-.86c-.556-1.228-1.952-1.824-3.133-1.317l-19.879 8.569c-1.18.507-1.698 1.9-1.141 3.128l.348.859Z" fill="#C7C6C6"/><path opacity=".88" d="M333.575 58.224c.319-2.118-2.265-4.345-5.772-4.973-3.507-.627-6.609.582-6.929 2.7-.319 2.12 2.265 4.346 5.772 4.973 3.507.628 6.609-.58 6.929-2.7Z" fill="#fff"/><path opacity=".52" fill-rule="evenodd" clip-rule="evenodd" d="M338.055 62.033c.82-.605 1.989-.428 2.611.394l-1.486 1.095 1.486-1.094.003.003.004.006.014.018.045.062a23.788 23.788 0 0 1 .686 1.006 30.799 30.799 0 0 1 1.606 2.803c1.17 2.314 2.444 5.561 2.637 9.059a1.824 1.824 0 0 1-1.76 1.922 1.889 1.889 0 0 1-1.962-1.773c-.154-2.783-1.189-5.505-2.243-7.589a27.121 27.121 0 0 0-1.408-2.46 20.538 20.538 0 0 0-.447-.664l-.117-.163-.027-.036-.003-.005m.361-2.584a1.83 1.83 0 0 0-.361 2.584Z" fill="#fff"/><path d="m305.819 43.638-.727.486c-1.471.573-3.134-.207-3.738-1.656l-5.473-12.837c-.631-1.543.047-3.218 1.428-3.768 1.471-.574 3.134.206 3.738 1.655l5.473 12.837c.524 1.169.215 2.45-.701 3.283ZM283.346 62.864c-.785.706-1.916.889-2.936.432l-10.68-4.545c-1.561-.626-2.263-2.384-1.724-3.945.539-1.56 2.233-2.19 3.795-1.564l10.68 4.546c1.561.626 2.263 2.384 1.724 3.944-.259.473-.546.85-.859 1.132ZM280.325 94.946c-.318.289-.663.48-1.129.599l-11.153 2.933c-1.584.402-3.275-.625-3.744-2.275-.469-1.65.449-3.34 2.033-3.742l11.153-2.934c1.584-.402 3.275.626 3.744 2.276.238 1.188-.111 2.421-.904 3.143ZM337.438 41.199a2.686 2.686 0 0 1-3.036.358c-1.46-.645-2.276-2.465-1.622-3.945l4.26-10.787a2.764 2.764 0 0 1 3.799-1.461c1.46.645 2.276 2.464 1.622 3.945L338.2 40.096a2.842 2.842 0 0 1-.762 1.103ZM369.546 55.983c-.157.142-.25.166-.408.308l-8.118 4.615c-1.373.757-3.195.291-4.125-1.222-.81-1.44-.442-3.28.996-4.156l8.118-4.615c1.373-.757 3.195-.291 4.125 1.222.782 1.344.453 2.97-.588 3.848Z" fill="#F9E868"/></svg>