<svg width="160" height="160" viewBox="0 0 160 160" fill="none" xmlns="http://www.w3.org/2000/svg"><g clip-path="url(#clip0_6623_230706)"><path d="M137.2 156.9C149.461 156.9 159.4 146.961 159.4 134.7C159.4 122.439 149.461 112.5 137.2 112.5C124.94 112.5 115 122.439 115 134.7C115 146.961 124.94 156.9 137.2 156.9Z" fill="#3E8EED"></path><path d="M159.6 63.8L151 11C150.6 8.30003 148 6.40003 145.3 6.90003L118.9 11.2L117.9 5.30003C117.7 3.80003 116.3 2.80003 114.8 3.00003L78.9999 8.90003C77.4999 9.10003 76.4999 10.5 76.6999 12L77.6999 17.9L49.9999 22.4C47.2999 22.8 45.3999 25.4 45.8999 28.1L54.3999 81C54.7999 83.7 57.3999 85.6 60.0999 85.1L155.5 69.6C158.2 69.1 160.1 66.5 159.6 63.8Z" fill="url(#paint0_radial_6623_230706)"></path><path d="M148.5 63.7L132.3 61.6L133.2 54.7C133.5 52.7 132.1 50.9 130.1 50.6L78.5 44C76.5 43.7 74.7 45.1 74.4 47.1L73.6 54L17.2 46.7C14.2 46.3 11.4 48.4 11 51.5L0.999969 128.1C0.599969 131.1 2.69997 133.9 5.79997 134.3L112.8 148.1C110.7 144.1 109.5 139.6 109.5 134.8C109.5 119.3 122.1 106.7 137.6 106.7C141.4 106.7 145 107.4 148.2 108.8L153.2 69.9C153.7 66.8 151.6 64.1 148.5 63.7Z" fill="#C3F2F4"></path><path d="M45.4999 90.5C51.078 90.5 55.5999 85.9781 55.5999 80.4C55.5999 74.822 51.078 70.3 45.4999 70.3C39.9218 70.3 35.3999 74.822 35.3999 80.4C35.3999 85.9781 39.9218 90.5 45.4999 90.5Z" fill="#7BDDEF"></path><path d="M60.1999 115.3L59.8999 118C59.5999 120.3 57.4999 122 55.0999 121.7L25.6999 117.9C23.3999 117.6 21.6999 115.5 21.9999 113.1L22.3999 110C23.7999 99.3001 33.6999 91.9001 44.3999 93.6001C54.6999 95.3001 61.5999 105.1 60.1999 115.3Z" fill="#7BDDEF"></path><path d="M132 100.2L85.4999 94.2C83.1999 93.9 81.5999 91.8 81.8999 89.6C82.1999 87.3 84.2999 85.7 86.4999 86L133 92C135.3 92.3 136.9 94.4 136.6 96.6C136.4 98.9 134.3 100.5 132 100.2Z" fill="#7BDDEF"></path><path d="M108.9 116.6L82.9999 113.4C80.6999 113.1 79.0999 111 79.3999 108.8C79.6999 106.5 81.7999 104.9 83.9999 105.2L109.9 108.4C112.2 108.7 113.8 110.8 113.5 113C113.2 115.3 111.1 116.9 108.9 116.6Z" fill="#7BDDEF"></path></g><defs><radialGradient id="paint0_radial_6623_230706" cx="0" cy="0" r="1" gradientUnits="userSpaceOnUse" gradientTransform="translate(95.6053 95.7022) rotate(103.621) scale(72.2723 106.122)"><stop offset="0.00065331" stop-color="#3E8EED"></stop><stop offset="1" stop-color="#72ACF1"></stop></radialGradient><clipPath id="clip0_6623_230706"><rect width="158.7" height="153.9" fill="white" transform="translate(1 3)"></rect></clipPath></defs></svg>