<svg width="240" height="148" viewBox="0 0 240 148" fill="none" xmlns="http://www.w3.org/2000/svg"><path d="M33.7972 81.2168C52.4629 81.2168 67.5945 66.1144 67.5945 47.4846C67.5945 28.8549 52.4629 13.7524 33.7972 13.7524C15.1315 13.7524 0 28.8549 0 47.4846C0 66.1144 15.1315 81.2168 33.7972 81.2168Z" fill="#B3AFAB"></path><path d="M59.0484 68.7639C57.9952 64.9464 51.2953 64.2311 50.8204 60.6378C50.337 57.0444 54.8524 54.4419 53.6264 50.9864C52.3918 47.5309 47.9971 47.2637 46.1236 43.8858C44.5836 40.6559 44.1751 33.594 44.1751 33.594C44.1751 33.594 22.7414 32.9638 19.5829 33.3078C19.2203 35.1691 18.4347 38.5 16.6475 40.3441C13.9537 43.1189 9.9994 42.7656 7.90136 45.7903C5.81188 48.8063 7.69415 51.7965 6.29538 55.14C5.55614 56.9068 3.59701 57.4139 1.69824 58.0427C4.98637 68.006 12.7955 75.913 22.7066 79.3493C23.6654 79.5605 24.6366 79.7379 25.6266 79.8543C26.8181 80.0008 28.0356 80.0698 29.2702 80.0698H35.6161C38.3962 80.0698 41.09 79.6992 43.6456 78.9926C49.793 77.3209 55.1719 73.7619 59.109 68.9879C59.0918 68.9104 59.0659 68.8414 59.0484 68.7639Z" fill="#FADCBD"></path><path d="M235.895 148H77.5916C75.3245 148 73.4866 146.166 73.4866 143.903V4.09704C73.4867 1.8343 75.3245 0 77.5916 0H235.895C238.162 0 240 1.8343 240 4.09704V143.903C240 146.166 238.162 148 235.895 148Z" fill="#E1DFDD"></path><path d="M229.405 59.1365H110.924C110.317 59.1365 109.825 58.6455 109.825 58.0398V7.41951C109.825 6.8138 110.317 6.32275 110.924 6.32275H229.405C230.012 6.32275 230.504 6.81373 230.504 7.41951V58.0398C230.504 58.6455 230.012 59.1365 229.405 59.1365Z" fill="white"></path><path d="M221.287 41.8622C221.564 41.9796 221.809 42.1429 222.023 42.352C222.237 42.5654 222.403 42.8102 222.52 43.0863C222.638 43.3627 222.697 43.6535 222.697 43.9581C222.697 44.258 222.639 44.551 222.523 44.8359C222.408 45.1212 222.245 45.3744 222.036 45.5965L217.182 50.6563C217.113 50.7345 217.017 50.7737 216.895 50.7737C216.781 50.7737 216.683 50.7332 216.601 50.6529C216.518 50.5721 216.476 50.4753 216.476 50.3622C216.476 50.2449 216.518 50.1425 216.601 50.0554L221.428 45.0156C221.567 44.8763 221.675 44.7143 221.751 44.5291C221.828 44.3444 221.866 44.1538 221.866 43.9581C221.866 43.7621 221.828 43.5774 221.751 43.4032C221.675 43.2291 221.569 43.0747 221.434 42.9395C221.299 42.8091 221.141 42.7077 220.96 42.6361C220.779 42.5642 220.593 42.5284 220.401 42.5284C220.209 42.5284 220.023 42.5642 219.842 42.6361C219.661 42.7076 219.507 42.8111 219.381 42.9462L213.768 48.7628C213.515 49.0283 213.32 49.3287 213.183 49.6637C213.046 49.9991 212.977 50.3449 212.977 50.7017C212.977 51.0586 213.048 51.4015 213.189 51.7301C213.331 52.0587 213.526 52.3469 213.775 52.5952C214.023 52.843 214.312 53.037 214.642 53.1762C214.971 53.3155 215.316 53.385 215.678 53.385C216.032 53.385 216.376 53.3155 216.712 53.1762C217.048 53.0369 217.342 52.843 217.595 52.5952L221.585 48.6517C221.663 48.5735 221.761 48.5343 221.879 48.5343C221.992 48.5343 222.09 48.5756 222.174 48.6585C222.256 48.7409 222.298 48.839 222.298 48.9521C222.298 49.0653 222.256 49.1633 222.174 49.2458L218.183 53.1893C217.852 53.5153 217.468 53.7691 217.032 53.9495C216.596 54.1301 216.145 54.2206 215.678 54.2206C215.203 54.2206 214.752 54.1293 214.324 53.9462C213.897 53.7636 213.52 53.5091 213.193 53.1825C212.865 52.856 212.609 52.4806 212.424 52.0567C212.239 51.632 212.146 51.1827 212.146 50.7085C212.146 50.2385 212.235 49.7837 212.414 49.3439C212.593 48.9041 212.846 48.517 213.173 48.1818L218.791 42.3585C218.996 42.1409 219.242 41.9747 219.528 41.859C219.813 41.7437 220.108 41.686 220.414 41.686C220.719 41.686 221.01 41.7449 221.287 41.8622Z" fill="#F7B548"></path><path d="M151.963 14.522H117.412V18.6135H151.963V14.522Z" fill="#D2D0CE"></path><path d="M215.222 23.0474H117.412V27.1389H215.222V23.0474Z" fill="#F3F2F1"></path><path d="M197.71 32.7295H117.412V53.4307H197.71V32.7295Z" fill="#F3F2F1"></path><path d="M229.405 103.516H110.924C110.317 103.516 109.825 103.025 109.825 102.419V68.6842C109.825 68.0784 110.317 67.5874 110.924 67.5874H229.405C230.012 67.5874 230.504 68.0784 230.504 68.6842V102.419C230.504 103.025 230.012 103.516 229.405 103.516Z" fill="white"></path><path d="M157.428 74.5796H117.516V78.6711H157.428V74.5796Z" fill="#D2D0CE"></path><path d="M195.339 83.104H117.516V87.9268H195.339V83.104Z" fill="#F3F2F1"></path><path d="M189.661 92.5625H117.516V96.6541H189.661V92.5625Z" fill="#F3F2F1"></path><path d="M218.254 91.7918L213.91 92.3453C212.169 92.5673 210.576 91.3379 210.354 89.5995L209.8 85.2698C209.667 84.2243 210.407 83.2686 211.455 83.1351L217.055 82.4214C217.875 82.3169 218.624 82.8953 218.728 83.7132L219.548 90.1216C219.653 90.9398 219.073 91.6875 218.254 91.7918Z" fill="#F7B548"></path><path d="M219.846 84.8639L216.27 85.3195C215.508 85.4166 214.812 84.8789 214.715 84.1186C214.617 83.3583 215.156 82.6633 215.918 82.5661L219.494 82.1104C220.256 82.0134 220.952 82.551 221.049 83.3114C221.147 84.0718 220.608 84.7668 219.846 84.8639Z" fill="#F7B548"></path><path d="M218.907 87.7272L215.331 88.1829C214.569 88.2799 213.872 87.7423 213.775 86.9819C213.678 86.2216 214.217 85.5265 214.978 85.4294L218.554 84.9737C219.316 84.8767 220.013 85.4143 220.11 86.1747C220.207 86.935 219.668 87.6301 218.907 87.7272Z" fill="#F7B548"></path><path d="M213.043 78.6589L213.123 78.8238L213.182 78.9557C213.22 79.0422 213.256 79.125 213.286 79.2072C213.35 79.3749 213.4 79.5365 213.453 79.7024C213.539 80.0324 213.621 80.3638 213.663 80.6982C213.755 81.3663 213.768 82.0438 213.693 82.7102C213.679 82.8775 213.646 83.0412 213.622 83.207C213.597 83.3726 213.566 83.5369 213.525 83.6981C213.486 83.8602 213.446 84.0221 213.404 84.183L213.248 84.6554C213.196 84.8128 213.141 84.9686 213.073 85.1183C213.005 85.2685 212.947 85.4224 212.872 85.5687C212.798 85.7163 212.679 85.8402 212.545 85.9548C212.407 86.0671 212.246 86.1658 212.026 86.226C211.272 86.4329 210.495 86.0643 210.165 85.3863L210.067 85.1844C209.882 84.8052 209.893 84.5532 209.946 84.3201C210.008 84.0936 210.108 83.8809 210.158 83.6552L210.254 83.3234C210.277 83.2111 210.302 83.0999 210.329 82.9886C210.359 82.8781 210.375 82.7655 210.394 82.6535C210.411 82.5415 210.44 82.4303 210.45 82.3177C210.518 81.8691 210.541 81.4172 210.543 80.9664C210.543 80.7407 210.538 80.5161 210.52 80.2945C210.511 80.1865 210.506 80.0724 210.492 79.9702L210.477 79.8175L210.471 79.7494C210.47 79.7321 210.465 79.6996 210.478 79.7166C210.185 79.0095 210.522 78.1996 211.231 77.9076C211.939 77.6154 212.751 77.9518 213.043 78.6589Z" fill="#F7B548"></path><path d="M216.027 98.6142C215.984 98.209 216.269 97.8472 216.666 97.7953C217.072 97.7524 217.434 98.0369 217.486 98.4332C217.53 98.8379 217.245 99.1998 216.848 99.2515C216.813 99.2515 216.787 99.2515 216.761 99.2515C216.39 99.2516 216.079 98.9845 216.027 98.6142ZM210.493 98.4934C210.493 98.4934 210.493 98.4934 210.493 98.4849C210.113 98.3469 209.923 97.9245 210.07 97.5454C210.208 97.1663 210.631 96.9769 211.011 97.1233C211.391 97.261 211.581 97.6834 211.434 98.0625C211.33 98.3553 211.045 98.5367 210.752 98.5367C210.665 98.5368 210.579 98.5195 210.493 98.4934ZM221.803 96.7961C221.579 96.4599 221.656 96.0118 221.993 95.779C222.321 95.5464 222.779 95.6326 223.012 95.96C223.237 96.2962 223.158 96.7527 222.822 96.9854C222.701 97.0716 222.554 97.1146 222.408 97.1146C222.175 97.1145 221.95 97.0027 221.803 96.7961ZM205.226 94.8656C204.959 94.5639 204.984 94.0986 205.287 93.8313C205.589 93.5645 206.055 93.5902 206.322 93.8919C206.59 94.1936 206.564 94.6589 206.262 94.9258C206.124 95.0465 205.951 95.1067 205.77 95.1067C205.572 95.1067 205.373 95.0293 205.226 94.8656ZM226.077 92.5047C225.723 92.3234 225.576 91.8752 225.766 91.5222C225.956 91.1604 226.396 91.0224 226.759 91.2122C227.113 91.4015 227.251 91.8412 227.07 92.2031C226.932 92.453 226.681 92.5906 226.414 92.5906C226.301 92.5905 226.18 92.5649 226.077 92.5047ZM202.239 89.2214C202.144 88.825 202.386 88.4283 202.774 88.3336C203.171 88.2388 203.568 88.4716 203.664 88.868C203.759 89.256 203.525 89.6524 203.128 89.7554C203.068 89.7643 203.007 89.7726 202.955 89.7726C202.627 89.7726 202.325 89.5488 202.239 89.2214ZM227.13 85.9983C227.13 85.981 227.13 85.9726 227.13 85.9553C227.13 85.5501 227.45 85.2228 227.856 85.2228C228.261 85.2139 228.589 85.5417 228.589 85.9464C228.589 85.9553 228.589 85.9637 228.589 85.9726C228.589 85.981 228.589 85.9898 228.589 85.9983C228.589 86.4035 228.27 86.7308 227.864 86.7308C227.459 86.7309 227.13 86.4036 227.13 85.9983ZM202.766 83.7148C202.377 83.6201 202.135 83.2239 202.23 82.8359C202.325 82.4395 202.722 82.198 203.111 82.3015C203.508 82.3962 203.749 82.7841 203.655 83.1804C203.568 83.5166 203.266 83.7404 202.938 83.7404C202.886 83.7405 202.826 83.7322 202.766 83.7148ZM225.749 80.4405C225.559 80.087 225.697 79.6389 226.051 79.4491C226.405 79.2598 226.854 79.3974 227.044 79.7509C227.234 80.1127 227.096 80.5524 226.742 80.7418C226.629 80.8024 226.509 80.828 226.396 80.828C226.129 80.828 225.879 80.69 225.749 80.4405ZM205.261 78.2083C204.95 77.941 204.924 77.4758 205.192 77.1745C205.459 76.8728 205.925 76.8467 206.228 77.1139C206.53 77.3811 206.556 77.838 206.288 78.1393C206.15 78.303 205.943 78.3892 205.744 78.3892C205.572 78.3893 205.399 78.3291 205.261 78.2083ZM221.95 76.2004C221.622 75.9678 221.535 75.5112 221.76 75.1838C221.993 74.8476 222.451 74.7613 222.779 74.9941C223.115 75.2184 223.202 75.6748 222.969 76.0111C222.83 76.2177 222.597 76.3212 222.364 76.3212C222.226 76.3212 222.079 76.2867 221.95 76.2004ZM210.018 74.477C209.88 74.0979 210.07 73.6758 210.441 73.5294C210.821 73.3913 211.244 73.5723 211.391 73.9514C211.537 74.3305 211.348 74.753 210.968 74.8994C210.881 74.9339 210.795 74.9424 210.709 74.9424C210.415 74.9424 210.13 74.7703 210.018 74.477ZM216.623 74.2013C216.217 74.1496 215.932 73.7877 215.984 73.3914C216.027 72.9862 216.39 72.7017 216.796 72.7451C217.193 72.7969 217.478 73.1587 217.434 73.555C217.391 73.9258 217.072 74.2013 216.709 74.2013C216.683 74.2013 216.649 74.2013 216.623 74.2013Z" fill="#F7B548"></path><path d="M105.177 82.1453V82.5653C105.177 88.9464 99.9946 94.1184 93.6013 94.1184H91.1865C87.2415 94.1184 83.7587 92.1497 81.6702 89.1427C80.3722 87.2761 79.6112 85.011 79.6112 82.5653V82.1453C79.6112 79.5936 80.4391 77.2364 81.8413 75.3265C83.9476 72.455 87.3496 70.5923 91.1866 70.5923H93.6014C99.9947 70.5922 105.177 75.7643 105.177 82.1453Z" fill="white"></path><path d="M105.177 123.504V123.925C105.177 129.182 101.661 133.616 96.8518 135.016C96.5955 135.093 96.3317 135.159 96.068 135.214C95.9361 135.243 95.8042 135.268 95.6687 135.294C95.5222 135.32 95.372 135.345 95.2219 135.367C95.112 135.382 95.0058 135.393 94.8959 135.407C94.471 135.451 94.0389 135.477 93.6029 135.477H91.1855C88.4274 135.477 85.8928 134.515 83.9075 132.911C83.0505 132.22 82.2959 131.408 81.6695 130.501C80.3729 128.637 79.611 126.371 79.611 123.925V123.504C79.611 120.953 80.4388 118.595 81.8416 116.686C83.9477 113.813 87.3505 111.952 91.1854 111.952H93.6028C99.9944 111.952 105.177 117.125 105.177 123.504Z" fill="white"></path><path d="M93.6538 73.3223H85.5081V83.8978H93.6538V73.3223Z" fill="#BF8F68"></path><path d="M85.5078 74.2546H94.8549V68.8139C94.8549 68.6154 94.6937 68.4546 94.4949 68.4546H89.4962C87.2935 68.4546 85.5078 70.2368 85.5078 72.4353V74.2546Z" fill="#594539"></path><path d="M85.507 73.6702V75.9937C85.5372 76.0012 85.5712 76.0012 85.6014 76.0012C86.2477 76.0012 86.7729 75.477 86.7729 74.8319C86.7729 74.6207 86.7162 74.4245 86.618 74.2548C86.4177 73.9002 86.036 73.6626 85.6014 73.6626C85.5712 73.6625 85.5371 73.6625 85.507 73.6702Z" fill="#594539"></path><path d="M87.6821 74.8892C88.3526 74.8892 88.8962 74.3467 88.8962 73.6775C88.8962 73.0083 88.3526 72.4658 87.6821 72.4658C87.0116 72.4658 86.4681 73.0083 86.4681 73.6775C86.4681 74.3467 87.0116 74.8892 87.6821 74.8892Z" fill="#BF8F68"></path><path d="M91.2483 78.8145H93.4569C94.3998 78.8145 95.164 78.0518 95.164 77.1106V72.0313C95.164 70.0559 93.5596 68.4546 91.5804 68.4546H91.5715C89.5924 68.4546 87.988 70.0559 87.988 72.0313V75.5605C87.9882 77.3576 89.4477 78.8145 91.2483 78.8145Z" fill="#594539"></path><path d="M90.9353 70.5574H95.123C95.7047 70.5574 96.1764 70.0867 96.1764 69.506C96.1764 68.9253 95.7048 68.4546 95.123 68.4546H90.9353V70.5574Z" fill="#594539"></path><path d="M92.3819 75.5277H95.1642V70.5576H92.3633C91.1601 70.5576 90.1845 71.5312 90.1845 72.7322V73.3345C90.1846 74.5458 91.1684 75.5277 92.3819 75.5277Z" fill="#BF8F68"></path><path d="M94.0242 73.7517C94.0242 74.3479 94.5084 74.8312 95.1058 74.8312C95.7031 74.8312 96.1874 74.4409 96.1874 73.7517C96.1874 73.1719 95.6242 73.0017 95.3217 72.7189C95.1811 72.5875 95.1644 72.1431 95.1644 72.1431C95.1644 72.1431 94.0242 73.1555 94.0242 73.7517Z" fill="#BF8F68"></path><path d="M95.164 76.6947H93.5805C93.0762 76.6947 92.6673 76.2865 92.6673 75.7831C92.6673 75.2797 93.0762 74.8716 93.5805 74.8716H95.164V76.6947Z" fill="#594539"></path><path d="M93.7136 73.6644C93.8833 73.6644 94.0209 73.3961 94.0209 73.0651C94.0209 72.7341 93.8833 72.4658 93.7136 72.4658C93.5439 72.4658 93.4062 72.7341 93.4062 73.0651C93.4062 73.3961 93.5439 73.6644 93.7136 73.6644Z" fill="#594539"></path><g opacity="0.5"><path opacity="0.5" d="M93.5711 75.4335C93.9316 75.7732 94.2039 75.8015 94.7038 75.7457L94.7104 75.7449C94.7567 75.7398 94.7983 75.773 94.8036 75.8192C94.8058 75.8392 94.8008 75.8583 94.7908 75.8739C94.628 76.1278 94.2884 76.2212 93.9794 76.1553C93.6694 76.0741 93.4126 75.7866 93.4265 75.49C93.4287 75.4433 93.4684 75.4071 93.5154 75.4093C93.5365 75.4102 93.5568 75.4201 93.5711 75.4335Z" fill="#BF8F68"></path></g><path d="M102.44 90.023C100.316 92.5307 97.147 94.1163 93.5985 94.1163H91.1896C87.2438 94.1163 83.7558 92.1515 81.6664 89.1441C81.114 88.3513 80.6563 87.481 80.3281 86.5503C80.8376 85.4473 81.5369 84.4477 82.3917 83.6032C84.2393 81.7591 86.7864 80.6216 89.6095 80.6216H92.2688C97.639 80.6215 102.042 84.7664 102.44 90.023Z" fill="#8B8CC4"></path><path d="M102.44 90.023C100.316 92.5307 97.147 94.1163 93.5985 94.1163H91.1896C87.2438 94.1163 83.7558 92.1515 81.6664 89.1441C81.114 88.3513 80.6563 87.481 80.3281 86.5503C80.8376 85.4473 81.5369 84.4477 82.3917 83.6032C84.2393 81.7591 86.7864 80.6216 89.6095 80.6216H92.2688C97.639 80.6215 102.042 84.7664 102.44 90.023Z" fill="url(#paint0_linear_171:95278)"></path><path d="M77.8899 89.5627L81.5391 84.6292C83.2665 82.2939 86.5637 81.7984 88.9035 83.5224C91.2434 85.2464 91.7398 88.5373 90.0125 90.8726L86.3633 95.8061C84.6359 98.1415 81.3388 98.637 78.9989 96.9129C76.659 95.1889 76.1626 91.8982 77.8899 89.5627Z" fill="#8B8CC4"></path><path d="M94.5369 96.1223C94.5369 96.1223 96.948 96.4405 97.9336 95.8351C98.9191 95.2298 99.4754 95.0512 100.237 94.9947C101.059 94.9336 102.176 95.7006 102.703 95.6967C103.481 95.691 103.513 94.723 102.862 94.6649C102.114 94.5755 101.247 93.4559 99.9755 93.3591C99.2089 93.3007 97.9385 93.5277 96.677 93.5903C95.973 93.6251 94.7225 93.5338 94.7225 93.5338L94.5369 96.1223Z" fill="#BF8F68"></path><path d="M95.2213 96.147C95.2213 96.147 87.1006 98.317 82.1033 97.9401C81.3517 97.8834 81.4684 88.0503 81.4684 88.0503C81.4684 88.0503 92.1378 93.1618 95.3578 93.5714C95.3744 95.417 95.2213 96.147 95.2213 96.147Z" fill="#8B8CC4"></path><path d="M19.5857 36.033C19.6493 36.5758 19.7448 37.107 19.8679 37.6234C20.5504 40.4748 22.116 42.921 24.2108 44.6621C26.6838 46.7213 29.8948 47.7974 33.2543 47.4052L33.4615 47.381C39.6989 46.6528 44.2635 41.1178 44.2236 34.6772C44.2221 34.1775 44.1909 33.6755 44.1314 33.1671C43.7716 30.0979 42.2625 27.4573 40.1125 25.6702C39.0709 24.8019 37.8779 24.1352 36.5925 23.7178C35.2284 23.2745 33.7589 23.111 32.2555 23.2865L28.856 23.6834C27.3162 23.8632 25.8933 24.38 24.6483 25.1569C21.1671 27.3243 19.0559 31.5132 19.5857 36.033Z" fill="#FADCBD"></path><path d="M53.8776 66.0243C53.1869 67.136 16.7356 73.2153 15.3974 72.4656L20.8004 56.3551L20.0924 49.4096L24.7548 43.2741L26.9391 31.5718L42.6967 34.528C42.6967 34.528 42.6017 41.4304 44.4839 44.8084C46.3574 48.1864 50.7521 48.4535 51.9781 51.9091C53.2128 55.3646 48.6972 57.967 49.1807 61.5604C49.4484 63.6114 51.7623 64.7317 53.8776 66.0243Z" fill="url(#paint1_linear_171:95278)"></path><path d="M26.9478 38.957C26.8615 37.4662 26.6197 35.9236 26.3693 34.6483C26.1966 33.7952 26.0325 33.0628 25.903 32.5371C25.8513 33.2437 25.7821 34.1141 25.6613 35.0534C25.4023 37.1043 24.9101 39.4569 24.0035 41.0252C23.5719 41.7662 23.0538 42.3608 22.4753 42.8779C20.4722 44.722 17.8993 45.5924 16.8891 48.2724C15.5941 51.702 19.5483 54.115 18.9958 57.6997C18.4518 61.2845 11.1303 61.7412 10.6209 65.6621C9.78023 72.1282 12.9959 71.3464 13.4804 74.4415C16.2537 76.527 19.3614 78.1899 22.7056 79.3494C23.6647 79.5607 24.6362 79.7382 25.6266 79.8547C26.0669 79.0102 26.2741 78.071 25.946 76.9076C24.9791 73.452 21.3441 74.0898 20.6879 70.1086C20.6793 70.0568 20.6706 70.0051 20.662 69.9535C20.6448 69.8672 20.6361 69.7983 20.6361 69.7208C20.2562 66.3256 22.7341 66.1877 24.2105 63.6025C24.3314 63.3958 24.4522 63.1631 24.5559 62.9132C25.7042 60.1815 24.8494 58.0272 22.6305 54.2097V54.2012C22.1211 53.4343 21.8103 52.5726 21.8965 51.504C22.1038 48.9533 23.9255 47.4452 25.3243 45.4891C25.9286 44.6532 26.4553 43.7226 26.7402 42.5937C26.7661 42.5075 26.7834 42.4127 26.8007 42.3179C26.982 41.4476 27.0166 40.4221 26.9736 39.3535C26.9651 39.2241 26.9564 39.0949 26.9478 38.957Z" fill="#FADCBD"></path><path d="M34.8744 42.3794H28.4418V52.82H34.8744V42.3794Z" fill="#9B643D"></path><path d="M29.8101 47.3184L39.0186 46.2433C41.5665 45.9458 43.3903 43.6431 43.0923 41.1002L41.5362 27.8232L27.7144 29.437C27.7144 29.437 29.8101 47.3185 29.8101 47.3184Z" fill="#9B643D"></path><path d="M40.1855 38.8532C40.588 38.8062 40.8467 38.1912 40.7633 37.4796C40.6799 36.768 40.2859 36.2292 39.8834 36.2762C39.4809 36.3232 39.2222 36.9382 39.3056 37.6498C39.3891 38.3614 39.783 38.9002 40.1855 38.8532Z" fill="#33312D"></path><g opacity="0.5"><path opacity="0.5" d="M41.8661 42.6186C41.5802 43.0266 41.0267 43.2721 40.454 43.2001C40.1714 43.1599 39.8947 43.0412 39.6914 42.8526C39.4858 42.668 39.3374 42.4424 39.2849 42.189C39.2539 42.0399 39.3498 41.8941 39.4992 41.8632C39.5558 41.8515 39.612 41.858 39.6616 41.8788L39.6915 41.8913C39.8874 41.9728 40.0396 42.0464 40.1854 42.0884C40.3323 42.1264 40.4559 42.1607 40.5886 42.1711C40.8521 42.2075 41.1411 42.1762 41.5531 42.1348L41.5803 42.132C41.7512 42.1149 41.9036 42.2393 41.9206 42.4097C41.9284 42.4864 41.9071 42.5599 41.8661 42.6186Z" fill="#594539"></path></g><path d="M40.8385 40.0097C40.8919 40.4651 41.246 40.7449 41.6517 40.9167C42.0008 41.0645 43.0211 41.6559 43.1087 41.2714C43.265 40.5857 44.5594 40.5523 44.5601 39.3696C44.5609 38.1869 42.6958 38.1107 42.5038 36.0776C42.5037 36.0776 40.705 38.8711 40.8385 40.0097Z" fill="#9B643D"></path><path d="M76.1828 55.1826C76.1828 55.1826 71.3259 59.648 63.4886 61.0959C58.5252 62.0129 68.6917 67.9822 68.6917 67.9822L77.5877 56.7967L76.1828 55.1826Z" fill="#9B643D"></path><path d="M68.9447 70.1317C68.9447 70.1317 60.2345 81.0122 43.6457 78.7932C43.6457 78.7932 41.796 55.9145 39.1038 53.7064C39.0269 53.637 38.9463 53.5711 38.8658 53.5054L45.2354 57.7059C50.6819 61.2921 57.3812 62.4547 63.7178 60.9046L68.0362 59.8518L68.9447 70.1317Z" fill="url(#paint2_linear_171:95278)"></path><path d="M18.6664 63.3129C18.6664 64.8225 18.9344 66.2651 19.4311 67.6075C19.7437 68.4598 20.1455 69.273 20.6309 70.025C20.7928 70.2702 20.9491 70.5041 21.1277 70.7324V70.7435C23.4048 73.8016 27.0437 75.779 31.1623 75.779C32.1278 75.779 33.071 75.6676 33.9752 75.456C36.9164 74.782 39.4556 73.0719 41.1914 70.7324C41.8946 69.7854 42.4694 68.7326 42.888 67.6074C43.3734 66.2649 43.6471 64.8223 43.6471 63.3127C43.6471 63.2013 43.6471 63.0899 43.6359 62.9785V62.9451C43.541 59.2242 41.7941 55.9153 39.104 53.704C39.0148 53.6261 38.9198 53.548 38.825 53.4757C38.5124 53.2306 38.1944 53.0078 37.8594 52.7905C37.7088 52.6958 37.5524 52.6067 37.3961 52.512C37.1562 52.3783 36.905 52.2502 36.6596 52.1221C35.7386 51.6653 34.7564 51.3311 33.724 51.1138C32.8925 50.9411 32.0385 50.8521 31.1622 50.8521C30.2804 50.8521 29.4154 50.9411 28.595 51.1138C28.2658 51.1807 27.9365 51.2587 27.6183 51.3534C27.25 51.4648 26.8818 51.5873 26.53 51.7322C25.9943 51.9439 25.4864 52.1945 24.9896 52.473C24.9618 52.4897 24.9395 52.4953 24.9171 52.5121C24.7552 52.6068 24.5989 52.7014 24.4371 52.8073C24.1078 53.0134 23.7898 53.2472 23.4771 53.4868C23.3879 53.5591 23.2985 53.6317 23.2092 53.704C21.1946 55.3584 19.7155 57.6366 19.057 60.2323C18.8336 61.1069 18.6941 62.0149 18.672 62.945V62.9785C18.6721 63.0901 18.6664 63.2015 18.6664 63.3129Z" fill="#605D5A"></path><path d="M23.2095 53.705H39.1042C39.015 53.627 38.92 53.549 38.8252 53.4766C38.5126 53.2315 38.1945 53.0087 37.8596 52.7915C37.7089 52.6968 37.5526 52.6077 37.3963 52.513C37.1564 52.3793 36.9052 52.2512 36.6598 52.123C35.7388 51.6663 34.7566 51.3321 33.7242 51.1148C32.8927 50.9421 32.0387 50.853 31.1624 50.853C30.2806 50.853 29.4156 50.9421 28.5951 51.1148C28.2659 51.1817 27.9367 51.2596 27.6185 51.3544C27.2501 51.4658 26.8819 51.5883 26.5302 51.7332C25.9945 51.9448 25.4866 52.1954 24.9898 52.474C24.962 52.4907 24.9397 52.4963 24.9173 52.513C24.7554 52.6078 24.5991 52.7024 24.4373 52.8082C24.108 53.0144 23.79 53.2482 23.4773 53.4878C23.3882 53.5601 23.2988 53.6325 23.2095 53.705Z" fill="#9B643D"></path><path d="M18.6678 77.6469C23.2208 79.9265 28.3568 81.2171 33.7975 81.2171C37.2238 81.2171 40.5293 80.704 43.6457 79.7578V63.6021H18.6678V77.6469Z" fill="#605D5A"></path><path d="M20.6881 70.1084C20.6795 70.0567 20.6707 70.005 20.6622 69.9533C20.645 69.8671 20.6363 69.7982 20.6363 69.7206C20.2564 66.3254 22.7344 66.1875 24.2108 63.6023C24.3317 63.3956 24.4525 63.1628 24.5561 62.9129C25.7044 60.1813 24.8497 58.0269 22.6307 54.2095C22.5961 54.2353 22.5789 54.2526 22.5616 54.2784C22.4235 54.3991 22.3026 54.5197 22.1904 54.649C22.0954 54.7351 22.0177 54.8213 21.94 54.9075C21.8278 55.0281 21.7156 55.1574 21.6119 55.2866C21.4997 55.3986 21.4047 55.5193 21.3184 55.6399C21.2234 55.7692 21.1197 55.8985 21.0248 56.0363C20.9385 56.1398 20.8694 56.2518 20.8004 56.3552C20.7917 56.3639 20.7917 56.3725 20.7831 56.3811C20.6623 56.5621 20.5413 56.7516 20.4291 56.9412C20.2738 57.1997 20.1356 57.4583 19.9974 57.7168C19.868 57.9839 19.7385 58.2511 19.6262 58.5268C19.5226 58.7767 19.4276 59.0266 19.3413 59.2765C19.3154 59.3541 19.2895 59.4317 19.2636 59.5178C19.1858 59.7504 19.1167 59.9917 19.0563 60.233C18.8837 60.8966 18.7714 61.5687 18.711 62.2495C18.6851 62.4821 18.6763 62.7061 18.6678 62.9388V63.3266C18.6678 63.4214 18.6763 63.5075 18.6763 63.5937H18.6678V77.6471C20.8276 78.7284 23.1164 79.5897 25.51 80.192C25.8619 79.0155 26.1462 77.6165 25.9462 76.9074C24.9792 73.4519 21.3443 74.0896 20.6881 70.1084Z" fill="#B3AFAB"></path><path d="M41.8709 30.6771L39.2084 30.988C39.3806 34.2097 37.0143 37.049 33.7611 37.4289L29.6049 37.9141L28.6945 39.7625L26.1569 40.0588L24.8596 28.9901L41.4658 27.0513L41.8904 30.6738L41.8709 30.6771Z" fill="#FADCBD"></path><path d="M39.2085 31.0022C39.2108 30.9915 39.2119 30.9861 39.2119 30.9861L41.8709 30.6757C41.7266 30.007 41.093 29.5443 40.3982 29.6254C39.6986 29.7073 39.1865 30.3106 39.2085 31.0022Z" fill="#E0BB95"></path><path d="M29.7935 37.8921C28.0701 38.0933 26.8366 39.6507 27.0382 41.3708C27.2397 43.0908 28.8002 44.322 30.5236 44.1208L29.7935 37.8921Z" fill="#9B643D"></path><path d="M34.8745 49.2773L33.642 46.0356L36.2907 46.5614L35.908 46.6768C35.2942 46.8619 34.8744 47.4264 34.8744 48.0663L34.8745 49.2773Z" fill="#9B643D"></path><path d="M35.8718 51.7892L36.2907 51.9476L33.7973 52.3408L34.8745 49.79V50.3477C34.8745 50.9884 35.2715 51.5623 35.8718 51.7892Z" fill="#9B643D"></path><path d="M27.4482 51.3717L27.0294 51.5301L29.5227 51.9233L28.4455 49.3726V49.9302C28.4455 50.5708 28.0485 51.1447 27.4482 51.3717Z" fill="#9B643D"></path><path d="M28.3504 44.8618C28.9979 44.8618 29.5228 44.3379 29.5228 43.6916C29.5228 43.0454 28.9979 42.5215 28.3504 42.5215C27.7029 42.5215 27.178 43.0454 27.178 43.6916C27.178 44.3379 27.7029 44.8618 28.3504 44.8618Z" fill="#F7B548"></path><path d="M40.2993 57.3569L40.33 57.4195C40.319 57.3991 40.3084 57.3785 40.2974 57.3582L40.2993 57.3569Z" fill="#605D5A"></path><path opacity="0.15" d="M40.2993 57.3569L40.33 57.4195C40.319 57.3991 40.3084 57.3785 40.2974 57.3582L40.2993 57.3569Z" fill="url(#paint3_radial_171:95278)"></path><path d="M95.0208 37.4316L79.8812 39.2241L82.0254 57.264L97.165 55.4715L95.0208 37.4316Z" fill="white"></path><path d="M81.6614 54.1219C80.7411 55.5419 79.1872 56.1652 77.1843 56.9671L75.7558 55.8923C75.7558 55.8923 77.3308 51.5237 78.6494 50.0688C78.6568 50.0578 80.7921 47.5793 81.1658 47.1149C81.7519 46.3948 82.3268 46.9468 82.4001 47.3892C82.4184 47.4915 81.2436 50.6063 81.2436 50.6063L81.6614 54.1219Z" fill="#9B643D"></path><path d="M92.4815 41.9613L83.4119 43.0352L83.559 44.2729L92.6286 43.1991L92.4815 41.9613Z" fill="#E1DFDD"></path><path d="M92.8739 45.2621L83.8043 46.3359L83.9514 47.5737L93.021 46.4999L92.8739 45.2621Z" fill="#E1DFDD"></path><path d="M90.8064 49.2666L84.2448 50.0435L84.3919 51.2812L90.9535 50.5043L90.8064 49.2666Z" fill="#E1DFDD"></path><path d="M105.177 18.0433V18.4633C105.177 24.8444 99.9946 30.0163 93.6013 30.0163H91.1865C87.2415 30.0163 83.7587 28.0476 81.6702 25.0406C80.3722 23.174 79.6112 20.9089 79.6112 18.4633V18.0432C79.6112 15.4916 80.4391 13.1344 81.8413 11.2245C83.9476 8.35296 87.3496 6.49023 91.1866 6.49023H93.6014C99.9947 6.4903 105.177 11.6622 105.177 18.0433Z" fill="white"></path><path d="M94.1432 14.4551H90.7879V22.7827H94.1432V14.4551Z" fill="#E0BB95"></path><path d="M87.4121 20.2317H97.5194C96.141 19.3664 94.5095 18.8662 92.7603 18.8662H92.1713C90.4221 18.8661 88.7913 19.3664 87.4121 20.2317Z" fill="#E0BB95"></path><path opacity="0.15" d="M90.7879 22.7827H94.1431V14.4551H90.7879V22.7827Z" fill="url(#paint4_linear_171:95278)"></path><path d="M101.657 26.7629C99.9215 28.4432 97.6508 29.5807 95.121 29.9082C94.6289 29.9771 94.1195 30.0116 93.6015 30.0116H91.184C90.7177 30.0116 90.2515 29.9857 89.8025 29.9254C87.2901 29.6324 85.0193 28.5294 83.2667 26.8835C83.5257 24.3586 84.838 22.144 86.7548 20.6877C86.9706 20.5239 87.1865 20.3688 87.4109 20.231H97.5212C97.8666 20.4464 98.1947 20.6877 98.5055 20.9462C100.215 22.3767 101.381 24.4276 101.657 26.7629Z" fill="#8B8CC4"></path><path d="M95.1208 29.9084V19.1455C95.164 19.1541 95.2071 19.1714 95.2417 19.18C95.4056 19.2231 95.5611 19.2748 95.7165 19.3265C95.7942 19.3437 95.8719 19.3696 95.941 19.404C96.0964 19.4557 96.2518 19.5161 96.3986 19.585C96.5886 19.6625 96.7785 19.7487 96.9684 19.8521C97.1411 19.9383 97.3138 20.0331 97.4778 20.1365C97.97 20.4209 98.4276 20.7569 98.842 21.1447C100.413 22.5321 101.484 24.471 101.76 26.6598C101.734 26.6856 99.4453 29.3686 95.1208 29.9084Z" fill="#F7B548"></path><path d="M89.8022 19.1455V29.9257C87.2898 29.6328 85.0191 28.5297 83.2664 26.8838C82.6753 27.0054 83.18 26.8063 83.1455 26.7718C83.1455 26.7546 83.1541 26.7029 83.1541 26.7029C83.4995 23.9109 85.1399 21.5153 87.4452 20.1365C87.6438 20.0159 87.8423 19.9038 88.0409 19.809C88.1877 19.7315 88.3345 19.6625 88.4899 19.6022C88.913 19.4126 89.3533 19.2575 89.8022 19.1455Z" fill="#F7B548"></path><path d="M87.9698 7.47838H97.2872L97.9606 7.07781L97.2872 6.67725H87.9698C87.8081 6.67725 87.6757 6.85751 87.6757 7.07781C87.6757 7.29818 87.8082 7.47838 87.9698 7.47838Z" fill="#F7B548"></path><path d="M92.554 9.19074C94.1087 9.19074 95.3691 7.93278 95.3691 6.38101C95.3691 4.82925 94.1087 3.57129 92.554 3.57129C90.9992 3.57129 89.7388 4.82925 89.7388 6.38101C89.7388 7.93278 90.9992 9.19074 92.554 9.19074Z" fill="#594539"></path><path opacity="0.15" d="M92.554 9.19074C94.1087 9.19074 95.3691 7.93278 95.3691 6.38101C95.3691 4.82925 94.1087 3.57129 92.554 3.57129C90.9992 3.57129 89.7388 4.82925 89.7388 6.38101C89.7388 7.93278 90.9992 9.19074 92.554 9.19074Z" fill="url(#paint5_linear_171:95278)"></path><path d="M87.0306 12.4551C87.0306 15.4979 89.5047 17.9672 92.5533 17.9672C95.6056 17.9672 98.0762 15.4978 98.0762 12.4551C98.0762 12.1948 98.0586 11.9414 98.0233 11.6918C98.0162 11.639 98.0093 11.5862 97.9987 11.537C97.5652 8.92692 95.292 6.93945 92.5535 6.93945C91.8698 6.93945 91.2177 7.0626 90.6116 7.29123C90.601 7.29478 90.5939 7.29832 90.5834 7.30187C90.2274 7.43557 89.8891 7.61139 89.5754 7.8155C89.5719 7.8155 89.5649 7.81904 89.5614 7.82259C88.2326 8.67737 87.2987 10.0809 87.0837 11.7202C87.0801 11.7448 87.0766 11.7658 87.073 11.7905C87.0446 12.0083 87.0306 12.2299 87.0306 12.4551Z" fill="#594539"></path><path d="M92.554 18.1352C94.9011 18.1352 96.8038 16.2361 96.8038 13.8935C96.8038 11.5509 94.9011 9.65186 92.554 9.65186C90.2069 9.65186 88.3041 11.5509 88.3041 13.8935C88.3041 16.2361 90.2069 18.1352 92.554 18.1352Z" fill="#E0BB95"></path><path d="M90.6737 15.3748C90.8908 15.3748 91.0667 15.0638 91.0667 14.6801C91.0667 14.2964 90.8908 13.9854 90.6737 13.9854C90.4567 13.9854 90.2808 14.2964 90.2808 14.6801C90.2808 15.0638 90.4567 15.3748 90.6737 15.3748Z" fill="#33312D"></path><path d="M94.4398 16.0378C93.5069 16.0378 92.748 15.2804 92.748 14.3492C92.748 13.4181 93.5069 12.6606 94.4398 12.6606C95.3728 12.6606 96.1316 13.4181 96.1316 14.3492C96.1316 15.2804 95.3728 16.0378 94.4398 16.0378ZM94.4398 13.1093C93.7547 13.1093 93.1974 13.6656 93.1974 14.3494C93.1974 15.0331 93.7547 15.5894 94.4398 15.5894C95.1249 15.5894 95.6822 15.0331 95.6822 14.3494C95.6822 13.6656 95.1249 13.1093 94.4398 13.1093Z" fill="#9B643D"></path><path d="M90.754 16.0378C89.821 16.0378 89.0622 15.2804 89.0622 14.3492C89.0622 13.4181 89.8211 12.6606 90.754 12.6606C91.687 12.6606 92.4458 13.4181 92.4458 14.3492C92.4458 15.2804 91.6869 16.0378 90.754 16.0378ZM90.754 13.1093C90.069 13.1093 89.5116 13.6656 89.5116 14.3494C89.5116 15.0331 90.069 15.5894 90.754 15.5894C91.4391 15.5894 91.9964 15.0331 91.9964 14.3494C91.9963 13.6655 91.439 13.1093 90.754 13.1093Z" fill="#9B643D"></path><path d="M93.0378 13.6924H92.1559V14.1418H93.0378V13.6924Z" fill="#9B643D"></path><path d="M90.3226 10.2712C91.2495 11.7767 92.913 12.7793 94.8127 12.7793C96.0075 12.7793 97.1141 12.3818 97.9988 11.7064C97.5653 9.09635 95.292 7.10889 92.5535 7.10889C91.8698 7.10889 91.2177 7.23203 90.6115 7.46067C90.6644 7.74914 90.689 8.0481 90.689 8.35068C90.6891 9.02596 90.5588 9.67663 90.3226 10.2712Z" fill="#594539"></path><path d="M94.1535 15.3748C94.3705 15.3748 94.5465 15.0638 94.5465 14.6801C94.5465 14.2964 94.3705 13.9854 94.1535 13.9854C93.9364 13.9854 93.7605 14.2964 93.7605 14.6801C93.7605 15.0638 93.9364 15.3748 94.1535 15.3748Z" fill="#33312D"></path><path d="M87.0837 11.8886C87.1225 12.3564 87.2247 12.8067 87.3797 13.2288C88.7226 12.6906 89.794 11.6177 90.3227 10.2704C89.9103 9.59497 89.6424 8.81761 89.5755 7.98389C89.5719 7.98389 89.565 7.98743 89.5614 7.99098C88.2327 8.84576 87.2987 10.2493 87.0837 11.8886Z" fill="#594539"></path><path d="M87.0837 11.8886C87.1225 12.3564 87.2247 12.8067 87.3797 13.2288C88.7226 12.6906 89.794 11.6177 90.3227 10.2704C89.9103 9.59497 89.6424 8.81761 89.5755 7.98389C89.5719 7.98389 89.565 7.98743 89.5614 7.99098C88.2327 8.84576 87.2987 10.2493 87.0837 11.8886Z" fill="url(#paint6_radial_171:95278)"></path><g opacity="0.8"><path opacity="0.8" d="M91.5875 16.1748C91.8486 16.3074 92.0161 16.3758 92.2292 16.4006C92.3289 16.4304 92.4332 16.4333 92.5386 16.44C92.6462 16.4488 92.751 16.4469 92.8871 16.4369L92.925 16.4341C93.0099 16.4279 93.0837 16.4914 93.0899 16.576C93.0919 16.6032 93.0862 16.6298 93.0755 16.6528C92.9915 16.8302 92.8215 16.9425 92.647 17.0049C92.4693 17.0652 92.2803 17.063 92.0979 17.0347C91.7469 16.9479 91.3924 16.6664 91.3771 16.2889C91.3741 16.216 91.431 16.1544 91.5041 16.1515C91.5275 16.1505 91.5495 16.1557 91.569 16.1655L91.5875 16.1748Z" fill="#9B643D"></path></g><path d="M94.0428 38.5767C92.1408 39.3102 91.5713 40.3216 91.2713 40.8253C91.2691 40.8294 91.2671 40.834 91.264 40.8378C91.1572 41.0302 91.4149 41.2441 91.5745 41.0973L92.1897 40.5286L91.1335 42.3492C91.0393 42.5304 91.1931 42.7575 91.3942 42.7351C91.8421 42.6871 92.9159 42.1322 93.4554 41.4943C94.0159 40.8322 94.5537 39.2305 94.5537 39.2305L94.0428 38.5767Z" fill="#E0BB95"></path><path d="M101 23.9565C101 23.9565 104.711 30.0123 101.633 35.1878C98.9196 39.7484 95.9186 40.7655 95.9186 40.7655L93.763 38.6909C93.763 38.6909 96.1344 37.1215 97.0908 33.2322C97.8176 30.2769 96.4701 26.6838 96.4701 26.6838L101 23.9565Z" fill="#F7B548"></path><path d="M229.405 135.43H110.924C110.317 135.43 109.825 134.939 109.825 134.333V113.096C109.825 112.491 110.317 112 110.924 112H229.405C230.012 112 230.504 112.49 230.504 113.096V134.333C230.504 134.939 230.012 135.43 229.405 135.43Z" fill="white"></path><path d="M157.428 117.662H117.516V121.754H157.428V117.662Z" fill="#D2D0CE"></path><path d="M204.314 126.553H117.516V130.644H204.314V126.553Z" fill="#F3F2F1"></path><path d="M96.8512 129.372V135.016C96.5949 135.093 96.3311 135.159 96.0674 135.214C95.9356 135.243 95.8037 135.269 95.6682 135.294C95.5217 135.32 95.3715 135.345 95.2214 135.367C95.1116 135.382 95.0053 135.393 94.8954 135.408C94.4706 135.452 94.0384 135.477 93.6024 135.477H91.185C88.4269 135.477 85.8923 134.516 83.907 132.911C83.8045 126.341 88.2071 124.115 88.2071 124.115V124.119C89.0203 123.698 89.9433 123.457 90.9249 123.457C94.1994 123.457 96.8512 126.104 96.8512 129.372Z" fill="#C3C3E1"></path><path d="M114.486 115.311L112.124 115.646C111.824 115.689 111.547 115.481 111.504 115.182L111.193 113.005C111.151 112.706 111.359 112.429 111.659 112.386L114.021 112.05C114.32 112.008 114.598 112.216 114.64 112.515L114.951 114.692C114.994 114.991 114.786 115.268 114.486 115.311Z" fill="#9B643D"></path><path d="M114.71 112.93L113.466 113.107C113.201 113.145 112.955 112.961 112.917 112.696C112.88 112.432 113.064 112.187 113.329 112.149L114.573 111.972C114.838 111.935 115.084 112.118 115.121 112.383C115.159 112.648 114.975 112.892 114.71 112.93Z" fill="#9B643D"></path><path d="M114.749 113.883L113.504 114.06C113.239 114.097 112.994 113.913 112.956 113.649C112.918 113.384 113.103 113.139 113.368 113.102L114.612 112.925C114.877 112.887 115.122 113.071 115.16 113.336C115.198 113.6 115.014 113.845 114.749 113.883Z" fill="#9B643D"></path><path d="M112.22 110.765L112.25 110.821L112.273 110.866C112.287 110.896 112.3 110.924 112.312 110.953C112.337 111.01 112.356 111.066 112.377 111.123C112.411 111.237 112.444 111.351 112.463 111.467C112.503 111.699 112.517 111.935 112.499 112.168C112.497 112.226 112.487 112.284 112.481 112.342C112.474 112.4 112.466 112.457 112.453 112.514C112.442 112.571 112.43 112.628 112.418 112.685L112.37 112.851C112.353 112.907 112.336 112.962 112.314 113.015C112.293 113.068 112.275 113.122 112.25 113.174C112.227 113.227 112.187 113.271 112.141 113.313C112.095 113.354 112.04 113.39 111.964 113.414C111.704 113.496 111.429 113.378 111.305 113.146L111.268 113.077C111.199 112.947 111.199 112.859 111.215 112.777C111.233 112.698 111.266 112.622 111.28 112.543L111.309 112.426C111.316 112.387 111.323 112.347 111.331 112.308C111.34 112.269 111.344 112.23 111.349 112.191C111.354 112.152 111.363 112.112 111.365 112.073C111.382 111.916 111.385 111.758 111.379 111.601C111.376 111.522 111.372 111.444 111.362 111.367C111.358 111.33 111.355 111.29 111.349 111.255L111.341 111.202L111.338 111.178C111.338 111.172 111.336 111.161 111.34 111.166C111.229 110.924 111.336 110.637 111.579 110.526C111.822 110.415 112.109 110.522 112.22 110.765Z" fill="#9B643D"></path><path d="M112.761 116.102C112.761 116.102 111.148 123.437 106.227 127.412C102.687 130.273 97.7609 131.077 95.3428 131.465C95.6461 129.777 93.1481 123.656 93.1481 123.656C93.1481 123.656 99.324 123.901 103.474 121.787C107.671 119.65 111.419 114.58 111.419 114.58L112.761 116.102Z" fill="#C3C3E1"></path><path d="M81.2855 114.051C81.2893 114.049 81.2893 114.049 81.2893 114.049C81.2876 114.046 81.2859 114.042 81.2859 114.042C81.2841 114.038 81.2823 114.035 81.2807 114.031C80.9899 113.41 81.1907 112.69 81.7229 112.294C81.1308 111.997 80.8126 111.317 80.9918 110.656C81.1727 109.999 81.7895 109.572 82.4499 109.613C82.1879 109.005 82.3816 108.279 82.9445 107.891C83.5093 107.498 84.2564 107.57 84.7332 108.024C84.9247 107.389 85.5395 106.958 86.2232 107.02C86.9068 107.081 87.4309 107.616 87.5081 108.269C88.0611 107.908 88.8083 107.971 89.2938 108.452C89.7771 108.938 89.8373 109.689 89.4758 110.239C90.1298 110.314 90.665 110.843 90.7233 111.524C90.7833 112.207 90.3474 112.818 89.7135 113.006C90.1662 113.485 90.2373 114.23 89.8461 114.793C89.4497 115.354 88.7227 115.546 88.1155 115.283C88.1512 115.857 87.8278 116.402 87.3013 116.648C87.2276 116.682 87.1468 116.711 87.0683 116.734C86.4036 116.915 85.7231 116.591 85.4259 116.005C85.0339 116.528 84.307 116.728 83.6875 116.44C83.0643 116.153 82.7497 115.472 82.9011 114.828C82.2589 114.98 81.5745 114.668 81.2855 114.051Z" fill="#E0BB95"></path><path d="M81.2855 114.051C81.2893 114.049 81.2893 114.049 81.2893 114.049C81.2876 114.046 81.2859 114.042 81.2859 114.042C81.2841 114.038 81.2823 114.035 81.2807 114.031C80.9899 113.41 81.1907 112.69 81.7229 112.294C81.1308 111.997 80.8126 111.317 80.9918 110.656C81.1727 109.999 81.7895 109.572 82.4499 109.613C82.1879 109.005 82.3816 108.279 82.9445 107.891C83.5093 107.498 84.2564 107.57 84.7332 108.024C84.9247 107.389 85.5395 106.958 86.2232 107.02C86.9068 107.081 87.4309 107.616 87.5081 108.269C88.0611 107.908 88.8083 107.971 89.2938 108.452C89.7771 108.938 89.8373 109.689 89.4758 110.239C90.1298 110.314 90.665 110.843 90.7233 111.524C90.7833 112.207 90.3474 112.818 89.7135 113.006C90.1662 113.485 90.2373 114.23 89.8461 114.793C89.4497 115.354 88.7227 115.546 88.1155 115.283C88.1512 115.857 87.8278 116.402 87.3013 116.648C87.2276 116.682 87.1468 116.711 87.0683 116.734C86.4036 116.915 85.7231 116.591 85.4259 116.005C85.0339 116.528 84.307 116.728 83.6875 116.44C83.0643 116.153 82.7497 115.472 82.9011 114.828C82.2589 114.98 81.5745 114.668 81.2855 114.051Z" fill="url(#paint7_radial_171:95278)"></path><path d="M91.9392 120.866L91.5688 120.927C88.7876 121.384 86.162 119.504 85.7044 116.728L85.6434 116.359C85.197 113.651 87.0341 111.095 89.7466 110.65L90.2412 110.569C92.9537 110.123 95.5146 111.957 95.961 114.664L96.0424 115.158C96.4888 117.865 94.6517 120.421 91.9392 120.866Z" fill="#E0BB95"></path><path d="M88.2055 124.115C88.2055 124.115 88.8984 125.298 91.4814 124.945C93.9083 124.614 94.2636 123.666 94.2636 123.666C94.2636 123.666 93.5278 123.65 93.1483 123.656C92.4328 123.666 92.3125 122.799 92.3002 122.429L92.3049 120.041L88.6304 119.551C88.6304 119.551 89.4346 121.587 89.0729 123.424C88.9917 123.835 88.2055 124.115 88.2055 124.115Z" fill="url(#paint8_radial_171:95278)"></path><path d="M93.2581 121.932L92.9527 121.982C90.6044 122.368 88.3875 120.781 88.001 118.437L87.769 117.031C87.3924 114.747 88.9421 112.591 91.2301 112.215L91.9512 112.097C93.8803 111.78 95.7017 113.084 96.0192 115.009L96.4325 117.515C96.778 119.61 95.3568 121.587 93.2581 121.932Z" fill="#9B643D"></path><path d="M95.1332 115.095L95.8229 119.38L93.451 119.621L92.8168 115.775L95.1332 115.095Z" fill="url(#paint9_radial_171:95278)"></path><path d="M87.7971 116.888C87.0191 116.981 86.464 117.686 86.5573 118.462C86.6506 119.239 87.3568 119.793 88.1348 119.7L88.6092 119.643L87.7971 116.888Z" fill="#9B643D"></path><g opacity="0.7"><path opacity="0.7" d="M90.6309 117.481C90.6313 117.166 90.8514 116.854 91.2122 116.748C91.3788 116.714 91.5721 116.712 91.7371 116.801C91.9014 116.89 92.0113 117.027 92.0489 117.2C92.0618 117.26 92.0236 117.32 91.9633 117.333C91.936 117.339 91.9087 117.334 91.886 117.321L91.8507 117.302C91.6476 117.19 91.5093 117.169 91.3384 117.227C91.1829 117.25 91.0381 117.394 90.855 117.556L90.835 117.573C90.7842 117.618 90.7066 117.613 90.6616 117.562C90.6412 117.539 90.6309 117.51 90.6309 117.481Z" fill="#231F20"></path></g><g opacity="0.7"><path opacity="0.7" d="M94.0238 116.917C94.0242 116.602 94.2442 116.291 94.6051 116.184C94.7715 116.15 94.9648 116.148 95.1299 116.237C95.2942 116.326 95.4043 116.463 95.4417 116.636C95.4547 116.696 95.4164 116.756 95.3561 116.769C95.3288 116.775 95.3016 116.77 95.2789 116.757L95.2436 116.738C95.0404 116.626 94.9022 116.605 94.7312 116.663C94.5757 116.686 94.4309 116.83 94.2477 116.992L94.2278 117.009C94.1769 117.054 94.0994 117.049 94.0544 116.999C94.0338 116.975 94.0238 116.946 94.0238 116.917Z" fill="#231F20"></path></g><path d="M92.2317 117.949C92.354 118.292 93.3466 118.986 93.3466 118.986C93.3466 118.986 93.3175 118.693 93.6177 118.539C94.1012 118.289 94.27 117.68 94.0085 117.204C93.8151 116.851 93.5908 116.777 93.2362 116.648C92.9192 116.532 92.8643 116.102 92.8643 116.102C92.8643 116.102 91.9101 117.048 92.2317 117.949Z" fill="#9B643D"></path><path d="M93.6406 119.473C93.7618 119.483 93.8481 119.603 93.8105 119.718C93.6686 120.155 93.2387 120.451 92.7608 120.412C92.2866 120.372 91.9123 120.008 91.8448 119.555C91.8269 119.435 91.932 119.331 92.0531 119.341L93.6406 119.473Z" fill="#6D3713"></path><path d="M88.8982 115.001C89.6276 115.001 90.2189 114.41 90.2189 113.682C90.2189 112.954 89.6276 112.364 88.8982 112.364C88.1688 112.364 87.5775 112.954 87.5775 113.682C87.5775 114.41 88.1688 115.001 88.8982 115.001Z" fill="#E0BB95"></path><path d="M87.7506 116.903C88.3845 116.903 88.8983 116.391 88.8983 115.758C88.8983 115.125 88.3845 114.612 87.7506 114.612C87.1167 114.612 86.6028 115.125 86.6028 115.758C86.6028 116.391 87.1167 116.903 87.7506 116.903Z" fill="#E0BB95"></path><path d="M93.7503 119.515C93.5423 119.695 93.1258 119.777 92.6683 119.704C92.3589 119.655 92.087 119.543 91.8991 119.403C91.9335 119.36 91.9921 119.338 92.0538 119.341L93.6398 119.473C93.6806 119.476 93.7194 119.492 93.7503 119.515Z" fill="white"></path><path d="M219.223 117.67C219.755 117.819 220.259 118.032 220.734 118.31C221.201 118.584 221.625 118.912 222.006 119.292C222.388 119.674 222.716 120.097 222.991 120.562C223.27 121.037 223.484 121.539 223.632 122.07C223.78 122.601 223.854 123.15 223.854 123.716C223.854 124.299 223.785 124.856 223.645 125.387C223.475 126.048 223.224 126.571 222.893 126.954C222.496 127.415 222.008 127.646 221.428 127.646C221.135 127.646 220.853 127.597 220.581 127.499C220.308 127.401 220.069 127.261 219.864 127.078C219.668 126.908 219.515 126.71 219.406 126.484C219.297 126.257 219.243 126.011 219.243 125.746C219.243 125.672 219.245 125.617 219.249 125.583C219.027 125.787 218.769 125.945 218.478 126.056C218.185 126.167 217.887 126.222 217.581 126.222C217.245 126.222 216.926 126.157 216.623 126.027C216.32 125.896 216.051 125.713 215.816 125.478C215.58 125.243 215.397 124.974 215.266 124.672C215.135 124.369 215.07 124.051 215.07 123.716C215.07 123.381 215.135 123.06 215.266 122.756C215.397 122.451 215.58 122.181 215.816 121.946C216.051 121.711 216.32 121.53 216.623 121.401C216.926 121.273 217.245 121.209 217.581 121.209C217.887 121.209 218.185 121.264 218.478 121.375C218.769 121.486 219.027 121.644 219.249 121.849V121.574C219.249 121.383 219.271 121.244 219.315 121.156C219.38 121.026 219.498 120.961 219.668 120.961C219.781 120.961 219.879 121.002 219.963 121.084C220.045 121.167 220.086 121.265 220.086 121.379V125.667C220.086 125.846 220.124 126.007 220.198 126.15C220.272 126.294 220.374 126.416 220.505 126.516C220.627 126.612 220.769 126.685 220.931 126.735C221.092 126.785 221.258 126.81 221.428 126.81C221.811 126.81 222.134 126.612 222.396 126.216C222.609 125.894 222.773 125.465 222.886 124.93C222.974 124.525 223.017 124.12 223.017 123.715C223.017 123.228 222.953 122.754 222.824 122.292C222.695 121.831 222.511 121.394 222.272 120.98C222.032 120.58 221.746 120.214 221.415 119.883C221.083 119.553 220.717 119.267 220.316 119.028C219.902 118.789 219.463 118.605 219.001 118.477C218.539 118.348 218.064 118.284 217.575 118.284C217.087 118.284 216.611 118.348 216.149 118.477C215.687 118.605 215.251 118.789 214.841 119.028C214.435 119.268 214.067 119.553 213.736 119.883C213.404 120.214 213.12 120.58 212.885 120.98C212.641 121.394 212.454 121.831 212.326 122.292C212.197 122.754 212.133 123.228 212.133 123.715C212.133 124.203 212.197 124.677 212.326 125.138C212.454 125.6 212.641 126.035 212.885 126.444C213.121 126.849 213.404 127.217 213.736 127.548C214.067 127.878 214.435 128.161 214.841 128.396C215.251 128.64 215.687 128.826 216.149 128.954C216.611 129.083 217.087 129.147 217.575 129.147C217.915 129.147 218.241 129.11 218.553 129.036C218.865 128.962 219.265 128.849 219.753 128.697C219.823 128.67 219.878 128.657 219.917 128.657C220.03 128.657 220.128 128.699 220.211 128.782C220.294 128.864 220.335 128.962 220.335 129.075C220.335 129.284 220.135 129.465 219.733 129.617C219.42 129.739 219.016 129.833 218.523 129.898C218.131 129.955 217.815 129.983 217.575 129.983C217.008 129.983 216.459 129.909 215.927 129.761C215.395 129.613 214.891 129.4 214.416 129.121C213.949 128.847 213.525 128.519 213.144 128.139C212.762 127.758 212.434 127.335 212.159 126.869C211.88 126.395 211.667 125.892 211.518 125.361C211.37 124.83 211.296 124.281 211.296 123.716C211.296 123.15 211.37 122.601 211.518 122.07C211.667 121.539 211.88 121.037 212.159 120.562C212.434 120.097 212.762 119.674 213.144 119.292C213.525 118.912 213.949 118.584 214.416 118.31C214.891 118.032 215.395 117.819 215.927 117.67C216.459 117.522 217.008 117.448 217.575 117.448C218.142 117.448 218.691 117.522 219.223 117.67ZM216.944 122.175C216.741 122.262 216.561 122.384 216.404 122.54C216.247 122.697 216.125 122.877 216.038 123.079C215.951 123.281 215.907 123.494 215.907 123.716C215.907 123.938 215.951 124.15 216.038 124.352C216.125 124.555 216.247 124.734 216.404 124.891C216.561 125.048 216.741 125.169 216.944 125.257C217.147 125.344 217.359 125.387 217.582 125.387C217.8 125.387 218.009 125.344 218.209 125.257C218.41 125.169 218.591 125.047 218.752 124.891C218.91 124.739 219.031 124.562 219.119 124.362C219.206 124.162 219.249 123.951 219.249 123.729C219.249 123.502 219.207 123.287 219.122 123.082C219.037 122.878 218.918 122.697 218.765 122.541C218.613 122.384 218.434 122.262 218.229 122.175C218.024 122.088 217.808 122.044 217.582 122.044C217.359 122.044 217.147 122.088 216.944 122.175Z" fill="#F7B548"></path><defs><linearGradient id="paint0_linear_171:95278" x1="87.869" y1="99.8427" x2="91.9677" y2="86.3152" gradientUnits="userSpaceOnUse"><stop offset="0.3299" stop-color="#4B4C75"></stop><stop offset="0.6649" stop-color="#696A9B" stop-opacity="0.4996"></stop><stop offset="0.9994" stop-color="#8B8CC4" stop-opacity="0"></stop></linearGradient><linearGradient id="paint1_linear_171:95278" x1="14.346" y1="52.0506" x2="35.8878" y2="52.0506" gradientUnits="userSpaceOnUse"><stop stop-color="#9B643D"></stop><stop offset="0.3215" stop-color="#B78763" stop-opacity="0.6785"></stop><stop offset="1" stop-color="#FADCBD" stop-opacity="0"></stop></linearGradient><linearGradient id="paint2_linear_171:95278" x1="33.9643" y1="88.9448" x2="50.125" y2="66.876" gradientUnits="userSpaceOnUse"><stop stop-color="#33312D"></stop><stop offset="1" stop-color="#605D5A"></stop></linearGradient><radialGradient id="paint3_radial_171:95278" cx="0" cy="0" r="1" gradientUnits="userSpaceOnUse" gradientTransform="translate(41.7184 82.2907) rotate(180) scale(14.1198 14.118)"><stop offset="0.3127" stop-color="#33312D"></stop><stop offset="0.9062" stop-color="#595653" stop-opacity="0.1365"></stop><stop offset="1" stop-color="#5F5C59" stop-opacity="0"></stop></radialGradient><linearGradient id="paint4_linear_171:95278" x1="92.4655" y1="20.8855" x2="92.4655" y2="15.6597" gradientUnits="userSpaceOnUse"><stop stop-color="white" stop-opacity="0"></stop><stop offset="0.2641" stop-color="#A6A4A4" stop-opacity="0.3842"></stop><stop offset="0.5557" stop-color="#484546" stop-opacity="0.8085"></stop><stop offset="0.6873" stop-color="#231F20"></stop></linearGradient><linearGradient id="paint5_linear_171:95278" x1="92.554" y1="2.904" x2="92.554" y2="10.9685" gradientUnits="userSpaceOnUse"><stop stop-color="white" stop-opacity="0"></stop><stop offset="0.2641" stop-color="#A6A4A4" stop-opacity="0.3842"></stop><stop offset="0.5557" stop-color="#484546" stop-opacity="0.8085"></stop><stop offset="0.6873" stop-color="#231F20"></stop></linearGradient><radialGradient id="paint6_radial_171:95278" cx="0" cy="0" r="1" gradientUnits="userSpaceOnUse" gradientTransform="translate(90.6769 10.1709) rotate(180) scale(2.60062 2.59561)"><stop stop-color="#33312D"></stop><stop offset="0.9997" stop-color="#33312D" stop-opacity="0"></stop></radialGradient><radialGradient id="paint7_radial_171:95278" cx="0" cy="0" r="1" gradientUnits="userSpaceOnUse" gradientTransform="translate(89.6188 114.974) scale(5.56392 5.55322)"><stop stop-color="#591C17"></stop><stop offset="0.5455" stop-color="#7B422B" stop-opacity="0.4543"></stop><stop offset="0.9997" stop-color="#9B643D" stop-opacity="0"></stop></radialGradient><radialGradient id="paint8_radial_171:95278" cx="0" cy="0" r="1" gradientUnits="userSpaceOnUse" gradientTransform="translate(92.0737 120.313) scale(2.88581 2.88025)"><stop stop-color="#591C17"></stop><stop offset="0.5453" stop-color="#7B422B"></stop><stop offset="0.9994" stop-color="#9B643D"></stop></radialGradient><radialGradient id="paint9_radial_171:95278" cx="0" cy="0" r="1" gradientUnits="userSpaceOnUse" gradientTransform="translate(93.2949 117.867) rotate(-9.32881) scale(2.13346 2.0251)"><stop stop-color="#591C17"></stop><stop offset="0.5455" stop-color="#7B422B" stop-opacity="0.4543"></stop><stop offset="0.9997" stop-color="#9B643D" stop-opacity="0"></stop></radialGradient></defs></svg>