<?xml version="1.0" encoding="UTF-8"?>
<svg width="120px" height="120px" viewBox="0 0 120 120" version="1.1" xmlns="http://www.w3.org/2000/svg" xmlns:xlink="http://www.w3.org/1999/xlink">
    <title>illustration_folder</title>
    <defs>
        <radialGradient cx="50.00328%" cy="50.0025079%" fx="50.00328%" fy="50.0025079%" r="53.4972799%" gradientTransform="translate(0.500033,0.500025),scale(0.876106,1.000000),translate(-0.500033,-0.500025)" id="radialGradient-1">
            <stop stop-color="#B2AEAA" offset="0%"></stop>
            <stop stop-color="#C7C5C3" offset="100%"></stop>
        </radialGradient>
    </defs>
    <g id="illustration_folder" stroke="none" stroke-width="1" fill="none" fill-rule="evenodd">
        <g id="Folder-/-Basic-/-General-/-Light">
            <g id="Group" transform="translate(5.250000, 5.250000)">
                <path d="M84.672261,107.357136 L75.5698473,56.6512273 C75.1070127,54.7099597 73.5642307,53.1569456 71.6357532,52.7686921 L26.5093802,46.3236838 L26.2008238,45.0812726 L25.2751546,41.586991 C24.81232,40.1116276 23.5780944,39.0245178 22.1124515,38.7915657 L15.9413236,38.0150587 L2.67339852,36.0737911 C1.51631203,35.7631883 0.359225542,36.4620446 0.0506691451,37.6268051 C-0.0264699541,38.0927094 -0.0264699541,38.4809629 0.127808244,38.9468671 L2.28770302,48.2649514 L11.0815603,96.8742911 C11.3129776,97.961401 11.9300904,98.9708601 12.7786205,99.6697164 C13.3957333,100.213271 14.1671243,100.601525 15.0156544,100.679176 L81.586697,110.230212 C82.4352271,110.307863 83.2837572,110.152561 84.0551482,109.841958 C84.5951219,109.220753 84.9036783,108.288944 84.672261,107.357136 Z" id="📂-Folder---Back-Flap" fill="url(#radialGradient-1)" fill-rule="nonzero"></path>
                <g id="Folder-/-Prop-/-Generic-/-Light" transform="translate(31.500000, 0.000000)" fill="#E1DFDD" fill-rule="nonzero">
                    <path d="M45.4732773,0 L0,24.4937656 C0,24.4937656 10.6136454,59.6259352 33.9028462,78 L75.8827434,53.0573566 C75.8827434,53.0573566 56.0498379,39.2319202 45.4732773,0 Z" id="📄-Paper"></path>
                </g>
                <path d="M103.37412,61.4449131 L75.3925243,57.4703978 L35.7194543,51.7813857 C33.692932,51.5475906 31.8222961,52.6386341 30.8869782,54.4310625 L11.5570737,96.8258926 C11.0894147,97.683141 11.1673579,98.6962528 11.71296,99.4755695 C12.3365053,100.021091 13.115937,100.41075 13.9733118,100.566613 L81.2382616,110.23014 C82.0956364,110.308072 82.9530112,110.152209 83.7324428,109.840482 C84.7457039,109.372892 85.6030787,108.593575 86.0707377,107.580463 L105.400642,65.1856334 C106.102131,64.0166583 105.712415,62.5359565 104.543267,61.8345715 C104.153552,61.6007765 103.763836,61.5228448 103.37412,61.4449131 Z" id="📂-Folder---Front-Flap" fill="#C7C5C3" fill-rule="nonzero"></path>
            </g>
        </g>
    </g>
</svg>