<svg width="490" height="280" fill="none" xmlns="http://www.w3.org/2000/svg"><path d="M59.026 261.08c19.072.151 44.652-9.384 51.009-26.79.757-2.271 2.27-4.238 4.237-5.449l15.742-9.687c1.665-1.06 1.211-3.482-.757-3.784l-9.535-1.968c-3.33-.757-5.752-3.784-6.055-7.417-.151-1.059-.151-2.119-.302-3.33-4.087-31.936-40.716-43.137-66.901-39.656-26.186 3.33-49.343 26.64-45.71 54.338 3.48 28.759 31.785 43.592 58.273 43.743ZM429.1 246.55c-18.163-.757-45.257-11.504-49.949-34.208-.454-2.27-2.119-3.935-3.935-5.146l-13.471-7.719c-1.514-.908-1.06-3.33.605-3.633l9.082-1.816c3.179-.605 5.449-3.481 5.752-6.962.151-1.06.151-2.12.302-3.179 4.541-23.764 38.597-33.753 63.571-30.575 24.975 3.179 51.614 25.429 48.284 51.614-3.481 27.396-27.396 43.137-60.241 41.624ZM192.687 24.158l-4.6 2.63 128.305 224.448 4.599-2.629L192.687 24.158Z" fill="#E4EEF9"/><path d="M191.466 34.95a7.265 7.265 0 1 0 0-14.531 7.265 7.265 0 0 0 0 14.53ZM318.456 257.145a7.266 7.266 0 1 0 0-14.531 7.266 7.266 0 0 0 0 14.531Z" fill="#E4EEF9"/><path d="M255.037 224.905c47.481 0 85.972-38.491 85.972-85.972 0-47.48-38.491-85.972-85.972-85.972-47.482 0-85.972 38.491-85.972 85.972 0 47.481 38.49 85.972 85.972 85.972Z" fill="#A9C9EA"/><path d="M296.509 224.754c-20.131 9.838-42.683 12.26-64.782 6.811-29.515-7.265-53.43-27.547-65.69-56.306-6.205-14.53-8.476-30.423-6.962-46.013 2.876-27.699 16.8-51.916 38.445-67.809l15.136-9.233c1.967-.908 3.935-1.816 5.903-2.573 4.389-1.816 6.054-6.962 3.632-10.898-1.967-3.178-5.902-4.54-9.384-3.027-12.714 5.146-24.823 12.714-35.569 23.158-31.483 29.97-42.381 76.134-27.396 116.85 15.136 41.472 50.402 67.052 88.696 72.652l.152 10.595c-22.855 1.514-42.835 7.871-55.549 17.558-1.211 1.513-1.211 3.481.303 3.481h128.049c2.422 0 3.331-3.027 1.363-4.389-13.32-9.082-34.359-15.59-56.457-16.65v-9.384c19.071-.303 38.294-5.449 55.7-16.044 5.146-3.179 9.99-6.509 14.379-10.293l.151-.151c4.995-4.389 2.725-12.714-3.632-14.228-1.514-.303-4.087.908-5.146 1.817-2.422 2.119-3.633 3.027-6.206 4.994" fill="#E4EEF9"/><path d="M254.886 224.754c47.481 0 85.972-38.491 85.972-85.972 0-47.481-38.491-85.972-85.972-85.972-47.482 0-85.973 38.49-85.973 85.972 0 47.481 38.491 85.972 85.973 85.972Z" fill="#A9C9EA"/><path d="M332.836 102.607c20.13 42.986 1.513 94.297-41.624 114.276-42.986 20.131-94.146 1.363-114.277-41.623-20.13-42.986-1.513-94.297 41.624-114.277 43.138-20.13 94.297-1.513 114.277 41.624Z" fill="#C6DBF1"/><g opacity=".2" fill="#80C571"><path d="M290.152 60.53c-5.146 2.42-11.655 5.145-19.223 12.562-14.076 13.622-16.346 47.83 25.278 46.77 34.509-.908 42.229 21.039 42.229 40.413 4.692-18.617 3.329-38.748-5.449-57.517-9.233-19.676-24.672-34.207-42.835-42.229ZM232.181 150.739c-15.287 7.417-36.174 24.218-45.105 6.963-5.6-10.595 8.93-23.31 25.58-36.629 10.292-8.174 8.174-27.093-4.692-35.418-5.6-3.633-12.563-3.481-19.526-1.362-20.282 24.822-25.882 59.938-11.503 90.966.152.152.152.303.303.455 13.622 5.449 29.969 1.362 39.959 1.665 27.093 1.059 26.336 32.693 36.78 47.526a75.23 75.23 0 0 0 18.315-1.816c2.27-24.672 23.006-28.153 18.011-55.852-6.205-33.753-42.834-23.763-58.122-16.498ZM243.836 53.567c-.757 5.297 2.119 9.687 5.903 11.503 8.627 4.087 20.888-3.33 24.066-9.99-9.687-2.27-19.828-2.724-29.969-1.513Z"/></g><path d="M61.03 216.164c10.532 0 19.07-8.537 19.07-19.069 0-10.532-8.537-19.069-19.07-19.069-10.53 0-19.069 8.537-19.069 19.069 0 10.532 8.538 19.069 19.07 19.069Z" fill="#6CA2FF"/><path d="m48.713 241.511-17.885-19.069 20.846-4.265 18.477-17.292c5.211-4.975 13.502-4.975 18.714 0 5.448 5.093 5.685 13.621.71 19.069l-19.424 21.32c-5.804 6.159-15.634 6.277-21.438.237Z" fill="#3B5DB0"/><path d="M41.962 197.332a11.676 11.676 0 0 0-2.843-.356c-7.699 0-13.976 6.278-13.976 13.977 0 7.698 6.277 13.976 13.976 13.976 3.08 0 5.922-.948 8.172-2.724 1.659-1.185 5.567-5.093 7.58-7.225-7.461-2.369-12.791-9.357-12.91-17.648Z" fill="url(#a)"/><path fill-rule="evenodd" clip-rule="evenodd" d="M464.315 179.959c.933-.35 2.099.116 2.332 1.165 1.398 4.197 2.331 8.51 2.681 13.056.349 4.429.233 8.975-.35 13.288-.117 1.049-1.166 1.748-2.098 1.515l-42.546-7.46c.233-1.166.233-2.331.117-3.497-.117-1.166-.35-2.331-.816-3.497l34.036-12.122 6.644-2.448Zm-6.644 2.331v-.117c-2.214-6.061-5.478-11.423-9.791-16.085l-3.497-3.497c-.816-.7-1.982-.583-2.681.233l-20.981 24.595c-.35.349-.467.816-.467 1.399 0 .466.234.815.583 1.165.816.816 1.516 1.865 2.098 2.914.234.583.583 1.049.7 1.632l34.036-12.239Zm-35.785 25.411c0 .466.233.932.7 1.282l24.944 20.632c.816.699 1.982.583 2.681-.233 3.614-4.546 6.295-9.559 8.16-15.037.699-2.098 1.282-4.313 1.632-6.528l-35.669-6.178c-.116.583-.233 1.166-.466 1.866-.35 1.165-.933 2.214-1.515 3.147-.35.233-.467.583-.467 1.049Z" fill="#0358A7"/><path fill-rule="evenodd" clip-rule="evenodd" d="M466.646 181.008c-.349-.933-1.398-1.516-2.331-1.166l-40.681 14.571c.467 1.165.7 2.331.817 3.496.116 1.166 0 2.332-.117 3.497l42.546 7.46c1.049.234 1.981-.466 2.098-1.515.699-4.429.816-8.859.349-13.288-.349-4.43-1.282-8.859-2.681-13.055Z" fill="#0F78D4"/><path fill-rule="evenodd" clip-rule="evenodd" d="M420.721 187.419c-.35.349-.467.816-.467 1.398 0 .467.234.816.583 1.166.816.816 1.516 1.865 2.098 2.914.234.583.583 1.049.7 1.632l34.036-12.123v-.116c-2.214-6.061-5.478-11.423-9.791-16.086l-3.497-3.497c-.816-.699-1.982-.583-2.681.233l-20.981 24.479Z" fill="#28A8EA"/><path fill-rule="evenodd" clip-rule="evenodd" d="M422.586 208.983c-.35-.35-.583-.699-.7-1.282 0-.466.117-.933.35-1.282.699-.933 1.166-2.099 1.515-3.148.233-.582.35-1.165.466-1.865l35.669 6.178c-.35 2.215-.933 4.43-1.632 6.528-1.748 5.478-4.546 10.491-8.159 15.036-.7.816-1.865.933-2.681.234l-24.828-20.399Z" fill="#0358A7"/><path fill-rule="evenodd" clip-rule="evenodd" d="m432.26 216.093-31.006 2.681c-1.748.117-3.263-1.049-3.38-2.797l-2.681-30.54c-.116-1.632 1.166-3.147 2.798-3.264l31.006-2.681c1.748-.116 3.263 1.05 3.38 2.798l2.681 30.54c.116 1.632-1.166 3.147-2.798 3.263Z" fill="#000" fill-opacity=".01"/><path fill-rule="evenodd" clip-rule="evenodd" d="m432.26 216.093-31.006 2.681c-1.748.117-3.263-1.049-3.38-2.797l-2.681-30.54c-.116-1.632 1.166-3.147 2.798-3.264l31.006-2.681c1.748-.116 3.263 1.05 3.38 2.798l2.681 30.54c.116 1.632-1.166 3.147-2.798 3.263Z" fill="#0F78D4"/><path fill-rule="evenodd" clip-rule="evenodd" d="M414.659 197.676c.117.234.35.583.583 1.166.116-.466.233-.932.35-1.166l3.38-7.926c.233-.583.816-1.049 1.515-1.049 1.399-.117 2.332 1.282 1.749 2.564l-4.779 10.141c-.117.233-.233.583-.117.933l.466 4.896c.117.932-.699 1.864-1.632 1.864h-.349c-.933.117-1.865-.582-1.982-1.631l-.466-4.779c0-.35-.117-.583-.35-.816l-6.411-9.325c-.816-1.166 0-2.681 1.282-2.798h.35c.699 0 1.282.233 1.632.816l4.779 7.11Z" fill="#fff"/><path d="M339.193 51.296c.454 12.714 4.692 16.801 11.2 23.31 1.211 1.21 4.087 3.33 4.692 5.6l-2.422 11.654c-.302 1.211 1.06 2.12 1.968 1.211 4.541-5.297 13.774-13.925 24.672-11.503 32.845 7.265 57.668-11.806 54.187-33.753-3.633-22.855-22.402-36.024-48.587-35.116-25.882 1.06-46.467 15.44-45.71 38.597ZM125.932 60.85c-.454 12.715-4.692 16.801-11.201 23.31-1.211 1.21-4.087 3.33-4.692 5.6l2.422 11.655c.303 1.211-1.06 2.119-1.968 1.211-4.541-5.298-13.774-13.925-24.672-11.504-32.845 7.266-57.668-11.806-54.186-33.753 3.632-22.855 22.401-36.023 48.586-35.115 25.883 1.06 46.467 15.439 45.711 38.596Z" fill="#E4EEF9"/><path d="M417.515 33.9c0-.282 0-.565-.141-.847a1.104 1.104 0 0 0-.565-.565l-24.154-15.114h-.424c-.565-.283-.989-.424-1.554-.424-.565 0-1.13.141-1.553.424l-.424.283-28.392 14.831a1.1 1.1 0 0 0-.565.565c-.141.282-.283.565-.141.848 0 .282 0 .564.282.847.142.283.424.424.565.565l28.392 15.114.424.282c.565.283.989.424 1.554.424.565 0 1.13-.141 1.553-.424l.424-.282 24.154-15.114c.283-.141.424-.424.565-.565-.141-.282 0-.565 0-.847Z" fill="#123B6D"/><path d="M380.931 25.425h-17.233v15.538h17.233V25.425Z" fill="#0364B8"/><path d="M413.137 10.594V3.53c0-.847-.283-1.695-.848-2.4C411.724.423 410.877 0 409.888 0h-42.941c-.847 0-1.695.424-2.401 1.13a3.836 3.836 0 0 0-.848 2.401v7.063h49.439Z" fill="#0358A7"/><path d="M380.931 10.594h-17.233v14.831h17.233V10.594Z" fill="#0078D4"/><path d="M398.164 10.594h-17.233v14.831h17.233V10.594Z" fill="#28A8EA"/><path d="M413.137 10.594h-15.114v14.831h15.114V10.594Z" fill="#50D9FF"/><path d="M413.137 25.425h-15.114v15.538h15.114V25.425Z" fill="#28A8EA"/><path d="M398.164 25.425h-17.233v15.538h17.233V25.425Z" fill="#0078D4"/><path d="M398.164 40.963h-17.233v15.538h17.233V40.963Z" fill="#0364B8"/><path d="M380.931 40.963h-17.233v14.125h17.233V40.963Z" fill="#14447D"/><path d="M413.137 40.963h-15.114v15.538h15.114V40.963Z" fill="#0078D4"/><path opacity=".06" d="m416.668 35.313-25.143 15.114-.424.282c-.565.283-1.13.424-1.695.424-.565 0-1.13-.141-1.695-.424-.141 0-.282-.14-.423-.282l-27.262-15.114a1.1 1.1 0 0 1-.565-.565c-.141-.282-.282-.565-.282-.847V64.27c0 .424.141.989.282 1.412.141.424.424.848.847 1.13.283.283.707.565 1.272.848.424.14.989.282 1.412.282h50.569c.423 0 .988-.141 1.412-.282.424-.142.848-.424 1.271-.848.283-.282.565-.706.848-1.13.141-.424.282-.989.282-1.412V33.9c0 .283 0 .566-.141.848-.141.141-.282.424-.565.565Z" fill="#fff"/><path d="m416.668 35.313-25.143 15.114-.424.282c-.565.283-1.13.424-1.695.424-.565 0-1.13-.141-1.695-.424-.141 0-.282-.14-.423-.282l-27.262-15.114a1.1 1.1 0 0 1-.565-.565c-.141-.282-.282-.565-.282-.847V64.27c0 .424.141.989.282 1.412.141.424.424.848.847 1.13.283.283.707.565 1.272.848.424.14.989.282 1.412.282h50.569c.565 0 .988-.141 1.412-.282.424-.142.848-.424 1.271-.848.424-.424.565-.706.848-1.271.141-.424.282-.989.282-1.413V33.901c0 .282 0 .564-.141.847-.141.141-.282.424-.565.565Z" fill="url(#b)"/><path d="M363.133 67.942h50.569c.847 0 1.554-.282 2.26-.706L387.57 50.003l-.424-.282-26.979-15.397-.847-.565v30.228c0 .424.141.989.282 1.413.141.423.424.847.848 1.271.282.282.706.565 1.271.847.423.283.989.424 1.412.424Z" fill="url(#c)"/><path d="M84.685 39.428h18.491c.43 0 .86.144 1.147.287.43.143.716.43 1.003.717.287.287.573.573.717 1.003.143.43.286.86.286 1.147v17.057c0 3.153-1.29 6.02-3.44 8.314a11.827 11.827 0 0 1-8.313 3.44c-3.154 0-6.02-1.29-8.314-3.44a11.827 11.827 0 0 1-3.44-8.314V41.15c0-.287 0-.43.143-.717.144-.144.287-.43.43-.574.144-.143.43-.286.574-.286.143 0 .43-.144.716-.144ZM94.575 35.272c4.014 0 7.454-3.297 7.454-7.454a7.403 7.403 0 0 0-7.454-7.454 7.402 7.402 0 0 0-7.453 7.454c0 4.157 3.44 7.454 7.453 7.454Z" fill="#5059C9"/><path d="M72.358 35.272c5.877 0 10.607-4.73 10.607-10.607 0-5.877-4.73-10.607-10.607-10.607a10.583 10.583 0 0 0-10.607 10.607c.144 5.877 4.874 10.607 10.607 10.607ZM88.269 39.428H56.59c-.43 0-.86.144-1.29.287-.43.143-.717.43-1.003.717a4.354 4.354 0 0 0-.717 1.003c-.144.43-.287.86-.287 1.29V62.22c-.143 2.58.287 5.16 1.29 7.454 1.003 2.293 2.294 4.587 4.014 6.45 1.72 1.863 3.87 3.297 6.306 4.3A18.78 18.78 0 0 0 72.358 82c2.58 0 5.017-.573 7.454-1.577a20.56 20.56 0 0 0 6.307-4.3c1.72-1.864 3.153-4.014 4.013-6.45a22.04 22.04 0 0 0 1.29-7.454V42.725c0-.86-.287-1.72-.86-2.293-.573-.574-1.433-1.004-2.293-1.004Z" fill="#7B83EB"/><defs><linearGradient id="a" x1="45.032" y1="223.699" x2="31.057" y2="199.493" gradientUnits="userSpaceOnUse"><stop stop-color="#192E7E"/><stop offset=".904" stop-color="#4168C6"/></linearGradient><linearGradient id="b" x1="408.244" y1="26.17" x2="368.499" y2="73.533" gradientUnits="userSpaceOnUse"><stop stop-color="#35B8F1"/><stop offset=".9" stop-color="#0F78D1"/></linearGradient><linearGradient id="c" x1="387.711" y1="33.895" x2="387.711" y2="67.904" gradientUnits="userSpaceOnUse"><stop stop-color="#35B8F1"/><stop offset="1" stop-color="#28A8EA"/></linearGradient></defs></svg>