<!-- <svg width="160" height="160" viewBox="0 0 160 160" fill="none" xmlns="http://www.w3.org/2000/svg">
<path d="M53 131C60.1797 131 66 125.18 66 118C66 110.82 60.1797 105 53 105C45.8203 105 40 110.82 40 118C40 125.18 45.8203 131 53 131Z" fill="#28C2D1"/>
<path d="M57.0853 153.467C56.4797 153.467 55.8917 153.256 55.4164 152.867C54.8305 152.398 54.4469 151.709 54.3493 150.949L53.4865 143.889C53.3058 142.319 54.3798 140.891 55.8932 140.689C56.108 140.659 56.3256 140.659 56.5403 140.689C57.816 140.828 58.8292 141.863 58.9811 143.183L59.8439 150.243C60.0382 151.815 58.9658 153.253 57.4485 153.455L57.0853 153.467Z" fill="#FFD590"/>
<path d="M37.1049 149.2C35.8994 149.184 34.8327 148.418 34.4358 147.284C34.1783 146.576 34.2161 145.794 34.5407 145.113L37.3846 139.087C37.8982 137.992 39.0577 137.347 40.2635 137.485C40.5732 137.521 40.8757 137.604 41.1609 137.729C42.5705 138.395 43.1868 140.061 42.5479 141.479L39.7157 147.563C39.3957 148.244 38.817 148.77 38.1072 149.026C37.7867 149.145 37.4469 149.204 37.1049 149.2Z" fill="#FFD590"/>
<path d="M76.3344 144.932C75.6281 144.933 74.9498 144.65 74.4457 144.145L69.1931 138.998C68.3774 138.163 68.1682 136.893 68.6716 135.831C69.175 134.77 70.2809 134.149 71.4282 134.285C72.029 134.353 72.5909 134.622 73.0264 135.05L78.2343 140.185C79.3174 141.253 79.3474 143.016 78.3013 144.122C77.7833 144.658 77.0714 144.951 76.3344 144.932Z" fill="#FFD590"/>
<path d="M84.8608 127.866C84.6544 127.866 84.4486 127.842 84.2469 127.796L76.9696 126.106C75.5386 125.791 74.5975 124.337 74.8373 122.81C75.0771 121.284 76.4123 120.23 77.8625 120.423H78.1416L85.4636 122.171C86.5431 122.424 87.3715 123.342 87.56 124.495C87.7485 125.648 87.2597 126.808 86.323 127.429C85.8859 127.722 85.3779 127.874 84.8608 127.866Z" fill="#FFD590"/>
<path d="M45.9524 29.6213C44.8323 28.3152 43.9668 25.9759 43.1318 23.773C42.128 20.8649 39.5523 18.7088 36.4075 18.1443C33.2627 17.5798 30.0459 18.6961 28.0096 21.0585C25.9732 23.4209 25.4392 26.656 26.6155 29.5043C27.4505 31.7072 28.3567 34.0367 28.3669 35.723C28.3771 37.4092 47.0624 30.8982 45.9524 29.6213Z" fill="#7BDDEF"/>
<path d="M110 95.2352C103.674 79.33 95.8818 81.179 91.4617 75.8607C87.0416 70.5423 83.4797 60.7507 80.1871 51.5853C76.0755 39.6429 65.8126 30.8427 53.3474 28.5708C40.8821 26.2988 28.1569 30.9091 20.068 40.6277C11.9791 50.3464 9.78704 63.659 14.3352 75.4431C17.6677 84.6085 21.3195 94.2511 21.3195 101.289C21.3195 108.327 14.1656 111.747 19.5635 128L110 95.2352Z" fill="url(#paint0_linear_1507_173)"/>
<g style="mix-blend-mode:multiply">
<path d="M87.4844 62.6018C101.109 60.3624 110.338 47.5023 108.098 33.878C105.859 20.2537 92.9989 11.0244 79.3746 13.2639C69.8518 14.8291 62.4762 21.583 59.6632 30.1599C69.6143 33.8614 77.4542 41.9209 80.7662 52.1836C81.9742 55.7632 83.2209 59.4377 84.5465 62.9103C85.5193 62.8656 86.4999 62.7636 87.4844 62.6018Z" fill="#EFF6FC"/>
</g>
<path d="M84.5466 62.9103C72.0571 63.4845 60.8383 54.6275 58.7607 41.9877C58.0865 37.8862 58.4517 33.8539 59.6633 30.1599C69.6145 33.8614 77.4543 41.9209 80.7663 52.1836C81.9743 55.7632 83.2211 59.4377 84.5466 62.9103Z" fill="#C1DAED"/>
<path d="M90.297 51.5269L92.3859 51.2842C93.8423 51.1151 94.8858 49.7973 94.7166 48.3409C94.6255 47.5567 94.2014 46.8923 93.6021 46.4724L93.6198 46.4703C95.0762 46.3011 96.1196 44.9833 95.9505 43.5269C95.8311 42.4993 95.1399 41.6773 94.2317 41.3417C95.6202 41.1121 96.5976 39.8296 96.4334 38.4165C96.3176 37.4197 95.6638 36.6163 94.7956 36.2628C95.6043 35.664 96.0798 34.5996 95.9466 33.4524C95.7554 31.8066 94.3837 30.6137 92.8828 30.7881L83.4904 31.8792C83.4944 31.7282 83.5422 31.5421 83.6263 31.3187C84.3151 29.9349 84.7716 28.2023 84.8047 26.2292C84.8521 23.3344 82.9858 20.3448 80.4925 21.4957C79.2475 22.0695 79.6626 23.4803 79.8455 24.102C79.8712 24.1892 79.8923 24.2609 79.9036 24.3125C80.6767 27.7255 79.2717 29.3261 78.8906 29.7603C78.8755 29.7774 78.8621 29.7928 78.8504 29.8063C78.8441 29.8142 78.8372 29.8226 78.8296 29.8317C78.8127 29.8521 78.7929 29.8759 78.7719 29.9055C75.9362 33.2651 75.1076 34.6925 74.1302 37.2999C71.1249 37.8174 70.9612 41.3286 71.3454 44.232C71.7454 47.2706 72.4418 49.5583 74.6009 49.6089C74.9695 49.6172 75.4716 49.9245 76.1245 50.3241C77.2241 50.9971 78.7511 51.9317 80.7871 52.1398C81.0187 52.1633 81.2594 52.1902 81.5091 52.2182C83.7173 52.4652 86.6339 52.7915 90.297 51.5269Z" fill="#0078D4"/>
<circle cx="127" cy="72" r="19" transform="rotate(14.2562 127 72)" fill="#FFE5B9"/>
<path d="M128.712 67.4628C128.344 60.6246 119.712 60.0746 117.918 67.1379C116.574 72.4269 121.294 78.781 121.889 79.6296C122.653 80.7211 123.773 81.4978 125.052 81.8226C126.33 82.1475 127.685 81.9996 128.877 81.4051C129.804 80.9438 136.891 77.5825 138.256 72.3664C140.003 65.6952 132.162 61.088 128.712 67.4628Z" fill="#F7B548"/>
<path d="M21.3195 101.289C21.3195 108.189 14.1955 111.769 19.5635 128L110 95.3486C103.709 79.4647 95.9599 81.3112 91.5643 76L21.3195 101.289Z" fill="#7BDDEF"/>
<defs>
<linearGradient id="paint0_linear_1507_173" x1="89.3594" y1="106.054" x2="71.3005" y2="56.3407" gradientUnits="userSpaceOnUse"> 
<stop stop-color="#28C2D1"/>
<stop offset="1" stop-color="#7BDDEF"/>
</linearGradient>
</defs>
</svg> --> 
<svg width="342" height="320" viewBox="0 0 342 320" fill="none" xmlns="http://www.w3.org/2000/svg"><path d="M106 18V302M38 18V302M242 18V302M310 18V302M174 18V302M0 52H342M0 95H342M0 138H342M0 181H342M0 224H342M0 266H342" stroke="url(#paint0_radial_503_150330)" stroke-miterlimit="10"></path><rect x="106" y="109.024" width="136" height="46.0238" rx="9" fill="#FFFFFF" stroke="#99A2AF" stroke-width="0.75" stroke-miterlimit="10"></rect><rect opacity="0.4" x="111.479" y="114.503" width="125" height="35.0658" rx="6" stroke="#99A2AF" stroke-width="0.75" stroke-miterlimit="10"></rect><rect opacity="0.1" x="118.054" y="121.078" width="21.9161" height="21.9161" rx="6" fill="#99A2AF"></rect><path d="M130.296 136.438C130.033 136.884 129.556 137.183 129.01 137.183C128.464 137.183 127.987 136.884 127.724 136.438" stroke="#99A2AF" stroke-opacity="0.4" stroke-width="0.75" stroke-linecap="round" stroke-linejoin="round"></path><path d="M125.769 130.177V131.51C125.769 132.388 125.497 133.245 124.99 133.962V133.962C124.699 134.376 124.994 134.946 125.5 134.946H132.52C133.026 134.946 133.321 134.376 133.029 133.962V133.962C132.523 133.245 132.251 132.388 132.251 131.51V130.177" stroke="#99A2AF" stroke-opacity="0.4" stroke-width="0.75" stroke-linecap="round" stroke-linejoin="round"></path><path d="M132.251 130.177C132.251 128.365 130.8 126.897 129.01 126.897C127.22 126.897 125.769 128.365 125.769 130.177" stroke="#99A2AF" stroke-opacity="0.4" stroke-width="0.75" stroke-linecap="round" stroke-linejoin="round"></path><rect opacity="0.2" x="145.449" y="123.269" width="44.928" height="5.47903" rx="2.73951" fill="#99A2AF"></rect><rect opacity="0.2" x="145.449" y="135.323" width="77.8022" height="5.47903" rx="2.73951" fill="#99A2AF"></rect><rect x="106" y="164" width="136" height="46.0238" rx="9" fill="#FFFFFF"></rect><g opacity="0.6"><rect x="106" y="164" width="136" height="46.0238" rx="9" fill="#FFFFFF" stroke="#99A2AF" stroke-width="0.75" stroke-miterlimit="10"></rect><rect opacity="0.4" x="111.479" y="169.479" width="125" height="35.0658" rx="6" stroke="#99A2AF" stroke-width="0.75" stroke-miterlimit="10"></rect><rect opacity="0.1" x="118.054" y="176.054" width="21.9161" height="21.9161" rx="6" fill="#99A2AF"></rect><path d="M130.296 191.407C130.033 191.854 129.556 192.153 129.01 192.153C128.464 192.153 127.987 191.854 127.724 191.407" stroke="#99A2AF" stroke-opacity="0.4" stroke-width="0.75" stroke-linecap="round" stroke-linejoin="round"></path><path d="M125.769 185.146V186.48C125.769 187.358 125.497 188.215 124.99 188.932V188.932C124.699 189.346 124.994 189.916 125.5 189.916H132.52C133.026 189.916 133.321 189.346 133.029 188.932V188.932C132.523 188.215 132.251 187.358 132.251 186.48V185.146" stroke="#99A2AF" stroke-opacity="0.4" stroke-width="0.75" stroke-linecap="round" stroke-linejoin="round"></path><path d="M132.251 185.147C132.251 183.335 130.8 181.867 129.01 181.867C127.22 181.867 125.769 183.335 125.769 185.147" stroke="#99A2AF" stroke-opacity="0.4" stroke-width="0.75" stroke-linecap="round" stroke-linejoin="round"></path><rect opacity="0.2" x="145.449" y="178.245" width="44.928" height="5.47903" rx="2.73951" fill="#99A2AF"></rect><rect opacity="0.2" x="145.449" y="190.299" width="77.8022" height="5.47903" rx="2.73951" fill="#99A2AF"></rect></g><rect x="106" y="220" width="136" height="46.0238" rx="9" fill="#FFFFFF"></rect><g opacity="0.4"><rect x="106" y="220" width="136" height="46.0238" rx="9" fill="#FFFFFF" stroke="#99A2AF" stroke-width="0.75" stroke-miterlimit="10"></rect><rect opacity="0.4" x="111.479" y="225.479" width="125" height="35.0658" rx="6" stroke="#99A2AF" stroke-width="0.75" stroke-miterlimit="10"></rect><rect opacity="0.1" x="118.054" y="232.054" width="21.9161" height="21.9161" rx="6" fill="#99A2AF"></rect><path d="M130.286 247.397C130.023 247.844 129.546 248.143 129 248.143C128.454 248.143 127.977 247.844 127.714 247.397" stroke="#99A2AF" stroke-opacity="0.4" stroke-width="0.75" stroke-linecap="round" stroke-linejoin="round"></path><path d="M125.759 241.136V242.47C125.759 243.348 125.487 244.205 124.98 244.922V244.922C124.689 245.336 124.984 245.906 125.49 245.906H132.51C133.016 245.906 133.311 245.336 133.019 244.922V244.922C132.513 244.205 132.241 243.348 132.241 242.47V241.136" stroke="#99A2AF" stroke-opacity="0.4" stroke-width="0.75" stroke-linecap="round" stroke-linejoin="round"></path><path d="M132.241 241.136C132.241 239.325 130.79 237.857 129 237.857C127.21 237.857 125.759 239.325 125.759 241.136" stroke="#99A2AF" stroke-opacity="0.4" stroke-width="0.75" stroke-linecap="round" stroke-linejoin="round"></path><rect opacity="0.2" x="145.449" y="234.245" width="44.928" height="5.47903" rx="2.73951" fill="#99A2AF"></rect><rect opacity="0.2" x="145.449" y="246.299" width="77.8022" height="5.47903" rx="2.73951" fill="#99A2AF"></rect></g><g filter="url(#filter0_dd_503_150330)"><path d="M106 67.4C106 62.3595 106 59.8393 106.981 57.9141C107.844 56.2206 109.221 54.8438 110.914 53.9809C112.839 53 115.36 53 120.4 53L230.8 53C234.72 53 236.681 53 238.178 53.763C239.495 54.4341 240.566 55.5049 241.237 56.8221C242 58.3194 242 60.2796 242 64.2V84.6238C242 89.6643 242 92.1845 241.019 94.1097C240.156 95.8032 238.779 97.18 237.086 98.0429C235.161 99.0238 232.64 99.0238 227.6 99.0238H120.4C115.36 99.0238 112.839 99.0238 110.914 98.0429C109.221 97.18 107.844 95.8032 106.981 94.1097C106 92.1845 106 89.6643 106 84.6238V67.4Z" fill="#FFFFFF"></path><path d="M106 67.4C106 62.3595 106 59.8393 106.981 57.9141C107.844 56.2206 109.221 54.8438 110.914 53.9809C112.839 53 115.36 53 120.4 53L230.8 53C234.72 53 236.681 53 238.178 53.763C239.495 54.4341 240.566 55.5049 241.237 56.8221C242 58.3194 242 60.2796 242 64.2V84.6238C242 89.6643 242 92.1845 241.019 94.1097C240.156 95.8032 238.779 97.18 237.086 98.0429C235.161 99.0238 232.64 99.0238 227.6 99.0238H120.4C115.36 99.0238 112.839 99.0238 110.914 98.0429C109.221 97.18 107.844 95.8032 106.981 94.1097C106 92.1845 106 89.6643 106 84.6238V67.4Z" stroke="#ff3823" stroke-width="0.75"></path></g><rect opacity="0.4" x="111.479" y="58.479" width="125" height="35.0658" rx="6" stroke="#ff3823" stroke-width="0.75"></rect><rect x="118.054" y="65.054" width="21.9161" height="21.9161" rx="6" fill="#fff1f0"></rect><rect x="145.449" y="67.2454" width="44.928" height="5.47903" rx="2.73951" fill="#fff1f0"></rect><rect x="145.449" y="79.2993" width="77.8022" height="5.47903" rx="2.73951" fill="#fff1f0"></rect><path d="M130.286 80.3975C130.023 80.8441 129.546 81.1428 129 81.1428C128.454 81.1428 127.977 80.8441 127.714 80.3975" stroke="#ff6757" stroke-width="0.75" stroke-linecap="round" stroke-linejoin="round"></path><path d="M125.759 74.1365V75.4698C125.759 76.348 125.487 77.2047 124.98 77.9222V77.9222C124.689 78.3357 124.984 78.9064 125.49 78.9064H132.51C133.016 78.9064 133.311 78.3357 133.019 77.9222V77.9222C132.513 77.2047 132.241 76.348 132.241 75.4698V74.1365" stroke="#ff6757" stroke-width="0.75" stroke-linecap="round" stroke-linejoin="round"></path><path d="M132.241 74.1365C132.241 72.3254 130.79 70.8572 129 70.8572C127.21 70.8572 125.759 72.3254 125.759 74.1365" stroke="#ff6757" stroke-width="0.75" stroke-linecap="round" stroke-linejoin="round"></path><circle cx="242" cy="53" r="6" fill="#ff3823"></circle><path d="M242.721 50.6364V55H241.931V51.4055H241.905L240.885 52.0575V51.3331L241.969 50.6364H242.721Z" fill="#FFFFFF"></path><defs><filter id="filter0_dd_503_150330" x="81.625" y="36.625" width="184.75" height="94.7739" filterUnits="userSpaceOnUse" color-interpolation-filters="sRGB"><feFlood flood-opacity="0" result="BackgroundImageFix"></feFlood><feColorMatrix in="SourceAlpha" type="matrix" values="0 0 0 0 0 0 0 0 0 0 0 0 0 0 0 0 0 0 127 0" result="hardAlpha"></feColorMatrix><feOffset dy="8"></feOffset><feGaussianBlur stdDeviation="12"></feGaussianBlur><feColorMatrix type="matrix" values="0 0 0 0 0.14902 0 0 0 0 0.427451 0 0 0 0 0.941176 0 0 0 0.08 0"></feColorMatrix><feBlend mode="normal" in2="BackgroundImageFix" result="effect1_dropShadow_503_150330"></feBlend><feColorMatrix in="SourceAlpha" type="matrix" values="0 0 0 0 0 0 0 0 0 0 0 0 0 0 0 0 0 0 127 0" result="hardAlpha"></feColorMatrix><feOffset dy="6"></feOffset><feGaussianBlur stdDeviation="6"></feGaussianBlur><feColorMatrix type="matrix" values="0 0 0 0 0.14902 0 0 0 0 0.427451 0 0 0 0 0.941176 0 0 0 0.12 0"></feColorMatrix><feBlend mode="normal" in2="effect1_dropShadow_503_150330" result="effect2_dropShadow_503_150330"></feBlend><feBlend mode="normal" in="SourceGraphic" in2="effect2_dropShadow_503_150330" result="shape"></feBlend></filter><radialGradient id="paint0_radial_503_150330" cx="0" cy="0" r="1" gradientUnits="userSpaceOnUse" gradientTransform="translate(171 160) rotate(90) scale(162 188.914)"><stop stop-color="#BCC3CE"></stop><stop offset="1" stop-color="#BCC3CE" stop-opacity="0"></stop></radialGradient></defs></svg>