<svg width="1em" height="1em" viewBox="0 0 100 100" class="n-noteListFishbowl-noNotesIcon"><g fill="none" fill-rule="evenodd"><path fill="#E8E8E8" d="M67.22 82.294C60.436 84.79 18.09 61.83 0 61.833 14.11 53.143 32.672.694 32.672.694l67.22 20.461s-1.697 4.985-3.146 10.4c-6.573 16.657-20.235 47.321-29.525 50.739"></path><path fill="#EEE" d="M28.292 88.835l7.039 7.106 2.897 2.926c1.455 1.47 2.535.983 2.423-1.075l-.245-4.505-.523-9.594-11.591 5.142z"></path><path fill="#69D6CE" d="M35.33 95.941l2.898 2.926c1.456 1.47 2.535.983 2.423-1.075l-.245-4.505a7.76 7.76 0 00-5.076 2.655M5.617 22.088C2.422 23.506.971 27.253 2.391 30.45L16.275 61.75l6.6 14.876 5.4 12.172 11.59-5.142-25.883-58.348a6.338 6.338 0 00-8.365-3.22" opacity="0.7"></path><path fill="#F4DA36" d="M95.934 60.568a1.87 1.87 0 00-1.612-2.094c-.508-.066-1-.202-1.463-.404a5.434 5.434 0 01-3.202-5.66 1.87 1.87 0 00-1.611-2.095 1.869 1.869 0 00-2.094 1.612 5.377 5.377 0 01-2.067 3.588 5.373 5.373 0 01-3.998 1.077 1.868 1.868 0 10-.483 3.705c.507.066 1 .202 1.464.404a5.435 5.435 0 013.201 5.66 1.87 1.87 0 001.611 2.095 1.869 1.869 0 002.095-1.611 5.375 5.375 0 012.066-3.589 5.374 5.374 0 013.998-1.077 1.868 1.868 0 002.095-1.61M20.94 15.936a1.292 1.292 0 00.437-1.774 3.752 3.752 0 01-.413-.964 3.756 3.756 0 011.678-4.17 1.292 1.292 0 10-1.336-2.21c-.855.516-1.86.669-2.83.43a3.715 3.715 0 01-2.304-1.697 1.292 1.292 0 00-2.212 1.336c.184.303.323.628.414.966a3.757 3.757 0 01-1.679 4.17 1.292 1.292 0 101.336 2.21 3.714 3.714 0 012.83-.43c.97.239 1.788.841 2.305 1.696.37.61 1.164.806 1.774.437M9.168 78.904a.82.82 0 00.15-1.15 2.384 2.384 0 01-.33-.578 2.383 2.383 0 01.764-2.749.82.82 0 00-1-1.3 2.355 2.355 0 01-1.753.473 2.357 2.357 0 01-1.575-.906.819.819 0 10-1.3 1c.138.178.25.373.33.579.385.977.07 2.107-.762 2.749a.82.82 0 10.999 1.298 2.359 2.359 0 011.753-.472 2.36 2.36 0 011.575.906.82.82 0 001.149.15"></path></g></svg>