<?xml version="1.0" encoding="UTF-8"?>
<svg width="121px" height="120px" viewBox="0 0 121 120" version="1.1" xmlns="http://www.w3.org/2000/svg" xmlns:xlink="http://www.w3.org/1999/xlink">
    <title>illustration_balloon</title>
    <defs>
        <linearGradient x1="20.4578125%" y1="-5.77041425%" x2="49.3853125%" y2="44.585922%" id="linearGradient-1">
            <stop stop-color="#B2AEAA" offset="0%"></stop>
            <stop stop-color="#C7C5C3" offset="100%"></stop>
        </linearGradient>
    </defs>
    <g id="illustration_balloon" stroke="none" stroke-width="1" fill="none" fill-rule="evenodd" transform="translate(1.000000, 0.000000)">
        <g id="Empty-/-Balloon-/-General-/-Light">
            <g id="Empty-HotAirBalloon-Color">
                <ellipse id="Oval" fill="#B2AEAA" fill-rule="nonzero" cx="59.6273292" cy="42" rx="41.7391304" ry="42"></ellipse>
                <g id="Group" transform="translate(17.142857, 0.000000)">
                    <path d="M0.819875776,39.75 C0.745341615,40.5 0.745341615,41.25 0.745341615,42 C0.745341615,65.175 19.4534161,84 42.484472,84 C65.515528,84 84.2236025,65.175 84.2236025,42 C84.2236025,41.25 84.2236025,40.5 84.1490683,39.75 L0.819875776,39.75 Z" id="Path"></path>
                    <path d="M11.2546584,36.075 C15.1304348,36.075 15.1304348,31.575 19.0807453,31.575 C23.0310559,31.575 22.9565217,36.075 26.9068323,36.075 C30.7826087,36.075 30.7826087,31.575 34.7329193,31.575 C38.6086957,31.575 38.6086957,36.075 42.5590062,36.075 C46.5093168,36.075 46.4347826,31.575 50.3850932,31.575 C54.3354037,31.575 54.2608696,36.075 58.2111801,36.075 C62.1614907,36.075 62.0869565,31.575 66.0372671,31.575 C69.9875776,31.575 69.9130435,36.075 73.863354,36.075 C77.8136646,36.075 77.7391304,31.575 81.689441,31.575 C82.2111801,31.575 82.6583851,31.65 83.1055901,31.8 C78.484472,13.575 62.0869565,0 42.484472,0 C22.8819876,0 6.48447205,13.575 2.01242236,31.875 C2.45962733,31.725 2.9068323,31.65 3.42857143,31.65 C7.30434783,31.575 7.30434783,36.075 11.2546584,36.075 Z" id="Path" fill="#B2AEAA"></path>
                    <path d="M82.9565217,31.8 C82.9565217,31.8 82.9565217,31.8 82.9565217,31.8 C82.5093168,31.65 82.0621118,31.575 81.5403727,31.575 C77.6645963,31.575 77.6645963,36.075 73.7142857,36.075 C69.7639752,36.075 69.8385093,31.575 65.8881988,31.575 C61.9378882,31.575 62.0124224,36.075 58.0621118,36.075 C54.1118012,36.075 54.1863354,31.575 50.2360248,31.575 C46.2857143,31.575 46.3602484,36.075 42.4099379,36.075 C38.4596273,36.075 38.5341615,31.575 34.5838509,31.575 C30.7080745,31.575 30.7080745,36.075 26.757764,36.075 C22.8819876,36.075 22.8819876,31.575 18.931677,31.575 C14.9813665,31.575 15.0559006,36.075 11.1055901,36.075 C7.1552795,36.075 7.22981366,31.575 3.27950311,31.575 C2.75776398,31.575 2.31055901,31.65 1.86335404,31.8 C1.26708075,34.35 0.819875776,36.975 0.670807453,39.75 L84,39.75 C84,37.05 83.6273292,34.425 82.9565217,31.8 Z" id="Path" fill="#C7C5C3" fill-rule="nonzero"></path>
                </g>
                <polygon id="Rectangle" fill="#605D5A" fill-rule="nonzero" transform="translate(49.704794, 71.819318) rotate(-12.257227) translate(-49.704794, -71.819318) " points="48.62624 40.9670439 50.8628848 40.9641446 50.7833476 102.671591 48.5467028 102.67449"></polygon>
                <polygon id="Rectangle" fill="#605D5A" fill-rule="nonzero" transform="translate(69.334793, 71.876385) rotate(-77.460627) translate(-69.334793, -71.876385) " points="38.4468088 70.7987702 100.225738 70.717424 100.222776 72.9539998 38.4438472 73.035346"></polygon>
                <polygon id="Rectangle" fill="#605D5A" fill-rule="nonzero" transform="translate(81.934785, 82.194615) rotate(-55.911080) translate(-81.934785, -82.194615) " points="58.0588088 81.1433448 105.817248 81.0053857 105.810761 83.2458852 58.0523217 83.3838443"></polygon>
                <polygon id="Rectangle" fill="#605D5A" fill-rule="nonzero" transform="translate(37.651155, 82.202078) rotate(-34.088920) translate(-37.651155, -82.202078) " points="36.5998851 58.3261013 38.8403846 58.3196141 38.7024255 106.078054 36.4619259 106.084541"></polygon>
                <path d="M17.8881988,40.05 L34.5838509,40.05 L34.5838509,40.05 L34.5838509,57.3 C34.5838509,61.95 30.8571429,65.7 26.2360248,65.7 C26.2360248,65.7 26.2360248,65.7 26.2360248,65.7 L26.2360248,65.7 C21.6149068,65.7 17.8881988,61.95 17.8881988,57.3 L17.8881988,40.05 L17.8881988,40.05 Z" id="Path" fill="#C7C5C3" fill-rule="nonzero"></path>
                <path d="M34.5838509,40.05 L51.2795031,40.05 L51.2795031,40.05 L51.2795031,57.3 C51.2795031,61.95 47.552795,65.7 42.931677,65.7 L42.931677,65.7 C38.310559,65.7 34.5838509,61.95 34.5838509,57.3 L34.5838509,57.3 L34.5838509,40.05 L34.5838509,40.05 Z" id="Path" fill="#797673" fill-rule="nonzero"></path>
                <path d="M51.2795031,40.05 L67.9751553,40.05 L67.9751553,40.05 L67.9751553,57.3 C67.9751553,61.95 64.2484472,65.7 59.6273292,65.7 L59.6273292,65.7 L59.6273292,65.7 C55.0062112,65.7 51.2795031,61.95 51.2795031,57.3 L51.2795031,57.3 L51.2795031,40.05 L51.2795031,40.05 Z" id="Path" fill="#C7C5C3" fill-rule="nonzero"></path>
                <path d="M67.9751553,40.05 L84.6708075,40.05 L84.6708075,40.05 L84.6708075,57.3 C84.6708075,61.95 80.9440994,65.7 76.3229814,65.7 L76.3229814,65.7 L76.3229814,65.7 C71.7018634,65.7 67.9751553,61.95 67.9751553,57.3 C67.9751553,57.3 67.9751553,57.3 67.9751553,57.3 L67.9751553,40.05 L67.9751553,40.05 Z" id="Path" fill="#797673" fill-rule="nonzero"></path>
                <path d="M84.7453416,40.05 L101.440994,40.05 L101.440994,40.05 L101.440994,57.3 C101.440994,61.95 97.7142857,65.7 93.0931677,65.7 L93.0931677,65.7 L93.0931677,65.7 C88.4720497,65.7 84.7453416,61.95 84.7453416,57.3 L84.7453416,57.3 L84.7453416,40.05 L84.7453416,40.05 Z" id="Path" fill="#C7C5C3" fill-rule="nonzero"></path>
                <path d="M26.757764,120 C27.0559006,118.95 27.1304348,117.825 27.1304348,116.7 C27.2049689,109.125 21.0931677,102.975 13.6397516,102.9 C6.1863354,102.9 0,108.975 0,116.55 C0,117.675 0.149068323,118.875 0.447204969,120 L26.757764,120 Z" id="Path" fill="#F2F2F2" fill-rule="nonzero"></path>
                <path d="M37.6397516,120 C36.8198758,115.65 32.5714286,112.8 28.2484472,113.7 C25.0434783,114.3 22.5838509,116.85 21.9875776,120 L37.6397516,120 Z" id="Path" fill="#F2F2F2" fill-rule="nonzero"></path>
                <path d="M29.9627329,110.025 C24.447205,110.025 19.9751553,114.45 19.826087,120 L40.0993789,120 C39.9503106,114.45 35.4782609,110.025 29.9627329,110.025 Z" id="Path" fill="#F2F2F2" fill-rule="nonzero"></path>
                <path d="M91.0062112,15.075 L91.4534161,15.075 C91.4534161,14.925 91.4534161,14.775 91.4534161,14.625 C91.4534161,13.05 91.9751553,11.475 92.9440994,10.2 C94.3602484,8.4 96.447205,7.35 98.6832298,7.35 C101.515528,7.35 104.124224,9 105.31677,11.55 C106.360248,10.875 107.552795,10.5 108.819876,10.5 C112.322981,10.5 115.15528,13.275 115.229814,16.8 C117.987578,17.4 119.776398,20.1 119.180124,22.95 C118.658385,25.425 116.496894,27.15 114.037267,27.075 L91.0062112,27.15 C87.7267081,27.15 85.0434783,24.45 85.0434783,21.15 C85.0434783,17.85 87.7267081,15.075 91.0062112,15.075 L91.0062112,15.075 Z" id="Path" fill="#E1DFDD" fill-rule="nonzero"></path>
                <rect id="Rectangle" fill="#605D5A" fill-rule="nonzero" x="17.8881988" y="39.75" width="83.6273292" height="4.5"></rect>
                <path d="M47.7018634,102 L71.552795,102 L71.552795,102 L71.552795,116.55 C71.552795,118.5 69.9875776,120 68.1242236,120 L68.1242236,120 L51.1304348,120 C49.1925466,120 47.7018634,118.425 47.7018634,116.55 L47.7018634,116.55 L47.7018634,102 L47.7018634,102 Z" id="Path" fill="url(#linearGradient-1)" fill-rule="nonzero"></path>
                <path d="M46.5838509,98.925 L72.5962733,98.925 C73.6397516,98.925 74.5341615,99.75 74.5341615,100.8 L74.5341615,100.8 C74.5341615,101.85 73.7142857,102.675 72.5962733,102.675 L46.5838509,102.675 C45.5403727,102.675 44.7204969,101.85 44.7204969,100.8 L44.7204969,100.8 C44.7204969,99.75 45.5403727,98.925 46.5838509,98.925 Z" id="Path" fill="#C7C5C3" fill-rule="nonzero"></path>
            </g>
        </g>
    </g>
</svg>