<svg xmlns="http://www.w3.org/2000/svg" width="151" height="95" fill="none" viewBox="0 0 151 95"><path stroke="#262C2D" d="M31.5344 21.641H9.67236C7.46322 21.641 5.67236 23.4319 5.67236 25.641V33.1216C5.67236 35.3307 7.46323 37.1216 9.67237 37.1216H31.5344"/><path fill="#fff" stroke="#262C2D" d="M105.121 1H35.5345C33.3254 1 31.5345 2.79086 31.5345 4.99999V89.8835C31.5345 92.0926 33.3254 93.8835 35.5345 93.8835H105.121C107.33 93.8835 109.121 92.0926 109.121 89.8835V26.5236V5C109.121 2.79086 107.33 1 105.121 1Z"/><path stroke="#262C2D" d="M72.9141 57.7621H98.7761"/><path stroke="#262C2D" d="M72.9141 62.9225H98.7761"/><path stroke="#262C2D" d="M72.9141 68.0824H98.7761"/><path stroke="#262C2D" d="M72.9141 73.2428H98.7761"/><path stroke="#262C2D" d="M72.9141 78.4028H98.7761"/><path stroke="#07A254" d="M10.8448 26.8009H31.5345"/><g style="mix-blend-mode:multiply"><rect width="51.724" height="28.925" x="98.776" y="37.121" fill="#ECFBF3" rx="8"/></g><g style="mix-blend-mode:multiply"><rect width="36.207" height="20.641" x=".5" y="29.052" fill="#ECFBF3" rx="8"/></g><path stroke="#262C2D" d="M10.8448 31.9613H26.3621"/><path stroke="#07A254" stroke-linecap="round" stroke-width="4" d="M56.9266 34.2118H95.4193"/><path stroke="#262C2D" d="M56.0728 39.3719H87.1072"/><path stroke="#000" stroke-linecap="round" stroke-linejoin="round" d="M46.6379 35.4158L44.7138 37.3399L43.7517 36.3778"/><ellipse cx="45.195" cy="36.378" stroke="#000" rx="4.329" ry="4.329"/><path stroke="#07A254" stroke-linecap="round" stroke-width="4" d="M56.9265 53.3658H84.6296"/><path stroke="#262C2D" d="M56.0728 58.5258H87.1072"/><path stroke="#000" stroke-linecap="round" stroke-linejoin="round" d="M46.6379 54.5695L44.7138 56.4936L43.7517 55.5315"/><circle cx="45.195" cy="55.532" r="4.329" stroke="#000"/><circle cx="45.195" cy="55.532" r="4.329" stroke="#000"/><path stroke="#07A254" stroke-linecap="round" stroke-width="4" d="M56.9265 73.5691H76.7623"/><path stroke="#262C2D" d="M56.0728 78.7294H87.1072"/><path stroke="#000" stroke-linecap="round" stroke-linejoin="round" d="M46.6379 74.7732L44.7138 76.6973L43.7517 75.7353"/><circle cx="45.195" cy="75.735" r="4.329" stroke="#000"/><rect width="67.241" height="30.961" x="72.914" y="55.925" fill="#fff" stroke="#262C2D" rx="4"/><ellipse cx="88.431" cy="71.406" fill="#ECFBF3" rx="10.345" ry="10.32"/><path fill="#262C2D" d="M84.7825 69.6221C84.6991 67.4127 86.4676 65.5762 88.6785 65.5762C90.8981 65.5762 92.6698 67.4264 92.5738 69.6438L92.5032 71.2712C92.4427 72.6684 91.2924 73.7699 89.894 73.7699H87.4589C86.0521 73.7699 84.897 72.6576 84.844 71.2518L84.7825 69.6221Z"/><path fill="#fff" stroke="#262C2D" d="M86.0678 78.5141C86.9488 78.5141 86.9021 76.7794 86.7687 75.9121H90.776C90.6491 76.7794 90.6048 78.5141 91.4423 78.5141C92.2799 78.5141 93.4728 79.2529 93.9646 79.6224C92.5329 80.8591 88.4185 82.5906 83.4148 79.6224C83.9321 79.2529 85.1868 78.5141 86.0678 78.5141Z"/><path fill="#07A254" d="M82.7413 79.784C83.3246 79.3462 84.7396 78.4705 85.733 78.4705C86.8052 79.1116 89.5183 80.0093 91.7937 78.4705C92.7382 78.4705 94.0834 79.3462 94.6379 79.784C93.0234 81.2498 88.3838 83.302 82.7413 79.784Z"/><path fill="#fff" stroke="#262C2D" d="M91.8931 71.7575C91.8931 73.1612 91.4318 74.3219 90.7925 75.1237C90.1445 75.9364 89.3499 76.3425 88.6895 76.3425C88.0291 76.3425 87.2345 75.9364 86.5865 75.1237C85.9471 74.3219 85.4858 73.1612 85.4858 71.7575V70.3835C85.6937 70.3673 85.864 70.2782 85.9967 70.1545C86.1232 70.0366 86.2161 69.8848 86.2788 69.7823L86.2798 69.7807C86.2878 69.7676 86.2958 69.7546 86.3037 69.7415C86.4355 69.5256 86.5654 69.3127 86.8153 69.1027C87.3182 68.6801 88.4307 68.1819 91.239 68.3307C91.253 68.4123 91.2729 68.5211 91.3013 68.6219C91.3847 68.9182 91.5495 69.2134 91.8931 69.481V69.8859V71.7575Z"/><path fill="#262C2D" d="M88.6895 75.2071C89.2474 75.2071 89.6996 74.898 89.6996 74.5167H87.6794C87.6794 74.898 88.1317 75.2071 88.6895 75.2071Z"/><path stroke="#07A254" stroke-linecap="round" stroke-width="4" d="M104.983 61.0857H133.948"/><path stroke="#262C2D" d="M103.948 66.246H124.638"/><path stroke="#262C2D" d="M103.948 71.4059H129.81"/><path stroke="#262C2D" d="M103.948 81.7266H129.81"/><path stroke="#262C2D" d="M103.948 76.5663H124.638"/><path stroke="#07A254" stroke-linecap="round" stroke-width="4" d="M56.9265 13.3666H76.7623"/><path stroke="#262C2D" d="M56.0728 18.5271H87.1072"/><path stroke="#000" stroke-linecap="round" stroke-linejoin="round" d="M46.6379 14.5708L44.7138 16.4949L43.7517 15.5329"/><circle cx="45.195" cy="15.533" r="4.329" stroke="#000"/><circle cx="45.195" cy="15.533" r="4.329" stroke="#000"/></svg>