<svg xmlns="http://www.w3.org/2000/svg" width="407" height="228"><defs><radialGradient id="a" cx="27.841%" cy="75.727%" r="93.993%" fx="27.841%" fy="75.727%" gradientTransform="scale(.81085 1) rotate(-2.003 .31 -1.1)"><stop offset="0%" stop-color="#5094CC"/><stop offset="77.25%" stop-color="#BBD5E4"/></radialGradient><linearGradient id="b" x1="47.718%" x2="55.872%" y1="29.722%" y2="113.847%"><stop offset="0%" stop-color="#C7E0F4"/><stop offset="100%" stop-color="#94BDDB"/></linearGradient><radialGradient id="c" cx="55.397%" cy="47.37%" r="45.903%" fx="55.397%" fy="47.37%" gradientTransform="scale(1 .78049) rotate(-10.314 1.292 .54)"><stop offset="0%" stop-color="#59453A"/><stop offset="100%" stop-color="#9A6541" stop-opacity="0"/></radialGradient><linearGradient id="d" x1="58.667%" x2="46.366%" y1="89.659%" y2="10.612%"><stop offset="1.439%" stop-color="#48372D"/><stop offset="48.07%" stop-color="#59453A"/><stop offset="100%" stop-color="#9A6541"/></linearGradient><radialGradient id="e" cx="-2.822%" cy="54.864%" r="69.083%" fx="-2.822%" fy="54.864%" gradientTransform="matrix(.97385 .19653 -.22718 .84247 .124 .092)"><stop offset="2.562%" stop-color="#724937"/><stop offset="77.99%" stop-color="#9B643D"/></radialGradient><radialGradient id="f" cx="58.484%" cy="57.93%" r="57.271%" fx="58.484%" fy="57.93%" gradientTransform="matrix(1 0 0 .76306 0 .137)"><stop offset="0%" stop-color="#B5B6B6"/><stop offset="69.22%" stop-color="#E1DFDD"/></radialGradient><radialGradient id="g" cx="54.053%" cy="2.81%" r="54.249%" fx="54.053%" fy="2.81%" gradientTransform="scale(-.97525 -1) rotate(1.897 1.69 -33.058)"><stop offset="0%" stop-color="#9B643D"/><stop offset="45.48%" stop-color="#B88963"/><stop offset="100%" stop-color="#DFBA95"/></radialGradient><radialGradient id="h" cx="8.556%" cy="66.469%" r="65.057%" fx="8.556%" fy="66.469%" gradientTransform="matrix(.99645 -.0456 .08423 .53933 -.056 .31)"><stop offset=".032%" stop-color="#9B643D"/><stop offset="89.22%" stop-color="#BA8A63" stop-opacity=".108"/><stop offset="100%" stop-color="#BF8F67" stop-opacity="0"/></radialGradient></defs><g fill="none" fill-rule="evenodd"><path fill="#F3F2F1" fill-rule="nonzero" d="M323 227.9H118c-30.9 0-56-25.1-56-56s25.1-56 56-56h205c30.9 0 56 25.1 56 56s-25.1 56-56 56z"/><g fill-rule="nonzero" transform="translate(224 57)"><g opacity=".57"><path fill="#53ADE5" d="M176.8 51.8l-37.2-5.1c-1.3-15.3 1.4-31.2 8-46.3l34.5 5.1c-5.7 15.2-7.5 31.2-5.3 46.3z"/><path d="M151 15c-.8-.1-1.6-.2-2.3-.3-.4-.1-.6-.4-.5-.9.2-.8.5-1.6.7-2.4.1-.4.6-.7 1-.6.8.1 1.5.2 2.3.3.4.1.6.4.5.9-.2.8-.5 1.6-.7 2.4-.2.3-.6.6-1 .6zm-1.7 7.8l-2.4-.3c-.4-.1-.7-.4-.6-.9.2-.8.3-1.6.5-2.4.1-.4.5-.7.9-.6.8.1 1.6.2 2.3.3.4.1.7.4.6.9-.2.8-.3 1.6-.5 2.4 0 .3-.4.6-.8.6zm-1.1 7.8l-2.4-.3c-.4-.1-.7-.4-.7-.9l.3-2.4c.1-.4.4-.7.9-.6l2.4.3c.4.1.7.4.6.9L149 30c0 .4-.4.6-.8.6zm-.4 7.8l-2.4-.3c-.4-.1-.8-.4-.7-.9 0-.8 0-1.6.1-2.4 0-.4.4-.7.8-.6l2.4.3c.4.1.7.4.7.9 0 .8-.1 1.6-.1 2.4 0 .3-.4.6-.8.6zm22.8-21.8c-4.9-.7-9.8-1.4-14.7-2.2-.4-.1-.6-.4-.5-.9.1-.4.5-.7.9-.6 4.9.7 9.8 1.4 14.7 2.2.4.1.6.4.5.9 0 .4-.4.7-.9.6zm-1.5 7.8c-5-.7-9.9-1.4-14.9-2.2-.4-.1-.7-.4-.6-.9.1-.4.5-.7.9-.6 4.9.7 9.9 1.4 14.9 2.2.4.1.7.4.6.9-.1.4-.5.7-.9.6zm-1 7.8c-5-.7-10.1-1.4-15.1-2.2-.4-.1-.7-.4-.7-.9 0-.4.4-.7.8-.6 5 .7 10 1.4 15.1 2.2.4.1.7.4.7.9 0 .4-.3.7-.8.6zm-.2 7.8c-5.1-.7-10.2-1.4-15.3-2.2-.4-.1-.8-.4-.7-.9 0-.4.4-.7.8-.6 5.1.7 10.2 1.4 15.2 2.2.4.1.8.4.8.9-.1.4-.4.7-.8.6z" fill="#FFF"/></g><path fill="#9A6541" d="M65.5 141.1c8.3 5.5 53.2 8.6 73.9-7.5 28.5-19.7 21.5-63.2 18.5-71.2l-7.6-.9c-13.7 58.8-58.5 26.9-65.5 27.4-26.6 8.6-27.9 49.2-19.3 52.2z"/><path fill="url(#a)" d="M1.6 52.3C4.8 62.7 22.2 62 34.3 60 46.9 57.9 61 56.6 75 48.4L64.7 8.3c-3.8.7-13.3 5.7-42.9-7C6.3-5.4-3 49.3 1.6 52.3z" transform="translate(63 87)"/><path fill="#FFE5B9" d="M122.8 96.5c-.1 0 11.7 40.5 11.7 40.5 1.6-.8 3.3-1.6 4.6-3.2 0 0-11.3-38.7-11.5-38.7-1.4.5-4.8 1.4-4.8 1.4z"/><path fill="url(#b)" d="M105.6 170l3.1-38.1c0-17-5.8-30.8-18.8-40.4-4-3-8.4-5.4-13.2-7.3-6.1-2.3-14.4-2.8-21.3-2.9-.3 0-13.6 0-19 1.7-.9.3-3.3 1.2-3.6 1.3C12.6 92.1.9 109.4.9 131.5l4 38.5h100.7z"/><path fill="#9A6541" d="M17.2 171h35.4c.7-5 1.2-8.2 1.2-8.2.6-5.4 0-8.9.4-12.2.6-4.9 1-8.1 2-12.2 1.4-6.7 3.1-13.7 3.3-20.8-5.9-27.3-38.9-29.5-42.8-21.2-4.2 8.9-5.9 19.6-5.3 32.1.9 14.1 2.8 28.2 5.8 42.5z"/><path fill="#C7E0F4" d="M31.3 85.5c-5.7 2.4-12 5.9-15.5 10.1-4.3 9.1-6.1 21.3-5.4 33.5.5 9.2 2 18.2 3.8 27.4.7 3.6 40.3 0 40.3 0s4.2-28.5 10.1-33.2c9.7-7.8-31.5-38.6-33.3-37.8z"/><path fill="#9A6541" d="M78.6 85.1l-47-.2c2.8-1.1 4.5-3.1 3.8-8.4L32 57.7c-.4-2.5 1.3-4.8 3.7-5.2l27.5-4.4c2.5-.4 4.8 1.3 5.2 3.7l4.2 26.1c-.3 4.6 5.1 6.9 6 7.2z"/><path fill="#FFE5B9" d="M55 153.3l-41.3.3c.3 1.5.6 3.1.9 4.6l39.8-.3s.7-4.4.6-4.6zm1.4-73.1c8.8 0 17.8 1.3 25 4.2-1.3.8-2.9 1.3-4.7 1.3H33.6c-1.9 0-3.7-.6-5.1-1.5 7.7-2.8 15.7-3.9 24.3-3.9h3.6v-.1zm0-1.9h-3.5c-9.3 0-17.5 1.3-25 4l-3.6 1.3 3.1 2.1c1.8 1.2 3.9 1.9 6.2 1.9h43.1c2 0 4-.5 5.7-1.6l3.4-2-3.6-1.4c-7.1-2.8-16.3-4.3-25.8-4.3z"/><path fill="#9A6541" d="M33.7 86.4c-1.9 0-2.6-.5-3.5-1.1 7.7-3.1 14.3-5.5 22.9-5.5l3.3-.2c8.9 0 16.4 2.8 23.9 6-.8.6-1.7.7-3.5.7H33.7v.1z"/><path fill="#9A6541" d="M70.8 79.2l-15 2.4C45.1 83.3 34.9 76 33.2 65.3l-2.3-14.1c-1.7-10.7 5.6-20.9 16.3-22.6l5.8-.9C63.7 26 73.9 33.3 75.6 44l3.8 23.3c.9 5.6-2.9 11-8.6 11.9z"/><path fill="#9A6541" d="M79.15 55.85c.9-.5 1.5-1.1 2-2 .5-.9.6-1.8.4-2.7-.3-1.5-1.2-2.5-2.7-3.1-1.7-.7-2.7-1.6-3.2-2.8l-1.8 3c-1.1 2.2-1.6 3.7-1.4 4.7.2 1.3.9 2.5 2 3.5 1 .7 2 1.1 3.2.9.5-.7 1.1-1.3 1.5-1.5z"/><path fill="url(#c)" d="M50.3 68.5L35 71.3l-3.9-21.8 15.3-2.8z"/><path fill="#9A6541" d="M38.35 57.35c.3 1.5 1 2.6 2.1 3.5 1.1.9 3.2 1 4.4.7l-1.8-10.1c-1.3.2-3.5.8-4.1 2-.8 1.1-.9 2.4-.6 3.9z"/><path fill="url(#d)" d="M71.4 58.3c-5.8 1.1-5.8 4.4-9.9 5.3-5 1-7.4.2-10.1-1.4-1.6-.9-2.8-2.9-3.7-6.7l-3.1-14.4-3.8.2 3.4 17.2c1.6 8.4 2.5 16.4 7.3 19.7 3.8 2.6 7.3 3.1 10.7 2.6l8.4-1.5c5.8-1 9.8-6.4 8.8-12.1l-1.6-9.9s-1.6 0-6.4 1z" opacity=".75"/><ellipse cx="68.988" cy="48.413" fill="#33312D" rx="1.4" ry="2.5" transform="rotate(-9.172 68.988 48.413)"/><path fill="#9A6541" d="M75.8 62.6c-.1.7-.6 1.4-1.2 1.8-.6.5-1.4.7-2.2.6-.8 0-1.5-.3-2.1-.8-.6-.5-1-1.1-1.2-1.7 0-.1 0-.3.2-.3.1 0 .2 0 .2.1.9.9 1.9 1.4 3 1.5 1 .1 2-.4 2.9-1.3.1-.1.2-.1.4 0 0-.1.1 0 0 .1zM167 36c-1.5 4-.9 5.3-2.6 12.1-1 4.3-4.2 13-9.2 16.4l-5.3-2.7c-.1-1.6-.1-3.2 0-4.7.5-9.4 4.3-16.6 4.3-16.6.7-1 2.2-.8 2.4.5.1.8.2 4.1.2 6.4 0 .7.9.9 1.2.3 2.2-4.2 3.7-10.6 6.2-13.8 1.7-1.6 4.5-.3 2.8 2.1z"/><path fill="#9A6541" d="M155.3 64.5l-5.3-2.7c-.1-1.6-.1-3.2 0-4.7.5-9.4 4.3-16.6 4.3-16.6.7-1 2.2-.8 2.4.5.1.8.2 4.1.2 6.4 0 .7 3.4 13.7-1.6 17.1z"/></g><g fill-rule="nonzero" transform="translate(17 77)"><circle cx="130.4" cy="40.5" r="5.8" fill="#5A4539"/><g fill="#5A4539" transform="translate(98)"><circle cx="22.5" cy="7.5" r="6.6"/><circle cx="13.1" cy="10" r="6.6"/><circle cx="6.6" cy="17.8" r="6.6"/><circle cx="41.8" cy="36.4" r="5.8"/><circle cx="33.3" cy="10.4" r="6.6"/><circle cx="41.3" cy="17" r="6.6"/><circle cx="42.5" cy="27.6" r="6.6"/></g><path fill="#5A4539" d="M129.3 52.3l-22.9-5.4c-4.2-1-6-8.6-5-12.8l2.8-11.8c2.3-9.8 12.2-15.8 22-13.5l2.6.6c9.8 2.3 15.9 12.1 13.6 21.9l-2.8 11.8c-1.2 5.7-6.1 10.2-10.3 9.2z"/><path fill="#9B643D" d="M21.7 76.2s-12.2-8.7-15.9-14c-4.7-6.6-6.8-10-4.1-12.8-.1-.2-.4-1.4-.4-2.4-.1-1.4.5-3.9 2.9-1.2 3.1 3.3 9.1 9.6 9.1 9.6s-.4-3.8-.8-5.7c-.4-1.9 1-5.8 3.8.3 3.8 8.1 10.2 22.4 10.2 22.4l-4.8 3.8z"/><path fill="#53ADE5" d="M129.4 89.3c-4.1-6-11-3.9-20.8.7-14.6 6.9-36.3 7.7-48.7.7-21.7-12.2-35.6-24-35.6-24L15 73.1c3.1 3.9 27.1 38.8 51.9 45.5 28.6 7.7 56.5-4.6 61.2-11.7 3.6-5.5 5.2-11.8 1.3-17.6z"/><path fill="#53ADE5" d="M163.1 151c-1.7-12.1-1.6-22.8-1.6-27.3-.2-24.8-6.4-42-17.2-48.4-4.2-2.5-10.1-3.7-15.2-2.9-6.3.9-10.8 3.5-13.7 7.1-7.4 9.4-13 20.2-14.1 37.1-.6 9.8.3 22.2 1.7 34.4h60.1z"/><path fill="url(#e)" d="M125 41.7L106.4 49l8.5 22.3c1.5 3.9 2 5.3-.2 9 .3.3 25.2-6.9 25.1-7-3.7-1.7-7.4-12.6-8.7-16.1L125 41.7z"/><circle cx="129.6" cy="47" r="4.7" fill="#5A4539"/><path fill="#9B643D" d="M126.2 39.7l.9-11.3c.5-3.5.8-6-2.7-6.9L114 19c-3.5-.8-7.2 0-9.6 3.6-1.9 2.9-3.7 6.4-4.7 10-.5 1.8-3.6 15.4-3.6 15.4-1.9 7.9-.2 15.1 9.8 17.5l1.4.3c10.9 2.6 16.2-3.8 18.5-13.3l2.8-12.3-2.4-.5z"/><ellipse cx="104.62" cy="36.886" fill="#3A312E" rx="2.6" ry="1.4" transform="rotate(-76.325 104.62 36.886)"/><path fill="#9B643D" d="M129.4 45.2c.6 3.5-1.7 6.9-5.2 7.5-.2 0-3.3.6-3.6.6-3.3.2-3.4-2.5-4-5.8-.6-3.3-1.5-5.9 1.6-6.8.3-.1 3.4-.6 3.6-.7 3.6-.7 7 1.7 7.6 5.2z"/><path fill="#855035" d="M105.8 54.8c-.2.7-.6 1.3-1.1 1.9-.5.6-1.1 1-1.9 1.3-.8.3-1.6.3-2.3.2-.7-.1-1.4-.4-2-.9-.1-.1-.1-.3-.1-.4.1-.1.1-.1.2-.1 1.4.1 2.6.2 3.7-.2s2-1.2 3-2.1c.1-.1.3-.1.4 0 .1.1.1.2.1.3z"/><circle cx="117.4" cy="17.1" r="6.6" fill="#5A4539"/><path fill="#9B643D" d="M115.5 86.6c10.7-6.6 15.9-9.2 24.5-13.3-2.5-.8-7.5-1.6-10.9-1.1-6.3.9-10.8 3.5-13.7 7.1-2.2 2.8-4.2 5.8-5.9 9 .6 1.2 3.3 0 6-1.7zm-13.3-53.7l-2.3-1s-.2.5-.6 1.8c-.4 1.3-1.1 2.3-2 3.1l-3.7 3.4c-.6.5-.7 1.4-.1 2l2.4 2.6c.5.5.6 1.2.4 1.9l2.2.3 3.7-14.1z"/><path fill="#5A4539" d="M137.8 38.8l-10.4 1.4c-4 .5-7.7-2.3-8.2-6.3 0 0-.3-2.7-.7-5.3-.4-2.6-6.3-5.5-6.3-5.5l22.9-3.2 2.7 18.9z"/></g><g transform="translate(145 71)"><path fill="#DFBA95" fill-rule="nonzero" d="M173.71 82.334l-3.123-4.03 3.409-6.568a28.922 28.922 0 0 1 2.92-4.483 17.162 17.162 0 0 1 2.786-2.976c.539-.423 1.488-1.19 2.897-2.51 1.335-1.006 2.236-1.564 2.701-1.675.803-.142 1.612.158 2.324.874.49-.215 1.11-.51 1.936-.755.49-.215 1.036-.197 1.477-.204.89.428.951 1.103.34 1.839l-6.82 9.396 2.12-.602c1.55-.517 2.843-.873 3.75-.99.803-.142 1.3.084 1.41.55.111.466-.115.962-.783 1.465-1.899 1.534-3.62 2.78-5.268 3.713-1.133.614-2.444 1.517-4.27 2.738l-7.805 4.218z"/><path fill="#F9DBBD" fill-rule="nonzero" d="M39.7 36.1C42.1 50 54.5 59.3 67.4 57c12.9-2.3 21.4-15.4 18.9-29.2C83.9 13.9 76.6 4 58.6 6.9c-18 2.9-21.3 15.3-18.9 29.2z"/><path fill="#DFBA95" fill-rule="nonzero" d="M58.5 51l-7 1.1c-3 .5-5.7-1.5-6.2-4.5s1.5-5.7 4.5-6.2l7-1.1L58.5 51z"/><circle cx="82.3" cy="52.2" r="5" stroke="#F7B548" stroke-width=".562"/><path fill="#F9DBBD" fill-rule="nonzero" d="M45.6 17.9c.2-14 15.6-19.2 26.2-16.7C81.1 3.4 87.2 11.3 89 4.6c0 0 7.9 6 7.3 14.3-.6 8.3-7.4 12.2-14.4 10.5-4.6-1.1-9.8-7.8-18.9-11.1-7.5-2.7-17.4-.4-17.4-.4z"/><path fill="#DFBA95" fill-rule="nonzero" d="M80.9 80.5s21.4 12.2 48 11.5c14.4-.4 42.4-14.6 42.4-14.6l5.4 3.8c-4.5 1.2-11 15.5-45.6 24.3-7.1 1.8-49.4 4.4-62.4-7.1-4.2-3.7-6.8-7.6-5.4-12 2-6.3 11.9-9.2 17.6-5.9z"/><path fill="url(#f)" fill-rule="nonzero" d="M30.9 119.4c1.9 12.6-.5 26.7-3.3 37.6h61.9c-3.3-13.7-6.3-31.9-2.8-44.7 2.3-6.9 2.4-10.8 2.2-14.8-.5-7.5-3.3-13.7-11.2-18.4 0 0-.1 0-.1-.1-5-2.9-11.2-4.7-17.9-4.8-6.1-.1-10.2.2-16.5 3.2 0 0-19 9.2-16.7 24.6.9 5.8 3.2 9.9 4.4 17.4z"/><path fill="url(#g)" fill-rule="nonzero" d="M53.3 69.9l.4-15.3 14.6.5-.5 15.1c0 3.4.3 4.6 3.7 6.5 4.3 2.3-4.4 2.6-11.1 2.4-6.8-.2-15.7-2.1-12.1-3.3 3.1-1.1 5.2-1.7 5-5.9z"/><path fill="#DFBA95" fill-rule="nonzero" d="M47.2 41.7c2.2 13.6 12.1 23.4 22.2 21.8 10-1.6 16.4-14 14.2-27.6-2.2-13.6-11.9-22.1-22-20.5C51.5 16.9 45 28 47.2 41.7z"/><circle cx="51.5" cy="57.4" r="5" stroke="#F7B548" stroke-width=".562"/><ellipse cx="60.183" cy="40.808" fill="#3A312E" fill-rule="nonzero" rx="1.6" ry="2.7" transform="rotate(-8.291 60.183 40.808)"/><path fill="url(#h)" fill-rule="nonzero" d="M67 26.9l1.6 7.2c.7 3.8 3.2 6.8 4.9 8.4.8.8.9 2.1.2 3-1.2 1.5-2.6 3.7-2.3 5.5l.9 4.3 11.1-.8L79.5 25 67 26.9z"/><path fill="#DFBA95" fill-rule="nonzero" d="M45 76.7c5.1 2.8 11.9 4.5 19.7 4.6 5.2 0 8.8-1.5 10.8-3.4-5.6-3.1-9.4-4.4-15.8-4.4-5.7-.1-9.1.4-14.7 3.2z"/><path fill="#BF8F67" fill-rule="nonzero" d="M74.1 53.3c-.5.6-1.1 1.1-1.9 1.5-.7.3-1.6.5-2.4.4-1.7-.1-3.3-1-4-2.4-.1-.1 0-.3.1-.4h.3c1.2.8 2.5 1.2 3.8 1.3 1.3.1 2.5-.3 3.9-.9.1-.1.3 0 .3.1 0 .3 0 .4-.1.4z"/><path fill="#DFBA95" fill-rule="nonzero" d="M34.3 112.7c-8.7 8.2-13.5 15.2-21.7 33.2-.7 1.5-15.2-3.8-11.8-13.8 2.8-8.3 14.5-31.2 27.3-43.8 3.5-3.4 10.4-9.3 12.6-3.6 3.2 8.2-1.4 23.2-6.4 28z"/><path fill="#DFBA95" fill-rule="nonzero" d="M22.6 125.3c.9 1.1-3.8 5.3-.5 6.9 7.3 3.6 18.8 6.2 27.8 6.7l.3 5.4c-3.6.6-30.1 12.3-46.8-2.8-5-4.5 9.2-28.6 19.2-16.2z"/><ellipse cx="75.492" cy="38.407" fill="#3A312E" fill-rule="nonzero" rx="1.6" ry="2.7" transform="rotate(-8.291 75.492 38.407)"/><path fill="#F9DBBD" fill-rule="nonzero" d="M42.7 22.5s10-7.4 19.2-8.9 18.7 2.8 18.7 2.8l4 19.2-1.2.7-5.2-13.8c-.5-1.1-1.6-1.8-2.7-1.6l-23.2 3.7c-1.1.2-1.9 1.2-2 2.4l-.7 14.7-6 .5-.9-19.7z"/><path fill="#DFBA95" fill-rule="nonzero" d="M43.663 139.486l1.604 4.883 7.283.828c1.588.262 3.353.236 5.376.05 1.66-.05 3.033-.279 4.094-.58.594-.19 1.887-.547 3.646-1.015 1.55-.516 2.53-.946 2.916-1.185.564-.528.76-1.362.666-2.373.41-.344 1.03-.638 1.697-1.142.41-.343.717-.711 1.023-1.08.115-.962-.332-1.396-1.344-1.304l-11.523.378 1.77-1.454c1.336-1.006 2.31-1.878 2.897-2.51.588-.631.71-1.152.342-1.459-.343-.41-.889-.428-1.716-.182a38.663 38.663 0 0 0-6.017 2.218 83.924 83.924 0 0 1-4.645 1.99l-8.069 3.937z"/><path fill="#FFF" fill-rule="nonzero" d="M75 157l8-40.9c.2-1.1-.5-1.9-1.6-1.9l-29.8.1c-1.1 0-2.1.9-2.3 1.9l-8 40.8H75z"/></g><path fill="#E2F3FC" fill-rule="nonzero" d="M95.9 23.5h30c4.2 0 7.5 3.4 7.5 7.5v13.1c0 4.2-3.4 7.5-7.5 7.5h-2.7c.3 3.2 1.9 6.1 4.2 8.1-1 .2-2 .3-3.1.2-5.1-.3-9.3-3.7-10.8-8.3H95.9c-4.2 0-7.5-3.4-7.5-7.5v-13c0-4.2 3.3-7.6 7.5-7.6zM287.2.8h-52.6c-7.3 0-13.2 5.9-13.2 13.2v22.9c0 7.3 5.9 13.2 13.2 13.2h4.8c-.5 5.6-3.3 10.7-7.4 14.2 1.7.3 3.5.4 5.4.3 8.9-.6 16.2-6.5 19-14.5h30.8c7.3 0 13.2-5.9 13.2-13.2V14c0-7.3-5.9-13.2-13.2-13.2z"/><g fill-rule="nonzero" opacity=".4" transform="translate(0 46)"><path fill="#53ADE5" d="M.4 29.8C0 29 0 28.1.3 27.3 8.4 8.2 21.5 15.6 32.8 11.5 40.4 8.8 43.7 3.8 45.1.9c.4-.9 1.6-.9 2 0l16.7 32.3c.4.7.4 1.6.1 2.3-1 2.5-3.8 8.1-10.1 11.4-7.3 3.8-16.4.8-24.4 4.9-5.5 2.9-8.8 6.7-10.4 8.8-.5.7-1.5.6-1.9-.1L.4 29.8z"/><path fill="#FFF" d="M4.5 28.4c6.7-16.3 20.5-8.5 29.7-12.1 8.7-3.4 11.6-8.5 11.6-8.5l13.4 25.8s-1.8 6.6-8.8 9.6c-6.1 2.6-14.2.2-20.7 2.5-6.9 2.4-11.2 9.1-11.2 9.1l-14-26.4z"/><circle cx="19.1" cy="26" r="3.7" fill="#53ADE5" opacity=".77"/><path fill="#53ADE5" d="M55.8 27.2l3.4 6.5s-.9 6-8.8 9.6c-6.1 2.8-14.2.2-20.7 2.5-6.9 2.4-11.2 9.1-11.2 9.1l-5.4-10.4 5.5-8.1c.9-1.3 2.3-2 3.9-1.9l17.9.9 3.7-8.1c.6-1.2 1.8-1.9 3.1-1.6l8.6 1.5z" opacity=".77"/></g></g></svg>