<?xml version="1.0" encoding="UTF-8"?>
<svg width="120px" height="120px" viewBox="0 0 120 120" version="1.1" xmlns="http://www.w3.org/2000/svg" xmlns:xlink="http://www.w3.org/1999/xlink">
    <title>illustration_junk</title>
    <defs>
        <radialGradient cx="46.0790378%" cy="26.8850882%" fx="46.0790378%" fy="26.8850882%" r="76.1597083%" gradientTransform="translate(0.460790,0.268851),scale(0.720588,1.000000),translate(-0.460790,-0.268851)" id="radialGradient-1">
            <stop stop-color="#C7C5C3" offset="0%"></stop>
            <stop stop-color="#E1DFDD" offset="100%"></stop>
        </radialGradient>
    </defs>
    <g id="illustration_junk" stroke="none" stroke-width="1" fill="none" fill-rule="evenodd">
        <g id="Mail-/-Junk-/-General-/-Light">
            <path d="M107.407289,56.7912389 L98.593393,4.00525494 C98.3810951,2.71105935 97.6672107,1.55223237 96.6060252,0.779220779 L56.640543,48.4358104 L2.38378573,16.4496817 C1.63803887,17.5329131 1.34794935,18.865071 1.57591263,20.159621 L10.3574932,72.945605 C10.8149874,75.6790076 13.4029827,77.5265153 16.1418646,77.0749287 L103.270978,62.557775 C106.005315,62.1009387 107.854718,59.5226383 107.407289,56.7912389 Z" id="Path" fill="url(#radialGradient-1)" fill-rule="nonzero"></path>
            <path d="M96.5649351,0.978700936 C95.4721968,0.177484045 94.0990788,-0.151910843 92.7576158,0.0653697649 L5.56919726,14.4863883 C4.23883433,14.7090086 3.05390709,15.4505842 2.27922078,16.5453892 L56.640543,48.4358104 L96.5649351,0.978700936 Z" id="Path" fill="#E1DFDD" fill-rule="nonzero"></path>
            <path d="M109.041644,61.5720161 C109.848983,61.7056 110.556525,62.1868945 110.976197,62.8879654 C111.395868,63.5890362 111.485154,64.43886 111.22032,65.2115425 L95.8162795,116.044131 C94.9137936,118.76759 92.1421177,120.414714 89.3125308,119.909114 L85.5200223,119.160274 L85.5200223,119.273002 L58.2139608,113.757349 C55.4081779,113.142159 53.4908763,110.551034 53.7275038,107.694155 L56.7050265,54.8485549 C56.7762714,54.0294023 57.1937263,53.2792866 57.8529101,52.7859475 C58.512094,52.2926084 59.3506232,52.1027343 60.15863,52.263847 L109.041644,61.5720161 Z" id="🗑️-Bin-" fill="#B2AEAA" fill-rule="evenodd"></path>
            <path d="M97.1122517,70.9937626 C98.2472832,71.2999018 98.9976405,72.3692205 98.8928567,73.5312661 L91.2797317,106.897868 C91.1933306,107.856051 90.5401094,108.671224 89.6184981,108.970969 C88.6968867,109.270714 87.6838428,108.997477 87.0421845,108.276089 C86.4005261,107.554701 86.2534575,106.523675 86.6681681,105.654044 L94.2812932,72.2874413 C94.7842378,71.2327872 95.9772202,70.6876234 97.1122517,70.9937626 Z M84.2069135,67.7523884 C84.8649545,68.4483827 85.0576746,69.4787197 84.6975037,70.3752242 L78.7107848,104.416063 C78.6728048,105.390458 78.0717862,106.247569 77.1834507,106.594192 C76.2951152,106.940815 75.2909079,106.710052 74.6315163,106.007768 C73.9721246,105.305483 73.7848085,104.267215 74.1555006,103.369277 L80.1343111,69.328438 C80.1805134,68.3599098 80.7825121,67.5118795 81.666765,67.169684 C82.5510178,66.8274885 83.5488725,67.0563941 84.2069135,67.7523884 Z M68.9463937,65.4971464 C70.0655774,65.7168994 70.8694767,66.7406826 70.8503139,67.9218302 L66.031059,102.058691 C65.6325642,103.165357 64.5234393,103.813516 63.4042556,103.593763 C62.2850719,103.37401 61.4811726,102.350226 61.5003354,101.169079 L66.3195904,67.0322176 C66.7180851,65.9255523 67.82721,65.2773934 68.9463937,65.4971464 Z" id="🗑️-Bin---Lines" fill="#797673" fill-rule="evenodd"></path>
            <path d="M82.1489567,34.6031028 L94.1948574,36.870086 C95.7955501,37.1641846 97.2142806,38.091913 98.1367806,39.4477665 C99.0592806,40.80362 99.4094009,42.4756777 99.1095849,44.0935556 L97.5839091,52.372 L115.299276,55.6500072 C116.625445,55.8966081 117.718943,56.829977 118.167858,58.098523 C118.616774,59.3670689 118.352907,60.7780696 117.475654,61.8000146 C116.5984,62.8219596 115.241036,63.2995912 113.914867,63.0529902 L54.0695384,51.9283331 C52.629966,51.8160625 51.3809345,50.894283 50.8525983,49.5542464 C50.3242621,48.2142098 50.6093108,46.6910074 51.5867547,45.6311663 C52.5641987,44.5713253 54.0625584,44.1607804 55.4458514,44.5737884 L73.5169091,47.918 L75.0177835,39.5677147 C75.635314,36.2064524 78.8256013,33.985424 82.1489567,34.6031028 Z M80.6436526,40.1263827 C80.4921991,40.2305867 80.3891328,40.3926223 80.3581328,40.5752627 L78.7729091,48.89 L92.2249091,51.38 L93.7531744,43.0941329 C93.8173536,42.7186343 93.5758186,42.3592433 93.2070935,42.2815941 L81.1611928,40.0227364 C80.9819266,39.9847647 80.7951062,40.0221787 80.6436526,40.1263827 Z" id="🗑️-Bin---Lid" fill="#797673" fill-rule="evenodd"></path>
        </g>
    </g>
</svg>