<svg id="Layer_1" data-name="Layer 1" xmlns="http://www.w3.org/2000/svg" xmlns:xlink="http://www.w3.org/1999/xlink" viewBox="0 0 115 115"><defs><style>.cls-1{fill:#f9ddbf;}.cls-2{fill:url(#radial-gradient);}.cls-3{fill:#c4bebb;}.cls-4{fill:#797673;}.cls-5{fill:#414042;}</style><radialGradient id="radial-gradient" cx="60.098" cy="103.361" r="24.366" gradientUnits="userSpaceOnUse"><stop offset="0.002" stop-color="#a09997"/><stop offset="0.749" stop-color="#c4bebb"/></radialGradient></defs><title>ErrorState_OfficeLauncher</title><path class="cls-1" d="M57.24,49.7H57.2v0s-.09,0-.234.007c-1.231-.007-6.2-.333-7.45-5.055a66.141,66.141,0,0,0-1.763-6.63,1.691,1.691,0,0,0-3.124-.131,1.69,1.69,0,0,0-2.49-.456c-1.018.549-.956,2.864-1.674,7.717-.669,4.523-5.01,5.577-6.564,5.811-.214.011-.427.021-.649.019,0,0,.311,6.322,3.938,8.809s4.016,1.71,4.094,2.876,0,3.808,0,3.808h7.151V63.131c0-.933,1.244-.855,3.731-2.72s5.052-4.586,5.052-7.695c0-2.115-.008-2.748-.014-2.937Z"/><path class="cls-2" d="M48.464,65.761A4.652,4.652,0,0,0,51.5,70.282c3.265,1.244,7.423,1.477,11.232,3.808s6.917,5.286,7.461,13.758-.207,17.229-4.4,21.271-12.074,4.534-18.059,3.368-10.8-2.1-14.3-3.731-12.437.855-12.437.855-1.4-11.037-.466-19.82,2.721-13.835,9.949-16.556,10.806-3.044,10.806-7.4Z"/><path class="cls-3" d="M70.195,87.848c-.544-8.472-3.653-11.426-7.461-13.757a18.383,18.383,0,0,0-4.119-1.818L50.423,76.52s1.434,1.275,3.265,3.106,3.982,6.132,3.982,13.538-2.389,9.477-2.389,9.477l6.918,8.8a12.017,12.017,0,0,0,3.592-2.322C69.988,105.077,70.739,96.32,70.195,87.848Z"/><path class="cls-1" d="M23.585,113.389c-2.7-1.543-4.974-5.052,2.565-13.447s13.6-15,14.457-18.654-.233-9.094-.311-10.26,3.5-3.964,4.12-4.042,5.482,1.17,5.441,1.4c-.1.576-1.522.5-1.522.5a4.674,4.674,0,0,1,.978,1.445,6.583,6.583,0,0,1-.434,2.733c-.218.734-.379,1.56-1,1.4-.263-.068-.249-.322-.212-.607.247-1.931-.346-2.09-.607-2.126a3.05,3.05,0,0,0-1.788,2.954c.389,2.487,1.166,3.653.855,6.607s-6.84,17.41-9.871,22.851S30.114,117.12,23.585,113.389Z"/><path class="cls-1" d="M67.252,107.317a6.725,6.725,0,0,0-.261-1.5,5.632,5.632,0,0,0-1.733-2.914c-.069-.069-.14-.135-.213-.2-.047-.041-.093-.083-.141-.123q-.211-.181-.438-.344l-.077-.056c-.117-.082-.235-.16-.356-.234a5.7,5.7,0,0,0-2.375-.913c-.136-.013-.273-.024-.412-.033a6.807,6.807,0,0,0-.7-.038c-.092,0-.18.011-.271.014a9.484,9.484,0,0,0-5.939,2.37c-3.108,2.464-7.715,5.363-18.6,6.4a50.479,50.479,0,0,0,17.1,4.042c6.488.189,10.264-1.187,12.827-4.231A12.494,12.494,0,0,0,67.252,107.317Z"/><path class="cls-4" d="M57.5.613A56.818,56.818,0,0,0,5.222,79.625a14.739,14.739,0,0,1,6.886-6.053c3.485-1.54,3.109-6.218,2.28-8.912s-3.109-4.975,6.218-12.851,3.938-15.753,10.363-21.556S47.1,24.384,53.562,26.936c7.876,3.109,8.5,11.608,9.12,16.375S66,51.6,69.522,52.431s8.083,4.145,8.083,7.461-5.389,8.5-2.694,12.022S87.14,76.059,88.176,83.107s-8.913,8.912-8.913,11.607,7.462,3.109,9.949,8.083a2.6,2.6,0,0,1,.215,1.577A56.793,56.793,0,0,0,57.5.613ZM67.911,47.485a1.706,1.706,0,1,1,1.7-1.7A1.706,1.706,0,0,1,67.911,47.485Zm19.721.593a14.387,14.387,0,0,1-9.538-3.611,3.7,3.7,0,1,1-3.971-5.731,14.449,14.449,0,1,1,13.509,9.342Z"/><path class="cls-5" d="M87.353,43.094a2.06,2.06,0,0,1-1.087-1.051,1.849,1.849,0,0,1-.168-.782,1.91,1.91,0,0,1,.165-.8,2.08,2.08,0,0,1,.449-.637,2.008,2.008,0,0,1,2.8.006,1.92,1.92,0,0,1,.584,1.428,1.888,1.888,0,0,1-.58,1.429,1.947,1.947,0,0,1-2.167.41Zm-.9-7.577-.32-9.731A1.675,1.675,0,0,1,87.8,24.055h.612a1.677,1.677,0,0,1,1.678,1.726L89.8,35.512a1.677,1.677,0,0,1-1.673,1.626h0A1.677,1.677,0,0,1,86.449,35.517Z"/></svg>